<?xml version="1.0" encoding="UTF-8"?>
<!DOCTYPE svg PUBLIC "-//W3C//DTD SVG 1.1//EN" "http://www.w3.org/Graphics/SVG/1.1/DTD/svg11.dtd">
<!-- Creator: CorelDRAW 2020 (64-Bit) -->
<svg xmlns="http://www.w3.org/2000/svg" xml:space="preserve" width="2.69007in" height="2.75463in" version="1.1" style="shape-rendering:geometricPrecision; text-rendering:geometricPrecision; image-rendering:optimizeQuality; fill-rule:evenodd; clip-rule:evenodd"
viewBox="0 0 2167.77 2219.8"
 xmlns:xlink="http://www.w3.org/1999/xlink"
 xmlns:xodm="http://www.corel.com/coreldraw/odm/2003">
 <defs>
  <style type="text/css">
   <![CDATA[
    .fil0 {fill:#096AD8}
   ]]>
  </style>
 </defs>
 <g id="Layer_x0020_1">
  <metadata id="CorelCorpID_0Corel-Layer"/>
  <path class="fil0" d="M-0 69.37c0,34.95 14.27,79.79 20.59,109.47l165.84 748.96c82.29,19.17 429.56,75.21 517.16,89.82l258.53 44.96c41.4,8.26 85.63,15.36 129.2,22.54l131.3 29.11 -389.82 65.41c-42.03,8.38 -84.62,15.1 -129.21,22.53l-388.21 67.02c-43.05,8.43 -88.22,13.31 -128.95,22.8 -0.56,25.07 -131.62,596.23 -141.38,639.02 -8.49,37.24 -16.12,69.94 -23.73,106.34 -6.7,32.07 -21.32,77.24 -21.32,113.08 0,45.43 31.89,69.37 78.04,69.37 34.96,0 107.28,-47.01 137.23,-62.21l462.54 -235.48c24.2,-11.98 40.25,-22.34 65.02,-34.7l1321.73 -676.95c41.75,-25.42 103.22,-34.87 103.22,-100.56 0,-65.11 -59.17,-73.68 -100.56,-98.88l-395.14 -203.16c-23.92,-11.96 -42.56,-21.28 -66.48,-33.24 -11.95,-5.97 -21.25,-10.32 -31.85,-15.84l-1355.57 -695.14c-58.1,-29.03 -95.55,-63.64 -157.47,-63.64 -31.93,0 -60.7,35.47 -60.7,69.37z"/>
 </g>
</svg>
