<?xml version="1.0" encoding="UTF-8"?>
<!DOCTYPE svg PUBLIC "-//W3C//DTD SVG 1.1//EN" "http://www.w3.org/Graphics/SVG/1.1/DTD/svg11.dtd">
<!-- Creator: CorelDRAW 2020 (64-Bit) -->
<svg xmlns="http://www.w3.org/2000/svg" xml:space="preserve" width="8.5in" height="11in" version="1.1" style="shape-rendering:geometricPrecision; text-rendering:geometricPrecision; image-rendering:optimizeQuality; fill-rule:evenodd; clip-rule:evenodd"
viewBox="0 0 8500 11000"
 xmlns:xlink="http://www.w3.org/1999/xlink"
 xmlns:xodm="http://www.corel.com/coreldraw/odm/2003">
 <defs>
  <style type="text/css">
   <![CDATA[
    .fil4 {fill:#69CAF3;fill-rule:nonzero}
    .fil8 {fill:#53C1EF;fill-rule:nonzero}
    .fil3 {fill:#53C1EF;fill-rule:nonzero}
    .fil7 {fill:#32ADE3;fill-rule:nonzero}
    .fil1 {fill:#32ADE3;fill-rule:nonzero}
    .fil2 {fill:#0098DA;fill-rule:nonzero}
    .fil29 {fill:#1A1A1A;fill-rule:nonzero}
    .fil49 {fill:#1E5E7A;fill-rule:nonzero}
    .fil39 {fill:#214C7F;fill-rule:nonzero}
    .fil32 {fill:#234B7F;fill-rule:nonzero}
    .fil0 {fill:#292929;fill-rule:nonzero}
    .fil33 {fill:#29A7B5;fill-rule:nonzero}
    .fil21 {fill:#303030;fill-rule:nonzero}
    .fil41 {fill:#334654;fill-rule:nonzero}
    .fil5 {fill:#3E1839;fill-rule:nonzero}
    .fil24 {fill:#404040;fill-rule:nonzero}
    .fil30 {fill:#4D4D4D;fill-rule:nonzero}
    .fil14 {fill:#522A4D;fill-rule:nonzero}
    .fil23 {fill:#666666;fill-rule:nonzero}
    .fil27 {fill:gray;fill-rule:nonzero}
    .fil48 {fill:#815076;fill-rule:nonzero}
    .fil28 {fill:#999999;fill-rule:nonzero}
    .fil20 {fill:#A8958C;fill-rule:nonzero}
    .fil9 {fill:#ADD5D6;fill-rule:nonzero}
    .fil47 {fill:#BA5720;fill-rule:nonzero}
    .fil43 {fill:#C7784C;fill-rule:nonzero}
    .fil25 {fill:#CCCCCC;fill-rule:nonzero}
    .fil11 {fill:#CDB0A2;fill-rule:nonzero}
    .fil26 {fill:#D1C7C2;fill-rule:nonzero}
    .fil50 {fill:#DC6161;fill-rule:nonzero}
    .fil19 {fill:#DCDEDD;fill-rule:nonzero}
    .fil46 {fill:#DDB596;fill-rule:nonzero}
    .fil44 {fill:#DFCFB5;fill-rule:nonzero}
    .fil37 {fill:#E35252;fill-rule:nonzero}
    .fil35 {fill:#E6DBD5;fill-rule:nonzero}
    .fil42 {fill:#F2EADC;fill-rule:nonzero}
    .fil40 {fill:whitesmoke;fill-rule:nonzero}
    .fil12 {fill:#F6F0E4;fill-rule:nonzero}
    .fil31 {fill:#F7DBCD;fill-rule:nonzero}
    .fil22 {fill:#F9F9F9;fill-rule:nonzero}
    .fil38 {fill:#FADD8D;fill-rule:nonzero}
    .fil17 {fill:#FF7E33;fill-rule:nonzero}
    .fil34 {fill:#FF978A;fill-rule:nonzero}
    .fil16 {fill:#FFB169;fill-rule:nonzero}
    .fil36 {fill:#FFC0B8;fill-rule:nonzero}
    .fil18 {fill:#FFD8B5;fill-rule:nonzero}
    .fil6 {fill:#FFE0FB;fill-rule:nonzero}
    .fil15 {fill:#FFEEE6;fill-rule:nonzero}
    .fil51 {fill:#FFF1F0;fill-rule:nonzero}
    .fil10 {fill:#FFF8F5;fill-rule:nonzero}
    .fil45 {fill:#FFFCF7;fill-rule:nonzero}
    .fil13 {fill:white;fill-rule:nonzero}
   ]]>
  </style>
 </defs>
 <g id="Layer_x0020_1">
  <metadata id="CorelCorpID_0Corel-Layer"/>
  <g id="_2145641397696">
   <polygon class="fil0" points="4606.12,7493.77 2544.13,6303.29 3376.55,5825.26 5438.54,7015.74 "/>
   <polygon class="fil1" points="4606.12,7619.62 4606.12,7493.77 5438.54,7015.74 5438.54,7141.61 "/>
   <polygon class="fil2" points="4606.12,7619.62 4606.12,7493.77 2544.13,6303.29 2544.13,6429.13 "/>
   <path class="fil3" d="M5522.37 5838.77l0 1091.49c0,59.21 -20.63,100.21 -52.71,116.18l0.14 0.14 -813.73 469.42 -74.78 -460.9 -1.61 -480.86 -48.31 -27.82 -42.06 -24.36 -375.18 -216.67 -749.97 -432.94c-59.5,-34.35 -110.33,-112.74 -131.11,-194.06l-4.39 5.86 -346.03 -412.58 -429.22 -402.59 813.98 -469.3c3.07,-1.98 6.13,-3.86 9.46,-5.32l3.98 -2.26 0 0.54c23.42,-9.32 52.04,-6.39 83.32,11.69l2017 1164.55c1.46,0.81 2.81,1.6 4.25,2.54 60.83,37.53 112.07,120.71 130.04,204.94 4.52,20.9 6.92,41.93 6.92,62.3z"/>
   <path class="fil2" d="M5522.37 5838.77l0 1091.49c0,59.21 -20.63,100.21 -52.71,116.18l0.14 0.14 -813.73 469.42 -74.78 -460.9 -1.61 -480.86 -48.31 -27.82 24.89 -149.06 297.19 -297.21 217.47 -164.08 443.6 -159.72 0.93 0.13c4.52,20.9 6.92,41.93 6.92,62.3z"/>
   <path class="fil1" d="M5522.37 5838.77l0 86.76 -1033.06 596.52 -506.28 292.28 0 -433.21 131.1 -75.74 1271.28 -733.86c76,46.85 136.96,165.03 136.96,267.25z"/>
   <path class="fil4" d="M4564.39 7508.55l-2017.07 -1164.57c-77.97,-45.01 -141.19,-165.8 -141.19,-269.78l0 -1091.58c0,-103.96 63.22,-151.75 141.19,-106.74l2017.07 1164.55c77.97,45.03 141.19,165.8 141.19,269.78l0 1091.59c0,103.97 -63.22,151.76 -141.19,106.75z"/>
   <path class="fil5" d="M4583.63 7517.93c-6.32,-2.5 -12.75,-5.61 -19.3,-9.4l-274.83 -158.63c-0.02,-0.03 -0.03,-0.06 -0.04,-0.08l274.93 158.74c6.53,3.76 12.96,6.89 19.25,9.37z"/>
   <path class="fil1" d="M4620.37 7525.45c-11.53,0 -23.86,-2.44 -36.74,-7.53 -6.29,-2.48 -12.72,-5.61 -19.25,-9.37l-274.93 -158.74c-6.5,-12.86 -10.47,-20.82 -10.47,-20.82l88.78 -487.92 184.19 -442.26 153.58 494.04 0 508.94c0,77.39 -35.06,123.65 -85.17,123.65z"/>
   <path class="fil6" d="M4551.95 6321.74l0 969.44c0,34.21 -7.71,61.5 -21.15,80.39 -3.2,4.79 -6.79,8.93 -10.65,12.53 -4.53,4.11 -9.58,7.57 -14.92,10.37l-83.44 50.04c23.43,-16.78 37.94,-50.85 37.94,-97.83l0 -969.57c0,-16.38 -1.74,-33.28 -5.07,-50.18 -15.04,-76.39 -61.35,-153.04 -116.72,-187.11l-3.72 -2.26 -1791.56 -1034.41c-31.93,-18.5 -61.08,-19.42 -83.18,-5.85l-0.26 -0.26 89.83 -53.37c2.67,-1.86 5.32,-3.46 8.39,-4.79l3.46 -1.99 0 0.39c20.9,-8.25 46.32,-5.58 74,10.52l1791.54 1034.26c1.35,0.79 2.54,1.46 3.87,2.26 3.72,2.26 7.46,4.78 11.03,7.44 2.93,2.26 5.86,4.53 8.79,6.92 2,1.6 3.99,3.33 6,5.2 1.58,1.46 3.18,2.79 4.65,4.39 1.98,1.86 3.86,3.74 5.86,5.72 1.86,1.86 3.72,3.87 5.58,6 4.93,5.32 9.58,10.9 14.11,16.9 2.53,3.04 4.78,6.39 7.18,9.71 5.07,7.06 9.72,14.52 14.25,22.36 1.32,2.25 2.65,4.53 3.85,6.79 4.26,7.46 8.12,15.17 11.72,23.03 1.74,4.13 3.6,8.11 5.19,12.36 1.72,4.12 3.46,8.39 4.92,12.65l0.93 2.39c1.46,4 2.79,8.13 4,12.25 1.46,4.51 2.79,9.06 3.98,13.71l0 0.26c1.21,4.67 2.4,9.32 3.33,13.97 1.06,4.67 2,9.32 2.67,13.98 0.65,3.46 1.2,7.06 1.46,10.52 0.39,1.72 0.53,3.32 0.67,5.06 0.53,4.51 0.92,9.18 1.06,13.69 0.28,4.14 0.4,8.13 0.4,12.11z"/>
   <path class="fil2" d="M4551.95 6321.74l0 969.44c0,34.21 -7.71,61.5 -21.15,80.39 -3.2,4.67 -6.79,8.93 -10.65,12.53 -4.53,4.11 -9.58,7.57 -14.92,10.37l-83.44 50.04c23.43,-16.78 37.94,-50.85 37.94,-97.83l0 -969.57c0,-16.38 -1.74,-33.28 -5.07,-50.18l90.25 -60.68 0.79 0.13c1.06,4.67 2,9.32 2.67,13.98 0.65,3.46 1.2,7.06 1.46,10.52 0.39,1.72 0.53,3.32 0.67,5.06 0.53,4.51 0.92,9.18 1.06,13.69 0.28,4.14 0.4,8.13 0.4,12.11z"/>
   <path class="fil7" d="M4551.95 6321.74l0 77.07 -92.22 55.5 0 -77.19c0,-16.38 -1.74,-33.28 -5.07,-50.18 -15.04,-76.39 -61.35,-153.04 -116.72,-187.11l92.37 -55.5c3.72,2.26 7.46,4.78 11.03,7.44 2.93,2.26 5.86,4.53 8.79,6.92 2,1.6 3.99,3.33 6,5.2 1.58,1.46 3.18,2.79 4.65,4.39 1.98,1.86 3.86,3.74 5.86,5.72 1.86,1.86 3.72,3.87 5.58,6 4.93,5.32 9.58,10.9 14.11,16.9 2.53,3.04 4.78,6.39 7.18,9.71 5.07,7.06 9.72,14.52 14.25,22.36 1.32,2.25 2.65,4.53 3.85,6.79 4.26,7.46 8.12,15.17 11.72,23.03 1.74,4.13 3.6,8.11 5.19,12.36 1.72,4.12 3.46,8.39 4.92,12.65l0.93 2.39c1.46,4 2.79,8.13 4,12.25 1.46,4.51 2.79,9.06 3.98,13.71l0 0.26c2.54,9.32 4.53,18.64 6,27.96 0.65,3.46 1.2,7.06 1.46,10.52 0.39,1.72 0.53,3.32 0.67,5.06 0.53,4.51 0.92,9.18 1.06,13.69 0.28,4.14 0.4,8.13 0.4,12.11z"/>
   <path class="fil8" d="M4459.73 6377.12l0 969.57c0,46.99 -14.52,81.06 -37.94,97.83 -22.63,16.36 -53.5,16.63 -87.57,-3.07l-1791.56 -1034.25c-69.21,-40.06 -125.37,-147.33 -125.37,-239.7l0 -969.58c0,-49.78 16.37,-85.04 42.19,-100.61 22.1,-13.57 51.25,-12.65 83.18,5.85l1791.56 1034.41c69.35,39.93 125.52,147.19 125.52,239.56z"/>
   <path class="fil9" d="M4359.74 6366.86l0 874.67c0,42.37 -13.08,73.13 -34.21,88.24 -20.41,14.78 -48.26,15.01 -79.01,-2.76l-1616.15 -933c-62.43,-36.14 -113.11,-132.92 -113.11,-216.24l0 -874.65c0,-44.9 14.78,-76.72 38.07,-90.78 19.93,-12.24 46.22,-11.41 75.04,5.29l1616.15 933.12c62.56,36.03 113.22,132.79 113.22,216.11z"/>
   <path class="fil2" d="M4354.45 7284.02c-5.59,20.75 -15.71,36.32 -28.89,45.76 -20.5,14.78 -48.31,15.04 -79.06,-2.79l-1616.14 -932.97c-33.14,-19.15 -62.94,-55.36 -83.58,-97.69 -18.36,-37.39 -29.54,-79.44 -29.54,-118.59l0 -874.67c0,-44.86 14.78,-76.67 38.07,-90.78 14.37,-8.78 32.07,-10.64 51.63,-4.92 -3.46,12.37 -5.44,26.61 -5.44,42.46l0 874.67c0,42.46 13.18,88.52 34.47,128.18 20.36,38.06 48.18,70.41 78.65,88.1l1616.26 932.97c8.12,4.65 15.97,8.11 23.57,10.26z"/>
   <path class="fil6" d="M4354.45 7284.02c-5.59,20.75 -15.71,36.32 -28.89,45.76 -20.5,14.78 -48.31,15.04 -79.06,-2.79l-1616.14 -932.97c-33.14,-19.15 -62.94,-55.36 -83.58,-97.69l89.18 -43.64c20.36,38.06 48.18,70.41 78.65,88.1l1616.26 932.97c8.12,4.65 15.97,8.11 23.57,10.26z"/>
   <polygon class="fil2" points="4255.29,5726.16 2987.07,4996.13 3389.31,4765.15 4657.55,5495.19 "/>
   <polygon class="fil10" points="4246.02,5596.93 3079.08,4921.86 3411.24,4730.08 4578.2,5405.13 "/>
   <polygon class="fil11" points="4246.02,5679 4246.02,5596.93 4578.2,5405.13 4578.2,5487.2 "/>
   <polygon class="fil12" points="4246.02,5679 4246.02,5596.93 3079.08,4921.86 3079.08,5003.94 "/>
   <path class="fil13" d="M2860.13 5896.33c18.67,-10.64 27.97,-31.1 27.97,-61.38 0,-30.3 -9.31,-61.5 -27.97,-93.62 -18.69,-32.13 -41.24,-55.81 -67.6,-71.04 -26.4,-15.26 -48.91,-17.58 -67.61,-7.03 -18.68,10.56 -28,30.98 -28,61.26 0,30.31 9.32,61.54 28,93.75 18.7,32.22 41.21,55.94 67.61,71.17 26.36,15.24 48.91,17.56 67.6,6.89zm7.35 27.94c-21.19,8.86 -46.17,5.02 -74.94,-11.64 -32.03,-18.46 -59.28,-47.17 -81.82,-86.13 -22.56,-38.96 -33.83,-76.78 -33.83,-113.51 0,-36.6 11.28,-61.33 33.83,-74.24 22.54,-12.94 49.79,-10.17 81.82,8.33 31.86,18.39 59.09,47.06 81.68,86.06 21.76,37.53 33.1,73.96 33.92,109.21l1.28 0.75c-1.44,56.08 -13.33,95.64 -35.81,118.78 -22.46,23.09 -50.26,46.36 -83.39,69.76 -2,1.43 -3.9,2.85 -5.69,4.21l-26.1 -15.1c2.78,-2.37 5.75,-4.69 8.85,-6.96 36.92,-26.04 66.17,-50.44 87.81,-73.25 4.64,-4.75 8.75,-10.15 12.4,-16.28z"/>
   <path class="fil13" d="M2983.43 6110.33c3.72,6.35 5.58,12.48 5.58,18.46 0,6.11 -1.86,10.19 -5.58,12.26 -3.74,2.02 -8.21,1.53 -13.36,-1.48 -5.24,-3 -9.67,-7.64 -13.41,-14.02 -3.74,-6.31 -5.58,-12.54 -5.58,-18.65 0,-5.97 1.85,-9.96 5.58,-12.03 3.74,-2.03 8.17,-1.53 13.41,1.47 5.15,2.97 9.62,7.65 13.36,13.99zm0 -149.1c3.72,6.33 5.58,12.51 5.58,18.46 0,6.11 -1.86,10.2 -5.58,12.22 -3.74,2.07 -8.21,1.57 -13.36,-1.43 -5.24,-3.01 -9.67,-7.65 -13.41,-13.98 -3.74,-6.35 -5.58,-12.58 -5.58,-18.69 0,-5.94 1.85,-9.97 5.58,-12.03 3.74,-2.03 8.17,-1.56 13.41,1.44 5.15,3 9.62,7.67 13.36,14.02z"/>
   <path class="fil13" d="M3242.54 6039.55c0,-30.26 -9.32,-61.5 -28.01,-93.61 -18.68,-32.13 -41.19,-55.81 -67.6,-71.04 -26.4,-15.25 -48.9,-17.57 -67.59,-7.01 -18.67,10.54 -27.99,31 -27.99,61.29l0 128.06c0,30.29 9.32,61.48 27.99,93.63 18.69,32.11 41.19,55.79 67.59,71.03 26.41,15.26 48.92,17.58 67.6,7.03 18.69,-10.56 28.01,-30.99 28.01,-61.26l0 -128.1zm20.03 139.63c0,36.57 -11.27,61.33 -33.82,74.24 -22.54,12.94 -49.79,10.17 -81.82,-8.33 -31.86,-18.39 -59.11,-47.08 -81.69,-86.06 -22.61,-38.99 -33.9,-76.76 -33.9,-113.33l0 -128.07c0,-36.57 11.29,-61.31 33.9,-74.18 22.58,-12.92 49.83,-10.14 81.69,8.26 32.03,18.47 59.28,47.18 81.82,86.14 22.56,38.93 33.82,76.68 33.82,113.28l0 128.06z"/>
   <path class="fil13" d="M3505.76 6191.52c0,-30.28 -9.35,-61.49 -27.99,-93.61 -18.69,-32.11 -41.2,-55.81 -67.61,-71.03 -26.4,-15.28 -48.92,-17.6 -67.61,-7.03 -18.68,10.56 -27.98,31 -27.98,61.29l0 128.06c0,30.28 9.3,61.5 27.98,93.61 18.69,32.13 41.21,55.82 67.61,71.04 26.41,15.26 48.92,17.58 67.61,7.03 18.64,-10.57 27.99,-30.97 27.99,-61.28l0 -128.08zm20.04 139.63c0,36.59 -11.28,61.33 -33.82,74.24 -22.54,12.93 -49.83,10.17 -81.82,-8.33 -31.86,-18.39 -59.11,-47.07 -81.68,-86.07 -22.61,-38.98 -33.93,-76.74 -33.93,-113.3l0 -128.1c0,-36.57 11.32,-61.29 33.93,-74.17 22.57,-12.91 49.82,-10.13 81.68,8.26 31.99,18.46 59.28,47.18 81.82,86.13 22.54,38.96 33.82,76.73 33.82,113.29l0 128.06z"/>
   <path class="fil13" d="M3874.09 6488.29l-51.38 -191.85 -51.37 132.5 102.75 59.35zm6.98 25.78l-116.69 -67.39 -46.94 121.04 -20.24 -11.69 125.51 -323.1 125.31 467.91 -20.02 -11.57 -46.93 -175.19z"/>
   <polygon class="fil13" points="4011.81,6351.05 4138.36,6675.41 4264.72,6497.04 4286.41,6509.59 4285.57,6510.8 4285.57,6895.72 4266.61,6884.76 4266.61,6537.52 4138.36,6718.18 4009.91,6389.31 4009.91,6736.58 3990.97,6725.63 3990.97,6340.69 3990.11,6338.5 "/>
   <path class="fil14" d="M3665.68 6481.9c-0.94,6.31 -2.54,12.99 -2.6,19.37 -0.06,5.03 2.11,8.11 -1.98,12.39 -6.53,6.83 -17.61,2.44 -23.99,-2.26 2.49,16.25 5.32,33.31 15.57,46.14 14.12,17.67 40.83,24.41 62.56,25.33 25.01,1.06 49.4,-9.78 68.98,-25.37 19.57,-15.6 34.99,-35.72 49.67,-55.99 21.61,-29.8 42.29,-60.64 56.53,-94.58 14.24,-33.93 21.79,-71.42 16.24,-107.82 -2.41,-15.92 -7.32,-31.9 -4.94,-47.85 2.06,-13.78 9.4,-26.18 17.44,-37.56 13.03,-18.44 28.35,-35.36 39.12,-55.21 34.53,-63.56 1.11,-106.61 -49.12,-133.99 -36.86,-20.07 -82.79,-31.69 -117.58,-36.78 -3,-0.43 -6.27,-0.82 -8.97,0.58 -2.59,1.35 -4.13,4.04 -5.41,6.65 -10.17,20.86 -11.78,44.82 -19.42,66.74 -6.72,19.24 -18.17,36.82 -33.06,50.75 -9.01,8.43 -19.32,15.61 -26.96,25.29 -24.43,31 -4.25,67.35 -5.78,102.24 -3.53,81.07 -14.44,161.63 -26.3,241.92z"/>
   <path class="fil15" d="M3879.52 6007.09c-36.86,-20.09 -82.79,-31.71 -117.58,-36.76 -3.02,-0.46 -6.26,-0.85 -8.97,0.57 -2.58,1.33 -4.13,4.03 -5.4,6.64 -10.17,20.86 -11.78,44.82 -19.42,66.74 -6.72,19.25 -18.17,36.82 -33.06,50.75 -9,8.44 -19.32,15.61 -26.94,25.29 -24.44,31 -4.26,67.35 -5.79,102.24 -3.53,81.08 -14.43,161.63 -26.32,241.92 -2.36,15.98 -4.76,32.19 -2.82,48.24 3.68,30.42 19.82,51.36 52.38,52.74 25.01,1.06 49.41,-9.78 68.98,-25.37 19.58,-15.59 35,-35.72 49.68,-55.99 21.61,-29.81 42.29,-60.63 56.53,-94.57 14.22,-33.94 21.78,-71.43 16.25,-107.82 -2.43,-15.93 -7.33,-31.92 -4.96,-47.86 2.06,-13.78 9.4,-26.18 17.44,-37.56 13.03,-18.43 28.35,-35.36 39.13,-55.19 34.53,-63.57 1.12,-106.63 -49.13,-133.98z"/>
   <path class="fil16" d="M3818.05 6098.01c-14.06,26.76 -33.46,50.18 -45.5,77.28 -6.69,15.4 -11.06,31.46 -16.74,46.85 -12.39,34.79 -30.44,67.25 -48.52,99.71 -2.01,3.02 -4.01,6.71 -7.36,8.37 -5.35,2.67 -11.71,0 -15.39,-4.68 -3.68,-4.36 -5.03,-10.37 -6.02,-16.06 -12.39,-63.91 -1.35,-128.83 -16.4,-192.07 -21.75,-92.35 -91.01,-165.63 -162.29,-228.86 -69.25,-61.57 -140.18,-119.46 -205.1,-186.04 -36.47,-37.12 -72.94,-73.94 -99.36,-118.44 -22.1,-36.81 -31.81,-80.97 -31.46,-124.8 0.32,-23.09 3.02,-46.19 8.7,-68.26 1.35,-5.36 2.67,-10.7 4.35,-16.07 11.71,-37.81 57.21,-72.6 86.67,-97.36 14.04,-12.06 29.1,-23.08 45.17,-32.46 7.7,-4.68 16.06,-8.7 24.42,-12.04 32.81,-13.37 88.67,-19.07 93.68,27.43 3.36,31.46 -8.35,61.91 -17.39,92.68 -1,4.03 -2,7.71 -3,11.72 -11.04,44.83 -9.72,93.35 4.33,137.18 7.71,24.41 19.42,47.85 34.81,68.58 53.19,70.28 145.21,105.4 191.39,180.69 25.43,41.82 34.13,92.68 60.57,133.83 16.72,26.43 30.11,51.86 55.86,70.93 23.1,17.07 56.54,28.44 72.63,53.2 17.06,26.11 5.68,63.58 -8.04,88.68z"/>
   <path class="fil17" d="M3420.55 5451.57c1.02,17.07 -4.02,34.12 -9.71,50.53 -1.67,5.35 -3.67,11.04 -5.35,16.39 -8.36,25.78 -17.74,51.53 -27.78,76.63 -5.35,12.72 -10.69,25.76 -16.39,38.47 -2.68,6.03 -17.07,27.78 -15.72,33.47 -15.06,-55.21 -35.47,-109.08 -64.92,-158.26 -16.06,-26.78 -34.79,-51.86 -56.54,-74.29 -15.72,-16.06 -32.79,-30.76 -51.53,-43.49 1.35,-5.36 2.67,-10.7 4.35,-16.07 11.71,-37.81 57.21,-72.6 86.67,-97.36 14.04,-12.06 29.1,-23.08 45.17,-32.46 6.36,1.68 12.72,4.01 18.74,7.03 20.42,9.71 37.81,25.43 51.53,43.48 13.39,17.4 23.75,36.82 30.44,57.56 2.02,5.36 3.68,10.71 5.03,16.41 6.35,27.43 4.68,54.21 6.02,81.97z"/>
   <path class="fil14" d="M3309.34 6380.12c-23.31,17.48 -46.89,34.68 -68.9,53.79 -10.91,9.48 -21.43,19.44 -31.21,30.09 -3.32,3.61 -7.81,11.72 -12.2,13.76 -4.78,2.2 -8.64,-1.4 -8.19,-6.57l-0.39 -1.46 -1.62 0.56c-10.97,10.89 -17.56,26.01 -18.31,41.43 -0.69,14.06 0.44,31.46 6.4,44.42 15.99,34.79 57.5,39.68 90.85,44.62 56.1,8.32 115.43,0.32 165.5,-26.12 33.65,-17.75 65.74,-38.76 94.07,-64.17 23.79,-21.33 45.19,-45.93 72.79,-62.07 24.7,-14.43 53.86,-21.76 74.97,-41.06 36.85,-33.67 53.47,-85.59 37.33,-133.93 -7.5,-22.43 -21.21,-42.24 -35.83,-60.8 -0.15,3.3 -0.64,6.78 -2.67,9.41 -4.2,5.43 -6.81,1.88 -10.63,-0.36 -5.15,-3.02 -11.33,-4.57 -17.29,-4.25 -33.85,1.72 -64.97,-12.8 -99.86,-7.19 -36.26,5.85 -60.75,26.4 -87,50.22 -28.82,26.14 -59.28,50.63 -89.75,74.82 -19.15,15.22 -38.5,30.17 -58.07,44.85z"/>
   <path class="fil15" d="M3309.34 6346.66c-45.42,34.08 -92.92,67.74 -124.68,114.81 -12.5,18.54 -19.61,39.74 -9.74,61.22 15.99,34.79 57.5,39.68 90.85,44.63 56.1,8.32 115.43,0.31 165.5,-26.11 33.65,-17.76 65.74,-38.78 94.07,-64.18 23.79,-21.33 45.19,-45.94 72.79,-62.07 24.7,-14.43 53.86,-21.75 74.97,-41.06 21.39,-19.54 32.49,-54.4 34.19,-82.87 1.88,-30.89 -7.44,-62.71 -27.23,-86.72 -9.11,-11.06 -21.74,-21.07 -36.04,-20.35 -33.85,1.72 -64.97,-12.79 -99.86,-7.17 -36.26,5.83 -60.75,26.4 -87,50.21 -28.82,26.14 -59.28,50.63 -89.75,74.82 -19.15,15.21 -38.5,30.17 -58.07,44.85z"/>
   <path class="fil18" d="M3671.83 6042.79c-5.02,37.82 -5.02,72.63 -1.67,110.43 3.02,37.47 9.36,68.92 -2.68,106.06 -3,8.38 -6.69,16.74 -11.71,24.43 -9.37,13.39 -23.08,23.08 -37.14,31.79 -40.48,25.42 -84.32,45.5 -129.83,59.56 -31.11,9.69 -63.57,16.72 -96.03,13.72 -19.07,-1.68 -40.8,-10.04 -45.17,-28.44 -2,-9.71 1.35,-19.74 7.03,-28.11 5.7,-8.03 13.39,-14.39 20.74,-20.74 42.83,-36.8 82.67,-80.65 104.07,-133.5 24.09,-59.57 3.35,-115.44 -21.75,-171.67 -26.43,-59.21 -52.86,-118.44 -79.3,-177.67 -30.43,-68.25 -61.22,-137.83 -68.59,-212.46 -4.35,-46.51 1.68,-96.36 22.1,-139.19 4.02,-8.69 8.35,-16.72 13.71,-24.75 24.75,-38.15 65.92,-84.32 113.1,-43.18 20.07,17.75 30.78,43.5 46.85,64.91 29.43,39.49 89.67,75.96 139.18,51.2l2.01 -1 -1.35 2.33c-27.44,39.49 -39.48,104.41 -23.42,149.57 6.7,18.75 19.41,34.81 29.78,52.19 10.71,17.41 18.75,36.47 24.43,55.88 8.7,30.46 11.38,62.25 8.03,94.03 -5.68,54.54 -5.36,109.74 -12.39,164.61z"/>
   <path class="fil16" d="M3676.19 5784.15c-40.15,-51.53 -81.64,-101.71 -125.14,-149.89 -54.21,-60.24 -113.43,-119.13 -188.39,-148.57 -10.03,-3.68 -20.4,-7.03 -30.76,-8.69 4.02,-8.69 8.35,-16.72 13.71,-24.75 24.75,-38.15 65.92,-84.32 113.1,-43.18 20.07,17.75 30.78,43.5 46.85,64.91 29.43,39.49 89.67,75.96 139.18,51.2l0.67 1.33c-27.44,39.49 -39.48,104.41 -23.42,149.57 6.7,18.75 19.41,34.81 29.78,52.19 10.71,17.41 18.75,36.47 24.43,55.88z"/>
   <path class="fil2" d="M3977.31 4716.26c-53.69,-12.96 -105.42,-32.57 -157.98,-49.37 -22.25,-7.13 -44.24,-15.88 -67.3,-20.11 -24.62,-4.54 -32.36,-1.78 -42.32,-28.29 -10.42,66.04 -20.35,132.2 -31.24,198.17 -8.15,49.3 -30.67,95.17 -69.8,126.92 -128.32,104.08 -249.64,219.24 -365.13,337.11 -16.08,16.43 -32.22,33.11 -45.17,52.21 -3.32,4.92 -17.86,23.57 -15.5,29.56 6.72,17.08 46.61,-0.6 55.48,-5.89 26.4,-15.72 53.03,-31.61 75.35,-52.71 -19,23.13 -35.09,48.64 -47.8,75.72 -10.56,22.48 62.03,40.54 74.67,46.11 32.07,14.13 63.1,30.68 92.72,49.43 59.25,37.5 112.96,83.79 158.57,137.06 9.58,11.2 18.81,22.68 27.64,34.46 4.71,6.28 9.42,12.75 15.75,17.37 6.33,4.63 14.72,7.19 22.17,4.69 16.08,-5.44 22.25,-25.65 32.47,-37.67 41.4,-48.67 112.68,-73.13 171.7,-93.22 75.76,-25.81 153.25,-46.6 226.48,-78.77 70.89,-31.12 142.89,-83.53 196.26,-139.22 53.42,-55.76 91.75,-130.39 95.43,-209.1 3.06,-64.98 -13.3,-129.26 -40.08,-188.12 -26.82,-58.96 -68.29,-108.07 -97.86,-165.2 -20.91,-40.43 -35.21,-83.87 -49.42,-127.11 -5.35,43.44 -43.35,77.64 -85.38,89.9 -42,12.26 -87.17,6.33 -129.72,-3.93z"/>
   <path class="fil19" d="M3861.48 5292.59l-0.17 12.44c-1,8.44 -7.64,17.21 -19.67,24.18l-322.86 185.78c-5.64,3.26 -11.93,5.85 -18.67,7.64 -18.79,5.4 -40.15,5.06 -55.89,-1.24 -2.26,-0.89 -4.52,-1.9 -6.53,-3.03l-526.06 -303.85c-9.44,-5.4 -14.06,-12.71 -14.06,-20.24l-0.13 0 0.35 -20.24 10.68 7.87c2.58,-2.25 5.51,-4.29 8.89,-6.3l322.85 -185.76c24.06,-13.83 60.39,-15.42 81.19,-3.38l350.2 202.18 175.86 101.56 1.02 0.68 12.98 1.7z"/>
   <path class="fil20" d="M3861.54 5287.07l-0.22 17.97c-1,8.44 -7.64,17.21 -19.67,24.18l-322.86 185.78c-5.64,3.26 -11.93,5.85 -18.67,7.64l0 -333.97 171.5 0 175.86 101.56 1.02 0.68 13.04 -3.83z"/>
   <polygon class="fil21" points="3601.83,5466.59 3575.98,5481.57 3575.98,5466.26 3601.83,5451.29 "/>
   <polygon class="fil22" points="3598.93,5465.02 3598.93,5452.97 3601.83,5451.29 3601.83,5466.59 3575.98,5481.57 3575.98,5478.3 "/>
   <polygon class="fil19" points="3598.93,5465.02 3601.83,5466.59 3601.83,5451.29 3598.93,5452.97 "/>
   <polygon class="fil23" points="3598.93,5465.02 3589.07,5460.81 3575.98,5468.45 3575.98,5478.3 "/>
   <polygon class="fil24" points="3589.07,5460.81 3589.04,5458.69 3598.93,5452.97 3598.93,5465.02 "/>
   <path class="fil25" d="M3444.23 5467.29l0 54.11c15.71,6.33 37.08,6.6 55.93,1.24l0 -55.35 -55.93 0z"/>
   <path class="fil13" d="M2911.61 5197.76l526.1 303.76c20.8,12 57.11,10.5 81.13,-3.39l232.69 -133.93 90.17 -51.89c7.96,-4.63 13.56,-9.97 16.75,-15.58 6.39,-11.22 2.94,-23.21 -10.94,-31.22l-526.1 -303.79c-20.8,-11.98 -57.13,-10.48 -81.11,3.41l-322.87 185.76c-1.44,0.83 -2.81,1.69 -4.11,2.59 -20.14,13.75 -21.25,32.99 -1.69,44.28z"/>
   <polygon class="fil26" points="3516.72,5274.66 3290.3,5143.94 3430.89,5062.76 3657.3,5193.5 "/>
   <polygon class="fil20" points="3430.89,5070.5 3650.61,5197.36 3657.3,5193.5 3430.89,5062.76 3290.3,5143.94 3297,5147.8 "/>
   <polygon class="fil27" points="3430.89,5070.5 3430.89,5062.76 3290.3,5143.94 3297,5147.8 "/>
   <polygon class="fil25" points="3483.19,5452.7 3456.09,5468.24 3483.31,5483.91 3485.5,5488.27 3491.89,5488.86 3518.97,5473.29 "/>
   <polygon class="fil28" points="3485.5,5483.91 3449.72,5463.33 3476.8,5447.77 3512.59,5468.36 "/>
   <polygon class="fil13" points="3485.5,5481.95 3451.41,5462.34 3449.72,5463.33 3485.5,5483.91 3512.59,5468.36 3510.9,5467.39 "/>
   <polygon class="fil29" points="3512.59,5468.36 3512.59,5472.7 3485.5,5488.27 3485.5,5483.91 "/>
   <polygon class="fil30" points="3449.72,5463.33 3449.72,5467.68 3485.5,5488.27 3485.5,5483.91 "/>
   <polygon class="fil25" points="3435.72,5425.05 3408.63,5440.61 3435.84,5456.26 3438.04,5460.61 3444.43,5461.19 3471.51,5445.63 "/>
   <polygon class="fil28" points="3438.04,5456.26 3402.24,5435.66 3429.34,5420.11 3465.12,5440.72 "/>
   <polygon class="fil13" points="3438.04,5454.3 3403.94,5434.7 3402.24,5435.66 3438.04,5456.26 3465.12,5440.72 3463.43,5439.73 "/>
   <polygon class="fil29" points="3465.12,5440.72 3465.12,5445.07 3438.04,5460.61 3438.04,5456.26 "/>
   <polygon class="fil30" points="3402.24,5435.66 3402.24,5440.02 3438.04,5460.61 3438.04,5456.26 "/>
   <polygon class="fil25" points="3388.26,5397.41 3361.18,5412.95 3388.39,5428.61 3390.58,5432.97 3396.95,5433.54 3424.04,5418 "/>
   <polygon class="fil28" points="3390.58,5428.61 3354.79,5408.01 3381.87,5392.47 3417.66,5413.07 "/>
   <polygon class="fil13" points="3390.58,5426.66 3356.48,5407.05 3354.79,5408.01 3390.58,5428.61 3417.66,5413.07 3415.97,5412.08 "/>
   <polygon class="fil29" points="3417.66,5413.07 3417.66,5417.41 3390.58,5432.97 3390.58,5428.61 "/>
   <polygon class="fil30" points="3354.79,5408.01 3354.79,5412.37 3390.58,5432.97 3390.58,5428.61 "/>
   <polygon class="fil25" points="3099.07,5227.26 3071.98,5242.81 3099.2,5258.47 3101.39,5262.81 3107.77,5263.4 3134.86,5247.84 "/>
   <polygon class="fil28" points="3101.39,5258.47 3065.61,5237.87 3092.69,5222.31 3128.47,5242.93 "/>
   <polygon class="fil13" points="3101.39,5256.51 3067.3,5236.9 3065.61,5237.87 3101.39,5258.47 3128.47,5242.93 3126.79,5241.94 "/>
   <polygon class="fil29" points="3128.47,5242.93 3128.47,5247.27 3101.39,5262.81 3101.39,5258.47 "/>
   <polygon class="fil30" points="3065.61,5237.87 3065.61,5242.23 3101.39,5262.81 3101.39,5258.47 "/>
   <polygon class="fil25" points="3051.61,5199.61 3024.52,5215.16 3051.73,5230.8 3053.93,5235.18 3060.3,5235.74 3087.4,5220.2 "/>
   <polygon class="fil28" points="3053.93,5230.8 3018.13,5210.22 3045.23,5194.68 3081.01,5215.26 "/>
   <polygon class="fil13" points="3053.93,5228.87 3019.83,5209.26 3018.13,5210.22 3053.93,5230.8 3081.01,5215.26 3079.31,5214.29 "/>
   <polygon class="fil29" points="3081.01,5215.26 3081.01,5219.62 3053.93,5235.18 3053.93,5230.8 "/>
   <polygon class="fil30" points="3018.13,5210.22 3018.13,5214.58 3053.93,5235.18 3053.93,5230.8 "/>
   <polygon class="fil25" points="2980.52,5158.45 2953.43,5174.02 3004.27,5203.16 3006.47,5207.52 3012.84,5208.11 3039.93,5192.55 "/>
   <polygon class="fil28" points="3006.47,5203.16 2947.05,5169.08 2974.13,5153.54 3033.55,5187.61 "/>
   <polygon class="fil13" points="3006.47,5201.22 2948.74,5168.11 2947.05,5169.08 3006.47,5203.16 3033.55,5187.61 3031.86,5186.65 "/>
   <polygon class="fil29" points="3033.55,5187.61 3033.55,5191.97 3006.47,5207.52 3006.47,5203.16 "/>
   <polygon class="fil30" points="2947.05,5169.08 2947.05,5173.44 3006.47,5207.52 3006.47,5203.16 "/>
   <polygon class="fil25" points="3319.19,5357.22 3292.09,5372.76 3340.91,5400.95 3343.11,5405.31 3349.5,5405.9 3376.58,5390.34 "/>
   <polygon class="fil28" points="3343.11,5400.95 3285.72,5367.83 3312.81,5352.29 3370.19,5385.4 "/>
   <polygon class="fil13" points="3343.11,5399.01 3287.41,5366.86 3285.72,5367.83 3343.11,5400.95 3370.19,5385.4 3368.51,5384.44 "/>
   <polygon class="fil29" points="3370.19,5385.4 3370.19,5389.76 3343.11,5405.31 3343.11,5400.95 "/>
   <polygon class="fil30" points="3285.72,5367.83 3285.72,5372.18 3343.11,5405.31 3343.11,5400.95 "/>
   <polygon class="fil25" points="3259.72,5273.04 3232.63,5288.61 3259.84,5304.26 3262.04,5308.61 3268.41,5309.19 3295.51,5293.63 "/>
   <polygon class="fil28" points="3262.04,5304.26 3226.24,5283.66 3253.33,5268.11 3289.13,5288.69 "/>
   <polygon class="fil13" points="3262.04,5302.3 3227.94,5282.69 3226.24,5283.66 3262.04,5304.26 3289.13,5288.69 3287.43,5287.72 "/>
   <polygon class="fil29" points="3289.13,5288.69 3289.13,5293.05 3262.04,5308.61 3262.04,5304.26 "/>
   <polygon class="fil30" points="3226.24,5283.66 3226.24,5288.02 3262.04,5308.61 3262.04,5304.26 "/>
   <polygon class="fil25" points="3449.65,5383.26 3422.57,5398.8 3449.77,5414.45 3451.97,5418.81 3458.34,5419.4 3485.43,5403.84 "/>
   <polygon class="fil28" points="3451.97,5414.45 3416.18,5393.87 3443.26,5378.33 3479.05,5398.91 "/>
   <polygon class="fil13" points="3451.97,5412.51 3417.87,5392.9 3416.18,5393.87 3451.97,5414.45 3479.05,5398.91 3477.36,5397.94 "/>
   <polygon class="fil29" points="3479.05,5398.91 3479.05,5403.26 3451.97,5418.81 3451.97,5414.45 "/>
   <polygon class="fil30" points="3416.18,5393.87 3416.18,5398.22 3451.97,5418.81 3451.97,5414.45 "/>
   <polygon class="fil25" points="3402.18,5355.61 3375.09,5371.16 3402.3,5386.81 3404.5,5391.16 3410.89,5391.74 3437.97,5376.19 "/>
   <polygon class="fil28" points="3404.5,5386.81 3368.72,5366.22 3395.8,5350.66 3431.59,5371.26 "/>
   <polygon class="fil13" points="3404.5,5384.86 3370.41,5365.24 3368.72,5366.22 3404.5,5386.81 3431.59,5371.26 3429.9,5370.29 "/>
   <polygon class="fil29" points="3431.59,5371.26 3431.59,5375.61 3404.5,5391.16 3404.5,5386.81 "/>
   <polygon class="fil30" points="3368.72,5366.22 3368.72,5370.58 3404.5,5391.16 3404.5,5386.81 "/>
   <polygon class="fil25" points="3354.72,5327.95 3327.63,5343.51 3354.84,5359.16 3357.04,5363.51 3363.41,5364.09 3390.51,5348.54 "/>
   <polygon class="fil28" points="3357.04,5359.16 3321.24,5338.57 3348.33,5323.02 3384.12,5343.62 "/>
   <polygon class="fil13" points="3357.04,5357.22 3322.94,5337.61 3321.24,5338.57 3357.04,5359.16 3384.12,5343.62 3382.43,5342.63 "/>
   <polygon class="fil29" points="3384.12,5343.62 3384.12,5347.97 3357.04,5363.51 3357.04,5359.16 "/>
   <polygon class="fil30" points="3321.24,5338.57 3321.24,5342.93 3357.04,5363.51 3357.04,5359.16 "/>
   <polygon class="fil25" points="3307.18,5300.7 3280.09,5316.24 3307.3,5331.9 3309.5,5336.24 3315.89,5336.83 3342.97,5321.29 "/>
   <polygon class="fil28" points="3309.5,5331.9 3273.72,5311.3 3300.8,5295.76 3336.59,5316.36 "/>
   <polygon class="fil13" points="3309.5,5329.95 3275.4,5310.34 3273.72,5311.3 3309.5,5331.9 3336.59,5316.36 3334.89,5315.37 "/>
   <polygon class="fil29" points="3336.59,5316.36 3336.59,5320.7 3309.5,5336.24 3309.5,5331.9 "/>
   <polygon class="fil30" points="3273.72,5311.3 3273.72,5315.66 3309.5,5336.24 3309.5,5331.9 "/>
   <polygon class="fil25" points="3212.24,5245.39 3185.16,5260.94 3212.37,5276.59 3214.57,5280.95 3220.95,5281.54 3248.05,5265.98 "/>
   <polygon class="fil28" points="3214.57,5276.59 3178.79,5256.01 3205.87,5240.47 3241.68,5261.05 "/>
   <polygon class="fil13" points="3214.57,5274.66 3180.48,5255.04 3178.79,5256.01 3214.57,5276.59 3241.68,5261.05 3239.97,5260.08 "/>
   <polygon class="fil29" points="3241.68,5261.05 3241.68,5265.41 3214.57,5280.95 3214.57,5276.59 "/>
   <polygon class="fil30" points="3178.79,5256.01 3178.79,5260.36 3214.57,5280.95 3214.57,5276.59 "/>
   <polygon class="fil25" points="3161.63,5217.37 3134.55,5232.93 3161.76,5248.58 3163.95,5252.93 3170.34,5253.51 3197.43,5237.95 "/>
   <polygon class="fil28" points="3163.95,5248.58 3128.18,5227.98 3155.26,5212.43 3191.05,5233.04 "/>
   <polygon class="fil13" points="3163.95,5246.63 3129.87,5227.01 3128.18,5227.98 3163.95,5248.58 3191.05,5233.04 3189.36,5232.05 "/>
   <polygon class="fil29" points="3191.05,5233.04 3191.05,5237.39 3163.95,5252.93 3163.95,5248.58 "/>
   <polygon class="fil30" points="3128.18,5227.98 3128.18,5232.34 3163.95,5252.93 3163.95,5248.58 "/>
   <polygon class="fil25" points="3114.18,5189.72 3087.09,5205.27 3114.3,5220.94 3116.5,5225.27 3122.87,5225.86 3149.95,5210.31 "/>
   <polygon class="fil28" points="3116.5,5220.94 3080.7,5200.33 3107.79,5184.79 3143.58,5205.37 "/>
   <polygon class="fil13" points="3116.5,5218.98 3082.4,5199.37 3080.7,5200.33 3116.5,5220.94 3143.58,5205.37 3141.89,5204.4 "/>
   <polygon class="fil29" points="3143.58,5205.37 3143.58,5209.73 3116.5,5225.27 3116.5,5220.94 "/>
   <polygon class="fil30" points="3080.7,5200.33 3080.7,5204.69 3116.5,5225.27 3116.5,5220.94 "/>
   <polygon class="fil25" points="3067.87,5162.57 3040.79,5178.12 3068,5193.77 3070.19,5198.12 3076.57,5198.72 3103.66,5183.16 "/>
   <polygon class="fil28" points="3070.19,5193.77 3034.4,5173.19 3061.48,5157.63 3097.27,5178.22 "/>
   <polygon class="fil13" points="3070.19,5191.83 3036.09,5172.22 3034.4,5173.19 3070.19,5193.77 3097.27,5178.22 3095.58,5177.24 "/>
   <polygon class="fil29" points="3097.27,5178.22 3097.27,5182.58 3070.19,5198.13 3070.19,5193.77 "/>
   <polygon class="fil30" points="3034.4,5173.19 3034.4,5177.54 3070.19,5198.13 3070.19,5193.77 "/>
   <polygon class="fil25" points="3022.13,5134.63 2995.05,5150.18 3022.26,5165.83 3024.45,5170.18 3030.84,5170.76 3057.93,5155.22 "/>
   <polygon class="fil28" points="3024.45,5165.83 2988.66,5145.23 3015.76,5129.69 3051.54,5150.29 "/>
   <polygon class="fil13" points="3024.45,5163.89 2990.36,5144.27 2988.66,5145.23 3024.45,5165.83 3051.54,5150.29 3049.84,5149.3 "/>
   <polygon class="fil29" points="3051.54,5150.29 3051.54,5154.63 3024.45,5170.18 3024.45,5165.83 "/>
   <polygon class="fil30" points="2988.66,5145.23 2988.66,5149.59 3024.45,5170.18 3024.45,5165.83 "/>
   <polygon class="fil25" points="3502.9,5413.66 3475.8,5429.22 3524.63,5457.41 3526.81,5461.76 3533.2,5462.34 3560.29,5446.79 "/>
   <polygon class="fil28" points="3526.81,5457.41 3469.43,5424.27 3496.51,5408.73 3553.91,5441.86 "/>
   <polygon class="fil13" points="3526.81,5455.47 3471.12,5423.31 3469.43,5424.27 3526.81,5457.41 3553.91,5441.86 3552.22,5440.89 "/>
   <polygon class="fil29" points="3553.91,5441.86 3553.91,5446.2 3526.81,5461.76 3526.81,5457.41 "/>
   <polygon class="fil30" points="3469.43,5424.27 3469.43,5428.63 3526.81,5461.76 3526.81,5457.41 "/>
   <polygon class="fil25" points="3299.65,5248.04 3272.58,5263.58 3299.79,5279.23 3301.98,5283.58 3308.36,5284.16 3335.44,5268.62 "/>
   <polygon class="fil28" points="3301.98,5279.23 3266.19,5258.63 3293.27,5243.09 3329.08,5263.69 "/>
   <polygon class="fil13" points="3301.98,5277.29 3267.89,5257.68 3266.19,5258.63 3301.98,5279.23 3329.08,5263.69 3327.37,5262.7 "/>
   <polygon class="fil29" points="3329.08,5263.69 3329.08,5268.04 3301.98,5283.58 3301.98,5279.23 "/>
   <polygon class="fil30" points="3266.19,5258.63 3266.19,5263 3301.98,5283.58 3301.98,5279.23 "/>
   <polygon class="fil25" points="3486.68,5357.22 3459.59,5372.76 3486.81,5388.41 3489,5392.77 3495.39,5393.36 3522.47,5377.8 "/>
   <polygon class="fil28" points="3489,5388.41 3453.22,5367.83 3480.3,5352.29 3516.09,5372.87 "/>
   <polygon class="fil13" points="3489,5386.47 3454.91,5366.86 3453.22,5367.83 3489,5388.41 3516.09,5372.87 3514.4,5371.9 "/>
   <polygon class="fil29" points="3516.09,5372.87 3516.09,5377.22 3489,5392.77 3489,5388.41 "/>
   <polygon class="fil30" points="3453.22,5367.83 3453.22,5372.18 3489,5392.77 3489,5388.41 "/>
   <polygon class="fil25" points="3531.62,5383.3 3504.52,5398.86 3531.73,5414.51 3533.94,5418.87 3540.3,5419.44 3567.41,5403.9 "/>
   <polygon class="fil28" points="3533.94,5414.51 3498.13,5393.93 3525.23,5378.37 3561.02,5398.97 "/>
   <polygon class="fil13" points="3533.94,5412.57 3499.83,5392.94 3498.13,5393.93 3533.94,5414.51 3561.02,5398.97 3559.33,5398 "/>
   <polygon class="fil29" points="3561.02,5398.97 3561.02,5403.31 3533.94,5418.87 3533.94,5414.51 "/>
   <polygon class="fil30" points="3498.13,5393.93 3498.13,5398.27 3533.94,5418.87 3533.94,5414.51 "/>
   <polygon class="fil25" points="3440.87,5330.63 3413.79,5346.19 3441,5361.84 3443.19,5366.2 3449.57,5366.79 3476.66,5351.22 "/>
   <polygon class="fil28" points="3443.19,5361.84 3407.4,5341.26 3434.48,5325.7 3470.27,5346.3 "/>
   <polygon class="fil13" points="3443.19,5359.9 3409.09,5340.29 3407.4,5341.26 3443.19,5361.84 3470.27,5346.3 3468.58,5345.33 "/>
   <polygon class="fil29" points="3470.27,5346.3 3470.27,5350.65 3443.19,5366.2 3443.19,5361.84 "/>
   <polygon class="fil30" points="3407.4,5341.26 3407.4,5345.61 3443.19,5366.2 3443.19,5361.84 "/>
   <polygon class="fil25" points="3394.66,5302.94 3367.58,5318.5 3394.79,5334.15 3396.98,5338.5 3403.36,5339.08 3430.44,5323.52 "/>
   <polygon class="fil28" points="3396.98,5334.15 3361.19,5313.55 3388.27,5298 3424.07,5318.59 "/>
   <polygon class="fil13" points="3396.98,5332.19 3362.89,5312.58 3361.19,5313.55 3396.98,5334.15 3424.07,5318.59 3422.37,5317.62 "/>
   <polygon class="fil29" points="3424.07,5318.59 3424.07,5322.94 3396.98,5338.5 3396.98,5334.15 "/>
   <polygon class="fil30" points="3361.19,5313.55 3361.19,5317.91 3396.98,5338.5 3396.98,5334.15 "/>
   <polygon class="fil25" points="3347.12,5275.68 3320.04,5291.23 3347.24,5306.89 3349.44,5311.23 3355.81,5311.81 3382.91,5296.26 "/>
   <polygon class="fil28" points="3349.44,5306.89 3313.65,5286.3 3340.73,5270.73 3376.52,5291.33 "/>
   <polygon class="fil13" points="3349.44,5304.93 3315.34,5285.31 3313.65,5286.3 3349.44,5306.89 3376.52,5291.33 3374.83,5290.37 "/>
   <polygon class="fil29" points="3376.52,5291.33 3376.52,5295.68 3349.44,5311.23 3349.44,5306.89 "/>
   <polygon class="fil30" points="3313.65,5286.3 3313.65,5290.65 3349.44,5311.23 3349.44,5306.89 "/>
   <polygon class="fil25" points="3252.19,5220.37 3225.11,5235.94 3252.31,5251.59 3254.51,5255.94 3260.9,5256.52 3287.98,5240.97 "/>
   <polygon class="fil28" points="3254.51,5251.59 3218.72,5231 3245.81,5215.44 3281.62,5236.02 "/>
   <polygon class="fil13" points="3254.51,5249.63 3220.43,5230.02 3218.72,5231 3254.51,5251.59 3281.62,5236.02 3279.9,5235.07 "/>
   <polygon class="fil29" points="3281.62,5236.02 3281.62,5240.39 3254.51,5255.94 3254.51,5251.59 "/>
   <polygon class="fil30" points="3218.72,5231 3218.72,5235.36 3254.51,5255.94 3254.51,5251.59 "/>
   <polygon class="fil25" points="3201.58,5192.36 3174.5,5207.9 3201.7,5223.57 3203.9,5227.91 3210.29,5228.5 3237.37,5212.94 "/>
   <polygon class="fil28" points="3203.9,5223.57 3168.11,5202.98 3195.2,5187.41 3230.98,5208.01 "/>
   <polygon class="fil13" points="3203.9,5221.61 3169.8,5202 3168.11,5202.97 3203.9,5223.57 3230.98,5208.01 3229.29,5207.04 "/>
   <polygon class="fil29" points="3230.98,5208.01 3230.98,5212.36 3203.9,5227.91 3203.9,5223.57 "/>
   <polygon class="fil30" points="3168.11,5202.98 3168.11,5207.33 3203.9,5227.91 3203.9,5223.57 "/>
   <polygon class="fil25" points="3154.12,5164.7 3127.04,5180.26 3154.24,5195.91 3156.44,5200.26 3162.81,5200.84 3189.9,5185.29 "/>
   <polygon class="fil28" points="3156.44,5195.91 3120.65,5175.31 3147.73,5159.76 3183.52,5180.37 "/>
   <polygon class="fil13" points="3156.44,5193.97 3122.34,5174.34 3120.65,5175.31 3156.44,5195.91 3183.52,5180.37 3181.83,5179.39 "/>
   <polygon class="fil29" points="3183.52,5180.37 3183.52,5184.72 3156.44,5200.26 3156.44,5195.91 "/>
   <polygon class="fil30" points="3120.65,5175.31 3120.65,5179.68 3156.44,5200.26 3156.44,5195.91 "/>
   <polygon class="fil25" points="3107.81,5137.55 3080.73,5153.11 3107.94,5168.76 3110.13,5173.11 3116.51,5173.69 3143.59,5158.13 "/>
   <polygon class="fil28" points="3110.13,5168.76 3074.34,5148.16 3101.43,5132.62 3137.22,5153.22 "/>
   <polygon class="fil13" points="3110.13,5166.81 3076.04,5147.19 3074.34,5148.16 3110.13,5168.76 3137.22,5153.22 3135.52,5152.23 "/>
   <polygon class="fil29" points="3137.22,5153.22 3137.22,5157.57 3110.13,5173.11 3110.13,5168.76 "/>
   <polygon class="fil30" points="3074.34,5148.16 3074.34,5152.52 3110.13,5173.11 3110.13,5168.76 "/>
   <polygon class="fil25" points="3062.08,5109.61 3035,5125.16 3062.2,5140.81 3064.4,5145.16 3070.77,5145.74 3097.87,5130.19 "/>
   <polygon class="fil28" points="3064.4,5140.81 3028.61,5120.23 3055.69,5104.68 3091.48,5125.27 "/>
   <polygon class="fil13" points="3064.4,5138.87 3030.3,5119.24 3028.61,5120.23 3064.4,5140.81 3091.48,5125.27 3089.79,5124.3 "/>
   <polygon class="fil29" points="3091.48,5125.27 3091.48,5129.62 3064.4,5145.16 3064.4,5140.81 "/>
   <polygon class="fil30" points="3028.61,5120.23 3028.61,5124.58 3064.4,5145.16 3064.4,5140.81 "/>
   <polygon class="fil25" points="3523.02,5332.94 3495.94,5348.5 3523.15,5364.15 3525.34,5368.51 3531.72,5369.09 3558.81,5353.54 "/>
   <polygon class="fil28" points="3525.34,5364.15 3489.55,5343.57 3516.63,5328.01 3552.44,5348.61 "/>
   <polygon class="fil13" points="3525.34,5362.2 3491.24,5342.58 3489.55,5343.57 3525.34,5364.15 3552.44,5348.61 3550.73,5347.63 "/>
   <polygon class="fil29" points="3552.44,5348.61 3552.44,5352.95 3525.34,5368.51 3525.34,5364.15 "/>
   <polygon class="fil30" points="3489.55,5343.57 3489.55,5347.91 3525.34,5368.51 3525.34,5364.15 "/>
   <polygon class="fil25" points="3567.95,5359.04 3540.87,5374.59 3568.08,5390.24 3570.27,5394.59 3576.66,5395.18 3603.74,5379.62 "/>
   <polygon class="fil28" points="3570.27,5390.24 3534.48,5369.66 3561.58,5354.11 3597.36,5374.69 "/>
   <polygon class="fil13" points="3570.27,5388.3 3536.18,5368.68 3534.48,5369.66 3570.27,5390.24 3597.36,5374.69 3595.66,5373.73 "/>
   <polygon class="fil29" points="3597.36,5374.69 3597.36,5379.05 3570.27,5394.59 3570.27,5390.24 "/>
   <polygon class="fil30" points="3534.48,5369.66 3534.48,5374.01 3570.27,5394.59 3570.27,5390.24 "/>
   <polygon class="fil25" points="3120.47,5071.09 3105.76,5079.16 3132.97,5094.81 3135.18,5099.18 3141.57,5099.76 3156.26,5091.69 "/>
   <polygon class="fil28" points="3135.18,5094.81 3099.39,5074.23 3114.09,5066.16 3149.89,5086.74 "/>
   <polygon class="fil13" points="3135.18,5092.87 3101.07,5073.26 3099.39,5074.23 3135.18,5094.81 3149.89,5086.74 3148.18,5085.79 "/>
   <polygon class="fil29" points="3149.89,5086.74 3149.89,5091.11 3135.18,5099.18 3135.18,5094.81 "/>
   <polygon class="fil30" points="3099.39,5074.23 3099.39,5078.59 3135.18,5099.18 3135.18,5094.81 "/>
   <polygon class="fil25" points="3166.57,5098.13 3151.87,5106.2 3179.08,5121.86 3181.27,5126.2 3187.65,5126.79 3202.34,5118.72 "/>
   <polygon class="fil28" points="3181.27,5121.86 3145.48,5101.26 3160.18,5093.19 3195.97,5113.79 "/>
   <polygon class="fil13" points="3181.27,5119.9 3147.18,5100.29 3145.48,5101.26 3181.27,5121.86 3195.97,5113.79 3194.27,5112.8 "/>
   <polygon class="fil29" points="3195.97,5113.79 3195.97,5118.13 3181.27,5126.2 3181.27,5121.86 "/>
   <polygon class="fil30" points="3145.48,5101.26 3145.48,5105.62 3181.27,5126.2 3181.27,5121.86 "/>
   <polygon class="fil25" points="3212.68,5125.16 3197.95,5133.23 3225.18,5148.89 3227.37,5153.24 3233.74,5153.81 3248.45,5145.74 "/>
   <polygon class="fil28" points="3227.37,5148.89 3191.58,5128.3 3206.29,5120.23 3242.08,5140.81 "/>
   <polygon class="fil13" points="3227.37,5146.93 3193.27,5127.31 3191.58,5128.3 3227.37,5148.89 3242.08,5140.81 3240.39,5139.84 "/>
   <polygon class="fil29" points="3242.08,5140.81 3242.08,5145.16 3227.37,5153.24 3227.37,5148.89 "/>
   <polygon class="fil30" points="3191.58,5128.3 3191.58,5132.65 3227.37,5153.24 3227.37,5148.89 "/>
   <polygon class="fil25" points="3258.76,5152.19 3244.05,5160.26 3271.26,5175.91 3273.47,5180.27 3279.86,5180.86 3294.55,5172.79 "/>
   <polygon class="fil28" points="3273.47,5175.91 3237.66,5155.33 3252.39,5147.26 3288.16,5167.84 "/>
   <polygon class="fil13" points="3273.47,5173.97 3239.37,5154.36 3237.66,5155.33 3273.47,5175.91 3288.16,5167.84 3286.47,5166.87 "/>
   <polygon class="fil29" points="3288.16,5167.84 3288.16,5172.2 3273.47,5180.27 3273.47,5175.91 "/>
   <polygon class="fil30" points="3237.66,5155.33 3237.66,5159.68 3273.47,5180.27 3273.47,5175.91 "/>
   <polygon class="fil25" points="3304.84,5179.23 3290.16,5187.29 3317.37,5202.95 3319.57,5207.3 3325.94,5207.87 3340.65,5199.81 "/>
   <polygon class="fil28" points="3319.57,5202.95 3283.77,5182.36 3298.47,5174.29 3334.27,5194.89 "/>
   <polygon class="fil13" points="3319.57,5201 3285.47,5181.39 3283.77,5182.36 3319.57,5202.95 3334.27,5194.89 3332.57,5193.9 "/>
   <polygon class="fil29" points="3334.27,5194.89 3334.27,5199.23 3319.57,5207.3 3319.57,5202.95 "/>
   <polygon class="fil30" points="3283.77,5182.36 3283.77,5186.7 3319.57,5207.3 3319.57,5202.95 "/>
   <polygon class="fil25" points="3350.95,5206.26 3336.24,5214.31 3363.45,5229.98 3365.65,5234.33 3372.04,5234.91 3386.74,5226.84 "/>
   <polygon class="fil28" points="3365.65,5229.98 3329.87,5209.39 3344.58,5201.31 3380.36,5221.91 "/>
   <polygon class="fil13" points="3365.65,5228.02 3331.57,5208.41 3329.87,5209.39 3365.65,5229.98 3380.36,5221.91 3378.68,5220.94 "/>
   <polygon class="fil29" points="3380.36,5221.91 3380.36,5226.26 3365.65,5234.33 3365.65,5229.98 "/>
   <polygon class="fil30" points="3329.87,5209.39 3329.87,5213.74 3365.65,5234.33 3365.65,5229.98 "/>
   <polygon class="fil25" points="3397.05,5233.29 3382.34,5241.34 3409.55,5257.01 3411.76,5261.36 3418.13,5261.94 3432.84,5253.89 "/>
   <polygon class="fil28" points="3411.76,5257.01 3375.95,5236.41 3390.68,5228.36 3426.45,5248.94 "/>
   <polygon class="fil13" points="3411.76,5255.07 3377.66,5235.44 3375.95,5236.41 3411.76,5257.01 3426.45,5248.94 3424.76,5247.97 "/>
   <polygon class="fil29" points="3426.45,5248.94 3426.45,5253.3 3411.76,5261.37 3411.76,5257.01 "/>
   <polygon class="fil30" points="3375.95,5236.41 3375.95,5240.76 3411.76,5261.37 3411.76,5257.01 "/>
   <polygon class="fil25" points="3443.15,5260.31 3428.44,5268.39 3455.66,5284.04 3457.86,5288.39 3464.23,5288.97 3478.94,5280.91 "/>
   <polygon class="fil28" points="3457.86,5284.04 3422.07,5263.45 3436.76,5255.39 3472.57,5275.97 "/>
   <polygon class="fil13" points="3457.86,5282.09 3423.76,5262.48 3422.07,5263.45 3457.86,5284.04 3472.57,5275.97 3470.86,5275 "/>
   <polygon class="fil29" points="3472.57,5275.97 3472.57,5280.33 3457.86,5288.39 3457.86,5284.04 "/>
   <polygon class="fil30" points="3422.07,5263.45 3422.07,5267.8 3457.86,5288.39 3457.86,5284.04 "/>
   <polygon class="fil25" points="3489.24,5287.34 3474.54,5295.41 3501.74,5311.07 3503.94,5315.41 3510.33,5316 3525.04,5307.93 "/>
   <polygon class="fil28" points="3503.94,5311.08 3468.16,5290.47 3482.87,5282.41 3518.65,5303.01 "/>
   <polygon class="fil13" points="3503.94,5309.12 3469.86,5289.51 3468.16,5290.47 3503.94,5311.07 3518.65,5303.01 3516.97,5302.02 "/>
   <polygon class="fil29" points="3518.65,5303.01 3518.65,5307.36 3503.94,5315.41 3503.94,5311.08 "/>
   <polygon class="fil30" points="3468.16,5290.47 3468.16,5294.83 3503.94,5315.41 3503.94,5311.08 "/>
   <polygon class="fil25" points="3535.34,5314.39 3520.63,5322.44 3547.84,5338.09 3550.05,5342.45 3556.43,5343.04 3571.13,5334.97 "/>
   <polygon class="fil28" points="3550.05,5338.09 3514.26,5317.51 3528.95,5309.45 3564.74,5330.04 "/>
   <polygon class="fil13" points="3550.05,5336.15 3515.95,5316.54 3514.26,5317.51 3550.05,5338.09 3564.74,5330.04 3563.05,5329.07 "/>
   <polygon class="fil29" points="3564.74,5330.04 3564.74,5334.39 3550.05,5342.45 3550.05,5338.09 "/>
   <polygon class="fil30" points="3514.26,5317.51 3514.26,5321.86 3550.05,5342.45 3550.05,5338.09 "/>
   <polygon class="fil25" points="3581.43,5341.4 3566.74,5349.47 3593.95,5365.12 3596.15,5369.48 3602.52,5370.07 3617.23,5362 "/>
   <polygon class="fil28" points="3596.15,5365.12 3560.36,5344.54 3575.05,5336.48 3610.86,5357.07 "/>
   <polygon class="fil13" points="3596.15,5363.19 3562.05,5343.58 3560.36,5344.54 3596.15,5365.12 3610.86,5357.07 3609.16,5356.09 "/>
   <polygon class="fil29" points="3610.86,5357.07 3610.86,5361.43 3596.15,5369.48 3596.15,5365.12 "/>
   <polygon class="fil30" points="3560.36,5344.54 3560.36,5348.89 3596.15,5369.48 3596.15,5365.12 "/>
   <polygon class="fil25" points="3627.54,5368.44 3612.83,5376.51 3640.04,5392.16 3642.23,5396.51 3648.62,5397.09 3663.33,5389.02 "/>
   <polygon class="fil28" points="3642.23,5392.16 3606.44,5371.57 3621.15,5363.51 3656.94,5384.11 "/>
   <polygon class="fil13" points="3642.23,5390.22 3608.15,5370.59 3606.44,5371.57 3642.23,5392.16 3656.94,5384.11 3655.24,5383.12 "/>
   <polygon class="fil29" points="3656.94,5384.11 3656.94,5388.45 3642.23,5396.51 3642.23,5392.16 "/>
   <polygon class="fil30" points="3606.44,5371.57 3606.44,5375.93 3642.23,5396.51 3642.23,5392.16 "/>
   <polygon class="fil25" points="3477.22,5306.37 3450.12,5321.93 3477.33,5337.58 3479.54,5341.93 3485.9,5342.51 3513.01,5326.95 "/>
   <polygon class="fil28" points="3479.54,5337.58 3443.73,5317 3470.83,5301.44 3506.62,5322.04 "/>
   <polygon class="fil13" points="3479.54,5335.63 3445.43,5316.01 3443.73,5317 3479.54,5337.58 3506.62,5322.04 3504.93,5321.07 "/>
   <polygon class="fil29" points="3506.62,5322.04 3506.62,5326.39 3479.54,5341.93 3479.54,5337.58 "/>
   <polygon class="fil30" points="3443.73,5317 3443.73,5321.34 3479.54,5341.93 3479.54,5337.58 "/>
   <polygon class="fil25" points="3431,5278.68 3403.91,5294.23 3431.12,5309.89 3433.31,5314.23 3439.69,5314.81 3466.8,5299.26 "/>
   <polygon class="fil28" points="3433.31,5309.89 3397.52,5289.29 3424.61,5273.73 3460.41,5294.33 "/>
   <polygon class="fil13" points="3433.31,5307.93 3399.22,5288.31 3397.52,5289.29 3433.31,5309.89 3460.41,5294.33 3458.7,5293.34 "/>
   <polygon class="fil29" points="3460.41,5294.33 3460.41,5298.68 3433.31,5314.23 3433.31,5309.89 "/>
   <polygon class="fil30" points="3397.52,5289.29 3397.52,5293.65 3433.31,5314.23 3433.31,5309.89 "/>
   <polygon class="fil25" points="3383.47,5251.41 3356.37,5266.97 3383.58,5282.62 3385.79,5286.97 3392.16,5287.55 3419.26,5272 "/>
   <polygon class="fil28" points="3385.79,5282.62 3350,5262.04 3377.09,5246.47 3412.87,5267.07 "/>
   <polygon class="fil13" points="3385.79,5280.66 3351.68,5261.05 3350,5262.04 3385.79,5282.62 3412.87,5267.07 3411.18,5266.09 "/>
   <polygon class="fil29" points="3412.87,5267.07 3412.87,5271.41 3385.79,5286.97 3385.79,5282.62 "/>
   <polygon class="fil30" points="3350,5262.04 3350,5266.39 3385.79,5286.97 3385.79,5282.62 "/>
   <polygon class="fil25" points="3335.44,5223.09 3308.34,5238.65 3335.55,5254.3 3337.76,5258.65 3344.12,5259.23 3371.23,5243.68 "/>
   <polygon class="fil28" points="3337.76,5254.3 3301.95,5233.7 3329.05,5218.15 3364.84,5238.74 "/>
   <polygon class="fil13" points="3337.76,5252.34 3303.65,5232.73 3301.95,5233.7 3337.76,5254.3 3364.84,5238.74 3363.15,5237.76 "/>
   <polygon class="fil29" points="3364.84,5238.74 3364.84,5243.09 3337.76,5258.65 3337.76,5254.3 "/>
   <polygon class="fil30" points="3301.95,5233.7 3301.95,5238.07 3337.76,5258.65 3337.76,5254.3 "/>
   <polygon class="fil25" points="3288.54,5196.11 3261.44,5211.68 3288.65,5227.31 3290.86,5231.68 3297.24,5232.26 3324.33,5216.7 "/>
   <polygon class="fil28" points="3290.86,5227.31 3255.07,5206.73 3282.16,5191.18 3317.95,5211.76 "/>
   <polygon class="fil13" points="3290.86,5225.37 3256.76,5205.76 3255.07,5206.73 3290.86,5227.31 3317.95,5211.76 3316.26,5210.8 "/>
   <polygon class="fil29" points="3317.95,5211.76 3317.95,5216.12 3290.86,5231.68 3290.86,5227.31 "/>
   <polygon class="fil30" points="3255.07,5206.73 3255.07,5211.09 3290.86,5231.68 3290.86,5227.31 "/>
   <polygon class="fil25" points="3237.91,5168.09 3210.83,5183.63 3238.04,5199.29 3240.23,5203.65 3246.62,5204.22 3273.7,5188.68 "/>
   <polygon class="fil28" points="3240.23,5199.29 3204.45,5178.7 3231.54,5163.15 3267.31,5183.74 "/>
   <polygon class="fil13" points="3240.23,5197.34 3206.13,5177.73 3204.45,5178.7 3240.23,5199.29 3267.31,5183.74 3265.63,5182.76 "/>
   <polygon class="fil29" points="3267.31,5183.74 3267.31,5188.09 3240.23,5203.65 3240.23,5199.29 "/>
   <polygon class="fil30" points="3204.45,5178.7 3204.45,5183.05 3240.23,5203.65 3240.23,5199.29 "/>
   <polygon class="fil25" points="3190.45,5140.44 3163.37,5156 3190.58,5171.65 3192.77,5176 3199.15,5176.58 3226.24,5161.02 "/>
   <polygon class="fil28" points="3192.77,5171.65 3156.98,5151.05 3184.07,5135.5 3219.86,5156.09 "/>
   <polygon class="fil13" points="3192.77,5169.7 3158.68,5150.08 3156.98,5151.05 3192.77,5171.65 3219.86,5156.09 3218.16,5155.12 "/>
   <polygon class="fil29" points="3219.86,5156.09 3219.86,5160.44 3192.77,5176 3192.77,5171.65 "/>
   <polygon class="fil30" points="3156.98,5151.05 3156.98,5155.41 3192.77,5176 3192.77,5171.65 "/>
   <polygon class="fil25" points="3144.15,5113.29 3117.07,5128.84 3144.27,5144.5 3146.47,5148.84 3152.84,5149.43 3179.94,5133.87 "/>
   <polygon class="fil28" points="3146.47,5144.5 3110.68,5123.9 3137.77,5108.36 3173.55,5128.94 "/>
   <polygon class="fil13" points="3146.47,5142.54 3112.37,5122.93 3110.68,5123.9 3146.47,5144.5 3173.55,5128.94 3171.86,5127.97 "/>
   <polygon class="fil29" points="3173.55,5128.94 3173.55,5133.3 3146.47,5148.84 3146.47,5144.5 "/>
   <polygon class="fil30" points="3110.68,5123.9 3110.68,5128.26 3146.47,5148.84 3146.47,5144.5 "/>
   <polygon class="fil25" points="3098.41,5085.34 3071.33,5100.9 3098.54,5116.55 3100.73,5120.9 3107.12,5121.48 3134.2,5105.93 "/>
   <polygon class="fil28" points="3100.73,5116.55 3064.94,5095.95 3092.04,5080.41 3127.81,5101.01 "/>
   <polygon class="fil13" points="3100.73,5114.61 3066.63,5094.98 3064.94,5095.95 3100.73,5116.55 3127.81,5101.01 3126.12,5100.02 "/>
   <polygon class="fil29" points="3127.81,5101.01 3127.81,5105.34 3100.73,5120.9 3100.73,5116.55 "/>
   <polygon class="fil30" points="3064.94,5095.95 3064.94,5100.31 3100.73,5120.9 3100.73,5116.55 "/>
   <polygon class="fil25" points="3616.47,5386.72 3549.43,5424.98 3565.65,5434.36 3567.84,5438.72 3574.22,5439.29 3641.27,5401.04 "/>
   <polygon class="fil28" points="3567.84,5434.36 3543.05,5420.04 3610.09,5381.79 3634.89,5396.11 "/>
   <polygon class="fil13" points="3567.84,5432.41 3544.74,5419.07 3543.05,5420.04 3567.84,5434.36 3634.89,5396.11 3633.19,5395.13 "/>
   <polygon class="fil29" points="3634.89,5396.11 3634.89,5400.45 3567.84,5438.72 3567.84,5434.36 "/>
   <polygon class="fil30" points="3543.05,5420.04 3543.05,5424.4 3567.84,5438.72 3567.84,5434.36 "/>
   <polygon class="fil25" points="3148.09,5256.54 3121.01,5272.09 3271.36,5360.66 3273.55,5365.02 3279.93,5365.61 3307.04,5350.05 "/>
   <polygon class="fil28" points="3273.55,5360.66 3114.63,5267.16 3141.72,5251.61 3300.65,5345.12 "/>
   <polygon class="fil13" points="3273.55,5358.72 3116.31,5266.18 3114.63,5267.16 3273.55,5360.66 3300.65,5345.12 3298.95,5344.15 "/>
   <polygon class="fil29" points="3300.65,5345.12 3300.65,5349.47 3273.55,5365.02 3273.55,5360.66 "/>
   <polygon class="fil30" points="3114.63,5267.16 3114.63,5271.51 3273.55,5365.02 3273.55,5360.66 "/>
   <path class="fil15" d="M3697.61 4245.46c8.69,-69.03 32.53,-135.57 64.57,-197.32 20.47,-39.43 37.36,-79.74 24.85,-124.85 -0.47,-1.69 -1.14,-3.57 -2.72,-4.35 -1.35,-0.65 -2.93,-0.31 -4.39,0.06 -49.08,12.5 -92.56,43.93 -121.64,85.18 -11.25,15.96 -19.68,33.26 -26.25,51.35 -12.63,34.83 -18.29,72.57 -23.65,108.97 -4.65,31.71 -9.06,63.46 -13.46,95.22 -4.79,34.42 -9.56,68.86 -14.33,103.29 -5.13,36.92 -9.6,73.81 -13.39,110.88 -1.09,10.79 -7.21,23.58 -2.51,33.85 5.92,12.86 24.12,20.74 37.04,23.19 8.2,1.54 16.88,1.71 24.64,-1.36 9.29,-3.67 16.3,-11.63 21.3,-20.28 13.2,-22.76 14.17,-49.72 18.14,-75.08 4.97,-31.78 13.63,-62.32 20.27,-93.67 6.61,-31.29 7.56,-63.43 11.54,-95.08z"/>
   <path class="fil18" d="M3592.54 4880.42c-1,15.74 -4.35,30.79 -6.01,46.18 -1.68,13.37 -1.35,26.41 -1.35,39.8l0 1.02c0.67,24.76 -1,51.86 -17.07,71.93 -6.36,8.03 -14.72,14.06 -21.75,21.42 -9.03,9.04 -16.72,19.42 -22.41,31.13 -5.36,10.69 -10.37,23.42 -21.42,28.09 -2.01,0.68 -4.36,1.35 -6.36,1 -3.35,-0.32 -6.36,-2 -9.04,-4.35 -12.37,-11.04 -11.04,-31.44 -3.67,-46.17 7.35,-15.06 19.39,-27.44 26.75,-42.5 -2.67,-7.03 -12.37,-8.69 -19.07,-5.35 -6.68,3.33 -11.03,9.69 -16.06,15.39 -8.36,9.71 -18.74,17.74 -30.11,23.42 -3.35,1.68 -7.36,3.35 -10.04,6.03 -4.68,4.02 -6.7,9.71 -9.03,15.39 -7.36,16.4 -19.75,30.46 -35.14,40.15 -9.04,5.36 -15.06,13.39 -17.72,23.42 -2.02,7.69 -3.02,15.4 -7.03,22.08 -1.35,3.01 -3.36,5.36 -5.69,7.71 -2.33,2 -5.35,3.67 -8.36,4.33 -4.02,0.68 -8.37,-1 -11.37,-4.01 -3.02,-3.02 -4.36,-7.03 -4.36,-11.36 -4.33,-0.68 -9.37,-1.68 -11.71,-5.69 -1.33,-2.68 -1,-6.03 -0.67,-9.37 1,-4.68 2,-9.03 3.35,-13.71 -3.35,4.01 -8.7,12.37 -15.06,11.04 -2.35,-0.67 -5.03,-1.35 -6.7,-3.36 -2.68,-2.67 -3.35,-7.03 -2.35,-10.7 0.67,-3.68 2.68,-7.03 4.68,-10.37 6.03,-11.04 8.37,-24.1 14.39,-35.47 3.68,-7.03 8.04,-13.39 11.04,-20.74 1.35,-4.02 2.7,-8.37 4.36,-12.39 2.35,-4.35 5.68,-8.36 8.69,-12.04 23.76,-28.09 49.86,-53.52 77.96,-76.96 11.37,-9.37 23.08,-18.4 33.13,-29.44 5.69,-6.68 10.71,-14.06 14.39,-22.08 2,-4.01 3.02,-8.03 3.68,-12.37 0.33,-3.02 1,-6.03 1.68,-9.04 3.35,-12.37 13.04,-25.09 21.74,-34.12l2.68 -0.67 0.67 1.33c0.35,2.35 1.35,4.35 3.36,5.69 4.02,2.67 11.69,-2.68 15.71,-4.01 6.71,-1.68 14.06,-1.68 20.76,0.32 9.35,3.36 16.72,10.72 24.75,17.07 4.02,3.35 10.38,8.04 15.74,9.37 5.68,1.68 5.68,-2.68 10.03,-7.03z"/>
   <path class="fil16" d="M3592.54 4880.42c-1,15.74 -4.35,30.79 -6.01,46.18 -1.68,13.37 -1.35,26.41 -1.35,39.8 -11.04,-21.74 -27.1,-40.82 -48.18,-52.53 -15.07,-8.03 -32.13,-12.04 -48.85,-12.04 -4.36,0 -8.71,0.33 -12.72,-0.33 0.33,-3.02 1,-6.03 1.68,-9.04 3.35,-12.37 13.04,-25.09 21.74,-34.12l2.68 -0.67 0.67 1.33c0.35,2.35 1.35,4.35 3.36,5.69 4.02,2.67 11.69,-2.68 15.71,-4.01 6.71,-1.68 14.06,-1.68 20.76,0.32 9.35,3.36 16.72,10.72 24.75,17.07 4.02,3.35 10.38,8.04 15.74,9.37 5.68,1.68 5.68,-2.68 10.03,-7.03z"/>
   <path class="fil15" d="M3474.5 4894.29c-0.08,1.94 0.04,3.87 0.42,5.82 3.56,-8.36 11.57,-14.22 20.22,-17.01 8.64,-2.78 17.93,-2.81 26.99,-2.14 13.35,0.97 26.58,3.39 39.4,7.22 8.9,2.65 17.98,6.22 24.17,13.17 4.42,4.96 0.02,11.52 2.92,17.57 0.58,1.22 1.53,2.44 2.87,2.71 3.26,0.58 7.43,-20.63 8.7,-24.04 3.07,-8.24 4.96,-16.93 7.98,-25.24 5.93,-16.32 13.43,-32.08 22.39,-46.96 10.31,-17.11 22.6,-33.28 29.61,-52 13.04,-34.85 6.15,-73.65 10.41,-110.61 3.17,-27.53 12.54,-53.94 22.51,-79.8 6.36,-16.5 13.07,-34.64 7.31,-51.36 -4.75,-13.8 -17,-23.43 -25.65,-35.21 -15.87,-21.65 -21.28,-52.65 -44.79,-65.58 -11.37,-6.25 -25.71,-6.75 -37.5,-1.33 -23.32,10.78 -28.93,37.68 -34.96,59.89 -8.75,32.21 -16.8,64.63 -24.33,97.15 -7.39,31.96 -14.26,64.03 -20.76,96.19 -3.26,16.07 -6.43,32.17 -9.53,48.26 -2.74,14.33 -7.56,29.83 -8.46,44.25 -0.98,15.75 0.4,31.47 -1.29,47.29 -1.69,15.86 -5.04,31.61 -10.94,46.47 -3.25,8.21 -7.36,16.68 -7.67,25.29z"/>
   <path class="fil31" d="M4351.07 4229.29c-5.35,3.02 -12.06,2.35 -18.42,2.02 -23.75,-0.67 -52.85,21.07 -70.6,35.8 -32.46,26.76 -46.5,69.93 -53.53,111.42 -9.69,58.22 -9.36,117.44 -9.04,176 0.35,65.24 0.67,130.15 1.02,195.07 0,6.35 0,12.71 -2.68,18.39 -2.35,4.36 -6.36,8.03 -10.37,11.06 -50.18,40.15 -118.44,48.5 -182.68,47.52 -75.61,-1.35 -150.9,-13.39 -222.85,-35.81 -6.68,-2.35 -13.71,-4.68 -20.42,-7.36 -15.06,-6.03 -29.43,-13.72 -40.14,-25.43l0 -0.33c-1.35,-1.35 -2.68,-2.68 -3.68,-4.02 -7.03,-8.71 -11.38,-19.4 -16.06,-29.78 -49.2,-114.44 -99.04,-232.89 -99.39,-357.68 0,-50.88 8.37,-101.39 16.74,-151.92 7.03,-42.49 14.06,-85.31 21.42,-128.14 4.68,-29.11 9.71,-58.89 25.43,-83.99 34.79,-55.87 109.42,-79.64 168.31,-100.72 15.72,-5.35 32.46,-9.03 48.83,-11.71 33.81,-5.68 67.93,-6.7 102.06,-5.02 19.42,1 38.49,2.67 57.56,6.03 6.36,1 18.4,6.02 24.41,3.67 2.7,-1 13.06,-12.38 8.04,-15.06 38.47,20.08 70.6,49.86 102.39,78.97 18.06,16.39 35.8,33.13 53.53,49.52 47.51,43.52 86.33,97.37 113.09,155.26 7.36,15.71 30.11,53.19 7.03,66.24z"/>
   <path class="fil18" d="M3847.16 5113.3c-17.74,11.03 -31.44,27.09 -46.5,41.14 -13.74,12.72 -28.44,23.76 -44.18,33.8 -43.82,28.43 -93.35,49.85 -134.5,82.64 -15.72,12.39 -30.44,26.44 -48.85,34.47 -8.37,3.67 -30.11,11.04 -33.8,-2.02 -2.33,-8.36 6.36,-17.74 11.39,-23.08 25.08,-28.44 50.52,-56.54 76.61,-84.32 -14.71,5.68 -26.76,16.39 -38.47,27.09 -16.07,14.39 -31.78,28.78 -47.85,43.5 -13.39,12.04 -26.76,24.09 -42.48,32.11 -5.36,2.69 -11.39,5.04 -17.08,4.69 -6.02,-0.68 -12.04,-5.01 -12.71,-11.04 -6.36,7.69 -22.42,9.04 -28.76,0 -6.36,-9.38 3,-23.42 8.69,-30.44 36.47,-47.2 78.63,-90.02 124.79,-127.82 -19.74,14.39 -42.82,23.42 -63.24,36.81 -22.74,14.72 -42.48,35.13 -68.25,43.17 -5.7,2 -12.72,2.67 -17.4,-1.01 -4.68,-3.67 -5.02,-10.69 -3,-16.39 2.33,-5.35 6.68,-9.36 11.04,-13.37 39.47,-36.82 80.97,-72.28 129.14,-96.71 32.46,-16.72 67.93,-28.44 104.07,-34.47 21.75,-3.33 44.15,-5.02 65.25,-12.04 14.7,-4.68 27.76,-12.04 41.48,-19.39l0.33 0c2,-1.01 4.01,-2.02 6.36,-3.36l0.65 0c2.02,-1.33 4.36,-2.33 6.71,-3.35 1.33,-0.67 3.33,-1.33 4.33,0l0.68 1.67 0 1.35c0.67,7.02 0,14.05 1.33,20.75 1,5.68 3.02,11.71 4.35,17.39 2.35,13.72 6.7,27.11 15.06,38.15 8.37,11.04 21.08,19.41 34.8,20.09z"/>
   <path class="fil16" d="M3847.16 5113.3c-17.74,11.03 -31.44,27.09 -46.5,41.14 -13.74,12.72 -28.44,23.76 -44.18,33.8 4.35,-7.36 7.71,-15.39 10.06,-23.76 8.03,-30.44 -1.03,-62.22 -3.36,-92.68 -1.68,-17.06 -2.35,-41.15 9.37,-51.18l0.33 0c2,-1.01 4.01,-2.02 6.36,-3.36l0.65 0c3.36,-1.33 7.03,-1.33 11.72,-0.33 0.67,7.02 0,14.05 1.33,20.75 1,5.68 3.02,11.71 4.35,17.39 2.35,13.72 6.7,27.11 15.06,38.15 8.37,11.04 21.08,19.41 34.8,20.09z"/>
   <path class="fil15" d="M4388.95 4259.06c-11.87,-44.37 -36.56,-87.33 -74.94,-113.76 -37.85,-26.03 -90.09,-13.14 -120.09,18 -48.18,50.02 -48.96,137.64 -47.13,202.85 1.97,69.65 22.35,297.54 21.67,343.31 -0.26,16.75 3.79,41.19 -1.29,57.18 -3.28,10.35 -17.71,18.28 -26.04,24.5 -107.61,80.57 -226.04,142.96 -345.85,203.59 -9.2,4.67 -21.24,10.38 -26.74,19.65 -4.24,7.15 -2.46,15.73 -1.56,23.58 2.65,23.58 10.36,46.14 23.52,65.99 7.4,11.17 16.39,21.3 26.69,29.89 2.49,2.08 5.22,4.15 8.42,4.59 3.07,0.43 6.13,-0.67 9.02,-1.78 18.09,-6.94 35.79,-15.04 54.44,-20.28 34.72,-9.75 71.46,-9.3 106.83,-16.36 89.89,-17.94 162.74,-81.98 246.25,-119.77 25.29,-11.44 56,-20.94 76.21,-40.9 2.06,-2.03 3.61,-4.39 5.74,-6.31l1.09 -2c18.35,-23.21 21.6,-56.83 27.79,-84.9 7.81,-35.31 12.47,-71.42 17.11,-107.24 13.79,-106.52 23.32,-213.57 28.58,-320.83 2.61,-53.26 4.06,-107.48 -9.72,-159z"/>
   <path class="fil10" d="M3912.74 4040.25c-3.68,24.43 -15.06,47.18 -26.78,69.26 -36.79,68.25 -82.64,135.52 -103.72,210.46 -10.37,37.14 -24.08,72.93 -32.46,111.08 -8.03,38.15 -13.04,76.96 -15.39,116.11 -2.33,44.5 -1,89.67 5.36,133.83 4.68,33.79 10.69,69.26 21.74,102.39 -15.06,-6.03 -29.43,-13.72 -40.14,-25.43l0 -0.33c-5.03,-13.39 -9.38,-26.78 -12.71,-40.82 -4.7,-19.07 -7.71,-38.82 -9.38,-58.56 -3.01,-37.82 0,-75.61 0.67,-113.09 1,-77.63 22.08,-153.92 46.5,-227.53 8.71,-26.76 20.75,-52.86 34.14,-78.29 20.74,-39.15 45.17,-76.63 68.6,-113.42 11.37,-18.07 25.43,-37.15 33.46,-56.89 3.33,-8.71 7.35,-51.19 26.43,-41.15 4.01,2 4.35,7.7 3.68,12.37z"/>
   <path class="fil16" d="M4116.84 3919.46l-0.33 3.35c-3.68,12.39 -10.37,31.46 -22.75,37.15 -3.02,1.33 -5.69,2 -8.36,3.33 -2.35,0.68 -4.68,1.68 -7.03,3.35 -1.67,1.35 -3.68,2.68 -5.36,3.68 -5.68,4.35 -11.36,8.71 -17.39,12.72 -33.14,22.07 -68.93,40.49 -103.39,60.89 -3.36,1.68 -6.36,3.35 -9.37,5.35 -6.36,3.7 -12.39,7.71 -17.41,12.72 -16.39,-12.72 -34.79,-23.42 -54.19,-31.44 3.35,-9.04 6.68,-18.75 6.36,-28.44l0 -1.35c-0.35,-5.68 -2.7,-11.71 -6.03,-16.39l-0.33 -0.33c-3.02,-3.35 -8.04,-5.01 -10.71,-8.7 -7.71,-9.03 -0.68,-24.42 6.35,-31.78 6.03,-6.03 13.39,-10.04 20.75,-13.72 3.68,-1.68 7.03,-3.35 10.71,-5.02 30.44,-14.72 57.21,-37.14 77.62,-64.25 10.38,-13.38 19.41,-27.76 26.1,-43.5 3.68,-7.7 5.69,-15.39 8.71,-23.42 2.67,-6.02 3.33,-11.71 3,-18.07 0.33,-2.33 0.33,-4.68 0.33,-7.36l0 -21.75c3.03,9.71 6.36,19.07 10.04,28.44 19.07,49.86 47.52,95.69 84.32,134.5 2,2.35 4.02,4.36 6.02,6.36 1.01,1.02 2.01,2.02 2.35,3.68z"/>
   <path class="fil17" d="M4108.48 3909.42c-1.01,6.36 -2.35,12.72 -4.36,19.08 -3.33,10.71 -9.36,25.76 -18.72,34.79 -3.68,3.68 -7.69,6.36 -12.39,7.03 -5.35,1.35 -11.04,0.33 -17.72,-3.68 -3.69,-2.35 -7.03,-6.03 -11.04,-8.69 -5.03,-3.35 -11.04,-5.02 -17.4,-6.36 -26.1,-4.35 -53.19,3.35 -77.63,14.39 -3.01,1.68 -6.03,3.01 -9.03,4.35 -21.08,10.37 -40.83,22.08 -62.57,30.44 -0.35,-5.68 -2.7,-11.71 -6.03,-16.39 3.33,-10.71 9.03,-21.08 13.04,-31.44 3.02,-8.37 3.02,-15.74 3.02,-23.09 0,-4.35 0,-9.03 0.33,-14.06 2.68,-25.43 14.04,-49.51 27.78,-70.93 16.72,-25.1 38.14,-48.18 65.24,-60.56 10.37,-4.69 21.42,-7.71 32.79,-8.71 3.36,-0.67 7.03,-1 10.37,-0.67 19.07,49.86 47.52,95.69 84.32,134.5z"/>
   <path class="fil9" d="M3862.24 3955.01c-1.35,-2.67 -2.67,-5.32 -3.74,-8.08 -2.61,-6.74 -2.48,-15.22 -4.14,-22.3 -3.47,-14.99 -9.21,-29.63 -18.78,-41.79 -10.85,-13.8 -25.91,-23.63 -37.92,-36.39 -9.11,-9.71 -18.76,-24.37 -17.5,-38.41 1.14,-12.56 7.87,-26.18 10.37,-39.06 5.21,-26.85 8.44,-54.07 9.68,-81.37 1.06,-23.13 0.56,-46.86 -7.52,-68.57 -8.19,-22.03 -26.26,-41.06 -49.54,-46.76 -12.72,-3.11 -22.53,2.35 -34.35,1.88 -6.61,-0.25 -23.03,-11.29 -16.02,-20.24 -22.53,28.72 -35.14,64.87 -36.58,101.35 -0.39,10.37 0.08,20.76 1.42,31.04 3.3,25.9 11.92,51.15 24.87,73.85 14.56,25.48 32.9,48.86 37.24,78.78 8.6,59.38 -34.86,112.91 -43.14,170.03 -5.31,36.58 7.78,77.63 41.98,95.76 16.29,8.64 35.64,10.2 53.86,7.46 36.19,-5.39 69.79,-28.03 86.92,-60.36 13.85,-26.13 16.36,-57.82 7.56,-85.97 -1.2,-3.83 -2.94,-7.33 -4.7,-10.83z"/>
   <path class="fil10" d="M3810.12 4085.72c-0.59,2.11 -1.14,4.49 -0.02,6.36 0.83,1.4 2.4,2.15 3.96,2.6 3.47,0.93 7.15,0.54 10.67,-0.21 16.1,-3.4 29.85,-13.7 41.89,-24.92 12.01,-11.22 23,-23.71 36.48,-33.13 -15.75,-19.85 -28.36,-42.19 -37.22,-65.93l-2.02 -2.54 -2.82 0.88c-6.96,4.59 -13.98,9.25 -19.63,15.39 -10.94,11.92 -11.4,30.04 -15.58,45.06 -5.25,18.81 -10.48,37.64 -15.72,56.44z"/>
   <path class="fil10" d="M3900.8 4081.89c5.64,17.36 7.8,35.85 6.32,54.04 69.33,-25.48 130.48,-69.74 184.11,-120.54 7.4,-7.02 14.72,-14.21 20.83,-22.39 8.8,-11.81 14.9,-25.37 20.91,-38.83 3.46,-7.71 6.97,-15.67 7.29,-24.13 0.72,-19.72 -15.85,-36.41 -17.36,-56.09 -0.64,-8.35 1.28,-17.63 -3.54,-24.49 -2.32,-3.3 -5.9,-5.48 -9.44,-7.43 -7.14,-3.93 -14.59,-7.35 -22.25,-10.17 10.96,7 17.32,20.58 15.67,33.48 -1.13,8.67 -5.46,16.58 -10.19,23.94 -23.33,36.26 -57.56,64.02 -91.99,90.02 -26.17,19.73 -53.43,39.17 -84.72,48.93 -8.46,2.64 -22.78,4.42 -24.67,14.76 -2.32,12.78 5.2,27.1 9.03,38.89z"/>
   <path class="fil32" d="M3639.95 3747.85l-2.29 2.15c-2.53,2.37 -9.97,7.25 -7.4,11.71 0.78,1.33 2.57,1.79 4.08,1.53 2.02,-0.33 3.71,-1.61 5.32,-2.86 14.07,-10.9 28.2,-21.85 40.71,-34.53 1.17,-1.18 2.35,-2.42 3.03,-3.93 1.44,-3.24 -0.04,-5.43 -3.48,-5.56 -3.7,-0.13 -5,2.14 -7.58,4.12 -7.21,5.59 -28.63,23.85 -32.38,27.36z"/>
   <path class="fil18" d="M4065.3 3619.13c-9.8,-36.03 -26.64,-70.82 -52.96,-97.31 -31.21,-31.39 -74.97,-48.93 -118.53,-53.64 -49.37,-5.33 -93.14,7.19 -133.79,35.46 -20.87,14.5 -37.46,34.25 -49.93,56.18 -15.86,27.89 -28.54,58 -34.86,89.56 -6.13,30.61 -1.15,58.47 -0.7,88.85 0.1,7.68 0.25,15.57 3.17,22.68 4.15,10.15 13.25,17.26 20.48,25.52 10.76,12.28 19.58,27.72 23.43,43.67 3.71,15.29 -2.79,34.71 -8.24,49.11 -2.11,5.57 -4.59,11.1 -5.53,16.99 -0.94,5.9 -0.15,12.39 3.68,16.97 2.32,2.79 5.56,4.64 8.91,6.03 5.71,2.37 11.93,3.51 18.09,3.35 7.09,-0.18 8.53,-1.28 12.31,5.32 2.28,4.02 2.33,6 2.67,10.58 0.21,2.78 -0.03,5.83 2.24,7.92 0.33,0.29 4.56,3.06 4.79,1.74 -0.96,5.44 -1.11,12.57 3.94,14.81 1.44,0.64 3.07,0.72 4.57,1.18 4.96,1.54 10.07,9.15 12.28,13.62 3.08,6.25 4.25,13.29 7.9,19.28 5.08,8.29 14.6,13.14 24.22,14.48 9.63,1.35 19.42,-0.4 28.83,-2.86 43.87,-11.41 82.35,-37.52 118.51,-64.86 15.03,-11.35 29.82,-23 44.38,-34.94 12.28,-10.06 16.44,-23.68 16.01,-39.32 -0.24,-8.28 -0.98,-16.79 0.83,-24.96 1.65,-7.43 6.5,-11.65 11.92,-16.69 56.11,-52.06 49.53,-141.9 31.36,-208.69z"/>
   <path class="fil33" d="M3850.5 3779.29c6.17,0 12.35,2 17.98,4.24 4.32,1.72 9.11,2.61 13.06,5.13 -20.89,-6.72 -41.86,-2.92 -62.7,1.92 -22.49,5.2 -44.99,10.43 -67.49,15.65l-3.53 0.07 -2.37 -2.92c-1.67,-3.9 -2.18,-8.28 -1.49,-12.46 26.83,-3.5 52.14,-6.35 78.99,-9.86 9.15,-1.19 18.36,-2.39 27.56,-1.76z"/>
   <path class="fil33" d="M3669.98 3748.24c-1.56,3.72 -0.46,8.13 1.71,11.54 2.18,3.42 5.29,6.1 8.15,8.94 4.94,4.89 9.29,10.5 14.96,14.61 4,2.93 8,4.79 4.63,-1.26 -7.03,-12.6 -20.08,-22.93 -29.44,-33.83z"/>
   <path class="fil34" d="M3881.4 3890.48c-2.63,-4.28 -6.28,-7.9 -10.87,-10.46 -9.92,-5.49 -22.29,-2.24 -30.17,5.29 -10.61,10.13 -12.2,26.97 -3.49,38.78 4.61,6.25 11.63,10.83 19.32,11.8 15.13,1.92 29.31,-10.67 30.11,-25.58 0.38,-7.01 -1.32,-14.01 -4.9,-19.83z"/>
   <path class="fil9" d="M4356.26 4149.21c5.33,-10.13 9.75,-20.75 13.1,-31.68 16.59,-54.35 7.71,-115.31 -21.1,-164.31 -42.86,-72.96 -125.85,-119.48 -155.43,-198.76 -17.38,-46.57 -13.65,-98.15 -23.54,-146.85 -15.6,-76.85 -67.33,-145.78 -137.22,-181.33 -69.89,-35.57 -156.56,-36.69 -226.92,-2.08 -41.39,20.36 -76.46,52.88 -100.85,91.94 -21.35,34.22 -45.44,89.22 -32.53,130.17 8.7,27.57 62.2,19.18 83.53,15.79 3.22,-0.52 30.47,-8.97 31.13,-8.29 56.53,59.35 145.28,79.5 201.26,139.35 6.71,-17.91 8.56,-37.58 17.32,-54.57 8.78,-17 28.35,-31.13 46.33,-24.68 7.4,2.64 13.39,8.42 17.4,15.15 6.47,10.85 6.43,22.25 1.24,33.76 -4.04,8.97 -10.28,16.74 -15.94,24.78 -9.44,13.43 -17.47,28.06 -21.75,43.9 -6.44,23.96 -1.87,50.83 11.28,71.86 9.37,14.98 25.5,23.19 34.22,38.41 9.39,16.35 11.31,33.61 5.86,51.76 -5.7,18.94 -16.89,35.74 -24.08,54.15 -20.68,52.93 -4.22,117.42 37.43,156.08 41.64,38.67 105.25,50.67 159.13,32.57 43.01,-14.44 78.94,-46.94 100.14,-87.14z"/>
   <path class="fil32" d="M4002.18 3730.53c3.08,-2.03 6.44,-3.69 9.21,-6.04 3.32,-2.78 6.68,-5.18 10.72,-6.78 -5.43,5.4 -10.22,11.43 -14.29,17.92 -2.61,4.14 -5.43,9.41 -9.14,12.68 -5.02,4.39 -77.1,51.94 -93.96,63.85 -7.93,5.59 -15.86,11.18 -23.83,16.69 -7.6,5.24 -15.33,11.83 -23.59,15.96l-3.46 1.15 -2.54 -1.93c-2.82,-3.42 -7.4,-9.26 -3.59,-13.5 3.14,-3.46 10.89,-5.36 15.03,-7.52 12.3,-6.41 23.76,-15.04 35.3,-22.69 19.5,-12.92 38.92,-25.96 58.35,-38.98 15.3,-10.28 30.44,-20.71 45.79,-30.81z"/>
   <path class="fil32" d="M3853.83 3887.08c-2.72,3.39 -7.8,3.39 -11.86,3.04 -10.14,-1.02 -19.94,-2.36 -30.11,-3.38 -6.76,-0.68 -13.2,-1.36 -19.63,-3.06 -8.53,-2.12 -16.74,-9.62 -22.97,-15.65 -7.02,-6.76 -12.94,-14.97 -18.64,-22.57 -4.18,-5.57 -7.15,-10.89 -6.18,-18.18 0.96,-7.46 15.71,-1.79 20.39,-1.11 11.51,1.68 22.33,3.37 33.5,5.4 8.79,1.69 17.26,3.72 25.37,6.78 5.08,1.69 10.15,4.06 14.56,7.09 8.46,6.43 14.54,16.25 16.25,26.74 1,4.41 2.7,10.82 -0.68,14.89zm-138.07 -34.18l-1.02 1.7 -1.69 0c-24.17,-12.09 -45.15,-35.47 -59.79,-57.75 -2.43,-3.72 -4.76,-7.57 -6.37,-11.74 -1.29,-3.39 -2.11,-6.98 -2.38,-10.63 3.61,-1.68 7.75,0.6 11.07,2.79 26.67,17.65 69.06,36.59 60.18,75.63zm136.71 -20.29c-1.02,-1.69 -1.7,-3.39 -3.39,-4.4 -1.35,-1.02 -3.04,-1.35 -4.74,-1.7 -19.29,-3.04 -38.24,-6.43 -57.18,-9.47 -15.24,-2.7 -30.44,-5.08 -46.03,-4.73 -7.44,0 -14.89,1.01 -20.97,-4.41 -4.06,-3.72 -8.46,-6.43 -13.19,-9.14 -2.03,-1.35 -4.4,-2.36 -6.43,-3.72 -15.9,-8.79 -31.14,-18.26 -46.03,-28.41 -5.41,-4.06 -10.82,-8.13 -17.25,-9.82 -1.69,-0.67 -3.37,-0.67 -5.07,0 -6.09,2.7 7.44,20.98 9.46,24.7 4.42,7.78 9.15,15.56 13.87,23.02 13.54,20.97 29.46,41.96 52.46,51.76 2.71,1.35 5.41,2.37 8.46,1.69 4.74,-1.36 6.76,-6.78 7.11,-11.5 0,-5.08 -1.36,-9.82 -0.35,-14.56 0.35,-2.37 2.36,-5.07 4.4,-4.07l1.69 1.36c15.22,22.33 28.42,47.71 51.77,60.24 19.97,10.82 43.32,10.49 65.65,10.14 6.08,-0.33 13.54,-1 16.92,-6.09 2.37,-3.39 2.37,-7.78 2.03,-11.85 -1.01,-16.92 -5.75,-33.83 -13.19,-49.06z"/>
   <path class="fil10" d="M3812.4 4443.15c-2.93,8.87 -6.22,17.9 -5.94,27.22 0.49,16.97 12.39,31.18 23.68,43.86 10.56,11.89 21.85,24.25 36.94,29.26 11.44,3.82 23.87,2.94 35.89,1.69 8.94,-0.92 17.87,-2.03 26.79,-3.3 7.03,-1.02 14.85,-2.63 18.92,-8.44 2.26,-3.24 2.97,-7.25 3.67,-11.13 6.9,-38.56 17.75,-76.37 32.31,-112.72 3.51,-8.76 16.35,-28.33 10.5,-37.07 -2.13,-3.17 -5.44,-5.28 -8.7,-7.22 -11.97,-7.13 -24.51,-13.18 -37.18,-18.93 -29.08,-13.24 -58.83,-24.96 -88.54,-36.68l-1.2 -0.19 -1.07 1.13c-5.54,10.5 -38.92,110.87 -46.07,132.53z"/>
   <path class="fil20" d="M2755.61 4732.87l4.37 0.87 0.04 0 9.08 1.91 0 3.18c0.1,2.72 0.39,5.62 0.92,8.74l17.36 101.03 44.74 260.83c4.57,26.94 24.78,58.1 45.12,69.63l576.81 331.89 1.07 0.58 -1.52 17.24 9.25 -6.78c5.69,-4.06 8.56,-12.74 7.33,-25.15 -0.14,-1.52 -0.4,-3.1 -0.65,-4.68l-62.04 -361.11 -0.13 -0.76c-3.08,-18.57 -13.65,-39.08 -26.63,-53.85 -5.82,-6.64 -12.14,-12.17 -18.5,-15.78l-576.74 -331.89c-8.9,-5 -16.29,-5.39 -21.46,-2.08l-0.02 -0.07 -6.3 4.75 -2.13 1.51z"/>
   <path class="fil13" d="M2757.73 4731.36l2.25 2.39 0.04 0 9.08 5.09 601.87 342.02 9.76 -4.43c-5.82,-6.64 -12.14,-12.17 -18.5,-15.78l-576.74 -331.89c-8.9,-5 -16.29,-5.39 -21.46,-2.08l-0.02 -0.07 -6.3 4.75z"/>
   <path class="fil35" d="M3348.48 5094.22l30.26 56.7 28.75 -19.88 -0.13 -0.76c-3.08,-18.57 -13.65,-39.08 -26.63,-53.85l-32.26 17.79z"/>
   <path class="fil26" d="M2748.72 4762.76l17.38 101.04 44.74 260.83c4.57,26.92 24.78,58.1 45.19,69.63l426.58 242.24 150.15 89.65c16.67,9.44 28.21,2.79 29.4,-14.63 0.21,-2.6 0.14,-5.44 -0.18,-8.56 -0.15,-1.58 -0.39,-3.1 -0.67,-4.75l-62.11 -361.87c-4.57,-26.92 -24.83,-58.08 -45.18,-69.61l-210.71 -120.23 -200.24 -117.99 -0.07 0 -165.72 -93.67c-13.61,-7.67 -23.78,-4.64 -27.72,6.19 -1.94,5.44 -2.3,12.81 -0.85,21.72z"/>
   <path class="fil36" d="M5314.65 3864.85l0 936.69c0,37.32 -13.14,62 -33.1,72.52l-34.02 19.79 3.15 -21.54 6.31 -4.74c-5.26,-2.09 -11.04,-4.21 -16.29,-7.35l-43.08 -24.69 -484.46 -280.07c-49.4,-28.37 -89.33,-104.57 -89.33,-169.71l0 -936.71c0,-9.46 1.57,-18.39 3.15,-26.79l-19.97 -17.35 34.54 -19.26c15.24,-7.87 34.68,-7.36 56.74,4.72l527.57 304.76c24.68,14.19 47.28,40.98 63.06,71.98 15.76,30.49 25.74,65.68 25.74,97.74z"/>
   <path class="fil37" d="M5314.65 3864.85l0 936.69c0,37.32 -13.14,62 -33.1,72.52l-34.02 19.79 3.15 -21.54 6.31 -4.74c-5.26,-2.09 -11.04,-4.21 -16.29,-7.35l-43.08 -24.69 -85.64 -509.17 56.21 -467.99 68.85 -64.11 51.88 -27.15c15.76,30.49 25.74,65.68 25.74,97.74z"/>
   <path class="fil34" d="M5189.15 4889.64l-527.68 -304.65c-49.07,-28.35 -88.86,-104.36 -88.86,-169.8l0 -936.47c0,-65.44 39.79,-95.53 88.86,-67.2l527.68 304.65c49.07,28.33 88.87,104.36 88.87,169.81l0 936.48c0,65.44 -39.81,95.52 -88.87,67.18z"/>
   <path class="fil13" d="M4977.58 4094.1c0,21.76 -15.31,30.64 -34.28,19.69l-63.3 -36.56c-18.96,-10.94 -34.25,-37.49 -34.25,-59.25l0 -72.48c0,-21.76 15.29,-30.64 34.25,-19.68l63.3 36.54c18.97,10.94 34.28,37.5 34.28,59.25l0 72.49zm-13.61 -143.52l-104.63 -60.42c-18.96,-10.94 -34.28,-2.07 -34.28,19.54l0 120.06c0,21.76 15.32,48.31 34.28,59.25l104.63 60.42c18.97,10.94 34.26,2.08 34.26,-19.69l0 -120.06c0,-21.61 -15.29,-48.15 -34.26,-59.1z"/>
   <path class="fil13" d="M4977.58 4371.15c0,21.75 -15.31,30.62 -34.28,19.68l-63.3 -36.54c-18.96,-10.96 -34.25,-37.5 -34.25,-59.26l0 -72.47c0,-21.78 15.29,-30.64 34.25,-19.69l63.3 36.56c18.97,10.94 34.28,37.48 34.28,59.24l0 72.5zm-13.61 -143.53l-104.63 -60.42c-18.96,-10.94 -34.28,-2.07 -34.28,19.56l0 120.06c0,21.76 15.32,48.31 34.28,59.25l104.63 60.4c18.97,10.94 34.26,2.08 34.26,-19.68l0 -120.06c0,-21.63 -15.29,-48.17 -34.26,-59.11z"/>
   <path class="fil13" d="M4977.58 4648.19c0,21.76 -15.31,30.64 -34.28,19.68l-63.3 -36.54c-18.96,-10.96 -34.25,-37.5 -34.25,-59.25l0 -72.48c0,-21.76 15.29,-30.64 34.25,-19.7l63.3 36.56c18.97,10.94 34.28,37.49 34.28,59.24l0 72.5zm-13.61 -143.53l-104.63 -60.4c-18.96,-10.94 -34.28,-2.08 -34.28,19.54l0 120.06c0,21.76 15.32,48.3 34.28,59.25l104.63 60.42c18.97,10.94 34.26,2.07 34.26,-19.68l0 -120.07c0,-21.62 -15.29,-48.17 -34.26,-59.11z"/>
   <path class="fil38" d="M5002.9 3840.19c-9.92,-8.65 -20.06,-7.56 -23.53,1.49l-74.14 187.04 -15.87 -47.33c-4.41,-13.14 -15.1,-25.08 -24.71,-26.61 -11.04,-1.75 -15.96,9.76 -11.03,24.47l42.67 125.89c5.32,15.67 21.24,23.89 25.37,13.13l94.87 -240.76c3.89,-10.13 -2.26,-27.39 -13.64,-37.31z"/>
   <path class="fil15" d="M5278.08 3885.9l0 78.6 -705.47 -407.28 0 -78.59c0,-65.39 39.76,-95.41 88.81,-67.11l527.68 304.63c49.19,28.29 88.98,104.37 88.98,169.76z"/>
   <path class="fil37" d="M4752.16 3629.03l-0.32 -14.54c0,-0.06 0.08,-2.15 0.24,-6.26 -0.44,-1.85 -1.29,-16.43 -2.58,-43.79 -1.32,-27.35 -2.02,-44.01 -2.11,-50l-0.65 -0.36c-8.83,-5.3 -13.22,-9.68 -13.22,-13.25l1.75 -1.86 3.42 0.86 22.17 14.52 2.64 1.44c3.41,1.97 5.11,4.44 5.11,7.43 0,1.54 -0.56,2.43 -1.67,2.74 -1.13,0.3 -2.37,0.06 -3.78,-0.74l-7.49 -5.63 -0.32 1.75c0,11.82 0.9,30.08 2.72,54.74 1.8,24.65 2.72,42.93 2.72,54.85 0,1.47 -0.6,2.42 -1.76,2.87 -1.17,0.46 -2.44,0.28 -3.83,-0.52l-3.03 -4.25z"/>
   <path class="fil37" d="M4784.7 3567.94l-0.79 16.82c0,18.11 1.26,34.65 3.82,49.61 2.72,9.46 5.3,15.57 7.75,18.39 1.94,1.14 3.74,1.26 5.32,0.35 1.61,-0.9 2.86,-2.63 3.81,-5.18 0.92,-2.54 1.72,-5.33 2.35,-8.39 0.6,-3.01 1.04,-6.36 1.36,-10.01 0.52,-6.36 0.81,-11.87 0.81,-16.58 0,-4.7 -0.36,-12.08 -1.07,-22.21 -0.74,-10.13 -1.1,-17.54 -1.1,-22.31l0 -3.32c-0.11,-4.64 -1.4,-9.44 -3.9,-14.46 -2.5,-5 -5.69,-8.63 -9.58,-10.86 -3.71,-2.15 -6.18,-1.17 -7.4,2.94 -1.02,3.44 -1.53,8.1 -1.53,14.03l0.17 11.18zm-9.65 20.04l0.17 -7.06 -0.24 -1.04 0 -3.38c0,-19.65 0.97,-33.07 2.94,-40.22 1.64,-6.08 3.24,-9.5 4.79,-10.22 1.53,-0.78 3.04,-0.71 4.54,0.15 12.65,7.31 21.37,19.65 26.17,37.04 2.75,10.01 4.13,21.19 4.13,33.54l0 1.35 0.33 21.43c0,35.94 -7.26,49.74 -21.79,41.35 -6,-3.46 -10.59,-9.94 -13.78,-19.43 -3.03,-9.06 -4.89,-17.35 -5.58,-24.81 -1.13,-11.33 -1.68,-20.9 -1.68,-28.71z"/>
   <path class="fil37" d="M4858.73 3680.68l0 4.47c9.46,5.47 15.15,-2.21 17.07,-23.08 0.42,-4.82 0.64,-9.59 0.64,-14.28 0,-37.69 -6.33,-61.07 -19,-70.08 -0.79,4.47 -1.2,11.04 -1.2,19.68 0,8.62 0.42,22.37 1.24,41.21 0.83,18.85 1.25,32.87 1.25,42.08zm-11.42 -17.11l0.48 -58.75c0,-4.03 -0.32,-10.35 -0.96,-19.01 -0.64,-8.63 -0.97,-14.06 -0.97,-16.33 0,-2.24 0.63,-3.65 1.83,-4.2 1.24,-0.57 2.54,-0.4 3.93,0.39 11.21,6.49 20.32,19.29 27.36,38.37 4.03,10.97 6.04,21.22 6.04,30.8l-0.3 9.25 0 10.33c0,12.57 -0.49,20.68 -1.47,24.32 -0.99,3.64 -2.02,6.58 -3.08,8.75 -1.06,2.18 -2.33,3.96 -3.82,5.29 -3.46,3 -7.82,4.54 -13.09,4.54l-11.8 -6.82c-2.78,-1.6 -4.15,-10.57 -4.15,-26.93z"/>
   <path class="fil37" d="M4903.87 3636.75l-0.79 16.82c0,18.11 1.26,34.67 3.82,49.61 2.71,9.46 5.31,15.57 7.75,18.39 1.94,1.14 3.74,1.26 5.32,0.33 1.61,-0.89 2.86,-2.63 3.8,-5.17 0.93,-2.56 1.72,-5.33 2.35,-8.4 0.58,-3 1.04,-6.35 1.36,-10 0.53,-6.36 0.81,-11.89 0.81,-16.59 0,-4.69 -0.36,-12.09 -1.1,-22.21 -0.71,-10.12 -1.07,-17.56 -1.07,-22.3l0 -3.32c-0.1,-4.64 -1.42,-9.46 -3.89,-14.46 -2.52,-5 -5.71,-8.62 -9.6,-10.87 -3.69,-2.14 -6.18,-1.17 -7.4,2.96 -1.02,3.43 -1.52,8.1 -1.52,14.03l0.15 11.18zm-9.65 20.04l0.17 -7.06 -0.24 -1.06 0 -3.37c0,-19.65 0.97,-33.07 2.94,-40.22 1.64,-6.07 3.24,-9.48 4.79,-10.22 1.53,-0.76 3.04,-0.7 4.54,0.15 12.67,7.31 21.39,19.65 26.17,37.07 2.76,10 4.14,21.17 4.14,33.52l0 1.35 0.32 21.43c0,35.96 -7.25,49.74 -21.76,41.36 -6.03,-3.47 -10.63,-9.94 -13.81,-19.43 -3.03,-9.06 -4.89,-17.35 -5.58,-24.81 -1.13,-11.33 -1.68,-20.92 -1.68,-28.71z"/>
   <path class="fil37" d="M4975.83 3656.11l0.47 45.32c-0.65,1.35 -0.96,3.29 -0.96,5.86l0 3.75 -0.64 29.47c0,8.6 1.83,13.97 5.5,16.09l6.79 3.62c5.85,3.38 8.76,6.91 8.76,10.56 0,1.36 -0.5,2.18 -1.52,2.46 -1.01,0.3 -2.15,0.18 -3.44,-0.36 -3.97,-3.78 -8.85,-7.32 -14.58,-10.63 -1.76,0.15 -3.44,-0.25 -5.06,-1.18 -1.63,-0.94 -2.89,-2.32 -3.79,-4.1 -0.92,-1.82 -1.37,-3.47 -1.37,-5.02 0,-9.26 0.35,-23.01 1.04,-41.26 0.7,-18.26 1.04,-32.01 1.04,-41.28l0 -1.39c-0.64,-8.17 -0.96,-14.21 -0.96,-18.11 0,-11.86 1.89,-16.67 5.67,-14.5 1.11,0.65 2.1,1.68 2.92,3.07 0.83,1.39 1.22,2.71 1.22,4l-1.09 13.63z"/>
   <path class="fil37" d="M5020.72 3724.79l0.81 40.28 0 5.59 -0.08 5.15 2.15 1.26 4.7 2.52c4.47,2.57 6.71,5.43 6.71,8.53 0,1.59 -0.54,2.64 -1.64,3.14 -1.1,0.5 -2.36,0.33 -3.79,-0.5l-7.18 -4.14c-4.94,-2.86 -8.11,-4.79 -9.48,-5.83l-2 -0.98c-3.88,-2.24 -5.83,-4.75 -5.83,-7.59l0.97 -2.72 1.92 -0.56 4.61 2.67 0.33 -2.28 -1.13 -40.46 0.87 -41.22c0,-7.14 -0.25,-14.02 -0.79,-20.61l-3.1 -1.78 -3.76 -2c-1.58,-0.92 -2.85,-1.99 -3.75,-3.22 -0.9,-1.19 -1.35,-2.79 -1.35,-4.76 0,-2.85 2.69,-2.72 8.06,0.38l19.47 11.24c4.4,2.56 6.61,5.12 6.61,7.74l-1.44 2.39 -3.28 -0.41 -8.36 -4.85c0.42,5.36 0.64,11.29 0.64,17.76l-0.89 35.28z"/>
   <path class="fil37" d="M5043.45 3792.36l6.79 5.32c2.07,1.19 3.88,1.19 5.42,0 1.54,-1.17 2.68,-3.11 3.42,-5.81 1.46,-5.13 2.17,-10.01 2.17,-14.61 0,-4.61 -0.67,-9.58 -1.98,-14.86 -1.35,-5.28 -2.97,-10.42 -4.92,-15.42 -1.93,-4.98 -3.86,-10.04 -5.79,-15.19 -4.57,-12.15 -6.85,-22.81 -6.85,-31.96 0,-5.63 0.82,-10.11 2.48,-13.49 3.07,-6.29 7.15,-7.94 12.28,-5 1.9,1.11 3.72,2.86 5.46,5.26 1.74,2.4 2.6,4.44 2.6,6.07 0,2.89 -1.33,3.53 -3.99,1.98 -1.17,-0.67 -2.32,-1.68 -3.46,-3.06 -3.44,-1.82 -5.78,1.25 -7,9.21 -0.26,1.75 -0.4,3.9 -0.4,6.42 0,2.54 0.47,5.92 1.44,10.22 0.94,4.26 2.17,8.26 3.62,12.02 1.46,3.74 3.03,7.85 4.71,12.32 1.68,4.47 3.26,8.79 4.74,12.97 3.42,9.57 5.08,19.28 5.03,29.07 0.06,7.58 -1.46,13.93 -4.56,19.06 -1.47,2.56 -3.57,4.12 -6.33,4.72 -2.72,0.58 -5.86,-0.11 -9.36,-2.07l0 0.46c-4.47,-3.32 -6.93,-7.15 -7.35,-11.49l1.83 -2.15z"/>
   <path class="fil37" d="M5093.7 3826.24l-0.32 -14.56c0,-0.07 0.09,-2.15 0.24,-6.26 -0.43,-1.85 -1.28,-16.43 -2.59,-43.78 -1.32,-27.36 -2.03,-44.03 -2.11,-50.01l-0.64 -0.38c-8.83,-5.28 -13.24,-9.68 -13.24,-13.22l1.75 -1.87 3.43 0.83 22.17 14.54 2.64 1.43c3.41,1.96 5.11,4.46 5.11,7.43 0,1.53 -0.57,2.44 -1.7,2.75 -1.09,0.31 -2.36,0.04 -3.75,-0.75l-7.49 -5.61 -0.32 1.74c0,11.83 0.9,30.09 2.71,54.74 1.82,24.67 2.71,42.93 2.71,54.85 0,1.46 -0.58,2.41 -1.75,2.87 -1.18,0.46 -2.43,0.28 -3.82,-0.53l-3.04 -4.21z"/>
   <polygon class="fil9" points="3393.89,3952.46 3172.23,3619.46 2950.57,3696.51 2950.55,3696.5 2937.66,3704.1 2950.55,4011.08 3381.02,4274.64 3393.9,4267.06 3393.9,3952.47 "/>
   <polygon class="fil9" points="3381.02,3959.94 3393.89,3952.46 3172.23,3619.46 3159.34,3627.04 "/>
   <polygon class="fil33" points="3381.02,4274.64 2937.66,4018.67 2937.66,3704.08 3381.02,3960.06 "/>
   <polygon class="fil39" points="3159.34,3627.04 2937.66,3704.1 3381.02,3960.07 "/>
   <polygon class="fil39" points="3159.34,4037 3381.02,3959.94 2937.66,3703.97 "/>
   <polygon class="fil40" points="3336.62,3797.37 3336.62,3975.33 3211.76,4018.76 3159.36,4037.01 3106.87,3958.21 2979.22,3766.39 2979.22,3591.03 "/>
   <polygon class="fil9" points="3381.02,4274.68 2937.62,4018.68 3106.79,3958.11 3211.93,4018.81 "/>
   <path class="fil34" d="M3174.69 3834.46c-4.15,-7.39 -7.87,-11.68 -13.68,-15.03 -17.41,-10.06 -20.74,35.38 -20.74,53.22 0,14.28 3.53,22.03 10.56,26.09 8.11,4.67 14.74,-2.93 16.8,-17.43l7.06 -46.86zm1.03 -2.72l3.53 -5.11 22.6 13.06 -6.63 39.47c-1.46,9.15 -2.48,16.65 -2.48,23.79 0,11.89 1.87,19.64 11.82,25.37 10.78,6.24 25.71,-2.51 25.71,-36.32 0,-45.92 -24.26,-88.47 -66.97,-113.14 -39.61,-22.88 -75.07,-10.5 -75.07,46.12 0,58.31 38.97,101.75 75.91,123.06 20.93,12.1 37.32,12.52 48.3,8.15l3.32 6.2c-12.44,6.15 -32.97,2.14 -51.83,-8.75 -42.72,-24.67 -81.5,-72.75 -81.5,-131.06 0,-54.96 33.17,-76.5 82.32,-48.13 41.26,23.83 70.92,68.56 70.92,119 0,40.46 -15.76,50.63 -41.67,35.67 -17.64,-10.18 -24.06,-21.99 -27.17,-32.82 -2.5,6.17 -8.1,11.98 -20.32,4.91 -20.33,-11.74 -30.29,-34.85 -30.29,-53.64 0,-41.87 23.24,-45.61 41.48,-35.07 8.71,5.03 13.28,11.22 18.03,19.22z"/>
   <polygon class="fil41" points="3381.02,4274.68 3393.9,4267.06 3393.89,3952.46 3381.02,3959.94 "/>
   <path class="fil42" d="M5266.29 5524.33l0 34.96 -0.03 0c-0.11,6.79 -5.07,13.94 -14.76,19.53l-401.04 231.54 -3.26 1.87c-17.92,10.35 -44.98,11.46 -60.48,2.51l-0.78 -0.46 -211.22 -121.93c-6.65,-3.86 -10.11,-8.94 -10.42,-14.33l-0.03 0 0 -34.63 39.1 0 247.09 -142.65 32.31 -18.65 100.6 -58.09c17.91,-10.32 44.98,-11.46 60.48,-2.51l104.96 60.6 88.2 50.93 0 -8.69 29.29 0z"/>
   <path class="fil43" d="M5266.29 5524.33l0 34.96 -0.03 0c-0.11,6.79 -5.07,13.94 -14.76,19.53l-401.04 231.54 0 -328.26 298.35 0 88.2 50.93 0 -8.69 29.29 0z"/>
   <path class="fil44" d="M4850.45 5752.2l0 58.15 -3.26 1.87c-17.92,10.35 -44.98,11.46 -60.48,2.51l-0.78 -0.46 0 -62.08 64.53 0z"/>
   <path class="fil45" d="M4786.7 5780.5l-211.99 -122.4c-15.5,-8.93 -13.57,-24.57 4.33,-34.92l404.32 -233.42c17.89,-10.33 44.97,-11.47 60.47,-2.52l211.99 122.39c15.5,8.94 13.57,24.58 -4.35,34.92l-404.3 233.43c-17.91,10.33 -44.97,11.46 -60.47,2.52z"/>
   <polygon class="fil43" points="4855.09,5741.09 4642.94,5618.61 4994.8,5415.45 5206.95,5537.95 "/>
   <polygon class="fil9" points="4650.89,5618.61 4994.8,5420.04 5199.01,5537.95 4855.11,5736.51 "/>
   <path class="fil46" d="M5152.11 5487.51c-1.79,0 -3.5,-0.36 -4.76,-1.09l-47.48 -27.42c-2.82,-1.63 -2.47,-4.46 0.78,-6.33 1.78,-1.03 4.06,-1.56 6.21,-1.56 1.79,0 3.5,0.36 4.76,1.1l47.49 27.42c2.82,1.62 2.46,4.46 -0.78,6.33 -1.79,1.03 -4.06,1.56 -6.21,1.56z"/>
   <path class="fil42" d="M5154.59 5476.95l0 4.22c-0.14,1.15 -1,2.37 -2.67,3.32 -2.28,1.33 -5.37,1.83 -8,1.44l-2.98 -0.99 -47.47 -27.42 -1.87 -2.62 -0.03 -4.1 3.01 0.24c3.22,-1.71 7.92,-1.87 10.64,-0.29l40.22 23.21 6.64 3.85 0.13 -0.86 2.39 0z"/>
   <path class="fil43" d="M5154.59 5476.95l0 4.22c-0.14,1.15 -1,2.37 -2.67,3.32 -2.28,1.33 -5.37,1.83 -8,1.44l0 -11.97 1.52 0 6.64 3.85 0.13 -0.86 2.39 0z"/>
   <path class="fil13" d="M5140.94 5481l-47.47 -27.42c-2.82,-1.63 -2.47,-4.47 0.78,-6.35 3.25,-1.86 8.17,-2.07 10.97,-0.44l47.49 27.42c2.8,1.63 2.46,4.46 -0.78,6.33 -3.26,1.88 -8.17,2.07 -10.98,0.46z"/>
   <path class="fil47" d="M4695.31 5755.97l-27.79 -16.04c-3.19,-1.85 -5.78,-6.79 -5.78,-11.04l0 -0.39c0,-4.24 2.59,-6.19 5.78,-4.36l27.79 16.04c3.18,1.85 5.76,6.79 5.76,11.04l0 0.39c0,4.24 -2.58,6.2 -5.76,4.36z"/>
   <path class="fil45" d="M4699.02 5754.4l-27.79 -16.06c-3.18,-1.83 -5.78,-6.78 -5.78,-11.03l0 -0.37c0,-1.37 0.31,-2.5 0.78,-3.33 -2.57,-0.71 -4.49,1.24 -4.49,4.89l0 0.39c0,4.25 2.59,9.19 5.78,11.04l27.79 16.04c2.14,1.24 4,0.72 5,-1.04l-1.29 -0.53z"/>
   <path class="fil46" d="M4738.02 5731.45c-3.04,0 -5.96,-0.61 -8.13,-1.86l-53.72 -31.03c-4.79,-2.76 -4.2,-7.61 1.33,-10.8l8.71 -5.03c3.03,-1.75 6.91,-2.65 10.57,-2.65 3.06,0 5.96,0.61 8.14,1.87l53.72 31.01c4.79,2.78 4.19,7.6 -1.33,10.81l-8.72 5.03c-3.02,1.74 -6.91,2.64 -10.57,2.64z"/>
   <path class="fil42" d="M4755.52 5711.33l0 4.68 -0.06 0.03c0.08,2.14 -1.43,4.44 -4.52,6.25l-8.71 5.03c-2.91,1.69 -6.62,2.6 -10.17,2.63 -3.17,0.08 -6.25,-0.53 -8.51,-1.86l-53.75 -31c-2.15,-1.25 -3.15,-2.89 -3.18,-4.64l-0.06 0 0 -4.76 1.99 0.61 2.59 -2.02 8.71 -5.03c5.53,-3.19 13.92,-3.56 18.71,-0.78l39.63 22.87 14.08 8.15 1.61 1.19 1.63 -1.36z"/>
   <path class="fil43" d="M4755.52 5711.33l0 4.68 -0.06 0.03c0.08,2.14 -1.43,4.44 -4.52,6.25l-8.71 5.03c-2.91,1.69 -6.62,2.6 -10.17,2.63l0 -26.6 6.13 0 14.08 8.15 1.61 1.19 1.63 -1.36z"/>
   <path class="fil42" d="M4723.55 5723.37l-53.72 -31.01c-4.81,-2.76 -4.2,-7.61 1.33,-10.79l8.71 -5.04c5.54,-3.18 13.9,-3.54 18.7,-0.76l53.73 31.01c4.8,2.76 4.2,7.61 -1.35,10.8l-8.69 5.04c-5.54,3.18 -13.92,3.54 -18.71,0.76z"/>
   <path class="fil13" d="M4722.59 5721.57l-49.65 -28.67c-4.42,-2.56 -3.86,-7.03 1.25,-9.97l8.04 -4.65c5.11,-2.96 12.86,-3.26 17.28,-0.72l49.67 28.68c4.43,2.56 3.87,7.03 -1.25,9.97l-8.04 4.65c-5.13,2.96 -12.85,3.26 -17.29,0.71z"/>
   <path class="fil45" d="M4871.66 5519.12l-12.9 7.64 -2.19 0.9 -1.09 0.63 -8.87 4.89c-2.5,1.43 -3.17,2.48 -1.92,3.21l2.36 1.26c1.94,1.12 2.42,2 1.36,2.62l-1.49 0.25 -1.63 -0.37c-0.9,-1.02 -2.33,-2.08 -4.23,-3.21l-2.22 -0.68 -0.69 -1.06 0.76 -0.96c2.69,-1.56 6.89,-3.82 12.5,-6.82 5.64,-2.98 9.79,-5.26 12.48,-6.8l0.43 -0.25c2.04,-1.4 3.62,-2.47 4.76,-3.13 3.43,-1.97 5.79,-2.59 7.04,-1.87l0.58 0.79 -0.54 0.81 -4.52 2.15z"/>
   <path class="fil45" d="M4877.2 5529.76l-5.31 2.75c-5.25,3.04 -9.37,5.94 -12.46,8.68 -1.39,1.85 -1.87,3.11 -1.43,3.83l2.59 0.57 3.41 -0.5 3.64 -1.18 3.57 -1.56c2.11,-1 3.83,-1.91 5.2,-2.67 1.36,-0.8 3.36,-2.09 5.92,-3.86 2.58,-1.76 4.58,-3.02 5.96,-3.83l0.96 -0.54c1.29,-0.78 2.02,-1.72 2.2,-2.82 0.19,-1.07 -0.33,-1.97 -1.64,-2.74 -1.25,-0.71 -2.78,-0.79 -4.59,-0.22 -1.52,0.46 -3.11,1.21 -4.85,2.19l-3.15 1.89zm-10.68 2.43l2.14 -1.17 0.2 -0.19 0.97 -0.57c5.7,-3.28 10.11,-5.44 13.19,-6.44 2.58,-0.86 4.36,-1.28 5.35,-1.26l2.24 0.48c4.22,2.43 5.06,5.35 2.39,8.72 -1.5,1.94 -4.06,3.94 -7.64,6.01l-0.39 0.24 -6.07 3.61c-10.43,6.03 -18.07,7.64 -22.92,4.83 -2.03,-1.17 -2.47,-2.69 -1.32,-4.59 1.13,-1.79 2.6,-3.36 4.41,-4.71 2.7,-1.99 5.19,-3.65 7.46,-4.96z"/>
   <path class="fil45" d="M4904.84 5533.97l-0.94 0.35c-1.48,0.85 -3.6,2.11 -6.37,3.76 -2.69,1.68 -4.71,2.87 -5.97,3.61 1.26,0.22 3.1,-0.06 5.53,-0.8 2.39,-0.76 4.06,-1.47 5.06,-2.04l2.13 -1.29 1.21 -1.11 -0.63 -2.47zm-16.22 9.13l-5.97 3.37c-4.79,2.76 -8.2,5.15 -10.29,7.15l-2.1 0.47 -1.49 -0.88 0.09 -0.86c1.67,-0.94 3.48,-1.97 5.5,-3.15 2.04,-1.18 6.22,-3.75 12.57,-7.75 6.32,-4.04 11.08,-6.98 14.39,-8.87 1.71,-1 3.18,-1.14 4.39,-0.43 1.9,1.09 3.01,2.3 3.32,3.61 0.36,1.33 -0.44,2.53 -2.31,3.58l-3.82 2.21c-1.03,0.6 -2.15,1.06 -3.43,1.33 -1.25,0.26 -2.64,0.5 -4.07,0.76 -1.47,0.25 -2.29,0.37 -2.44,0.43 -0.69,0.61 -2.07,1.82 -4.17,3.58 -4.57,3.89 -7.43,6.93 -8.63,9.11l-1.08 1.28 -1.37 0.37 -1.28 -0.25c-0.79,-0.44 -0.59,-1.39 0.41,-2.81 1.04,-1.4 2.4,-2.83 4.11,-4.32 5.18,-4.52 8,-7.03 8.32,-7.58l-0.64 -0.37z"/>
   <path class="fil45" d="M4909.19 5544.3l4.31 -2.82c2.56,-1.48 4.57,-1.79 6.1,-0.91l3.35 2.72c1.29,1.24 1.54,2.06 0.82,2.47 -0.74,0.43 -1.85,0.43 -3.32,0.06 -1.08,-1.32 -2.14,-2.31 -3.1,-3l-2.25 1.4 -8.07 4.36 -0.67 0.58 2.01 1.07c1.76,1.04 2.15,1.8 1.14,2.4l-1.48 0.31 -1.63 -0.44 -1.5 -0.97 -1.37 -0.79c-1.28,0.85 -2.63,1.67 -3.99,2.44l-10.07 5.56c-2.04,1.18 -3.04,1.78 -2.97,1.82l4.18 2.26c1.39,0.79 1.64,1.44 0.76,1.94l-1.93 0.29 -1.98 -0.72 -4.61 -2.65 -0.82 -1.06 0.56 -1.03 1.42 -0.83 8.86 -5.52 16.26 -8.94z"/>
   <path class="fil45" d="M4914.16 5578.24l6.99 -4c1.64,-0.93 3.85,-2.37 6.68,-4.33 2.87,-1.93 4.82,-3.25 5.89,-3.88 1.08,-0.62 2.43,-1.32 4,-2.15 1.58,-0.83 2.72,-1.46 3.47,-1.88 -0.65,0.18 -3.76,1.28 -9.36,3.26 -14.53,5.17 -22.35,7.42 -23.56,6.72l-1.01 -1.35 1.1 -1.32c1.72,-1 4.56,-3.44 8.57,-7.32 4,-3.87 6.96,-6.89 8.82,-9.09 -13.46,7 -22.44,11.78 -26.94,14.37l-1.54 0.97 -1.74 0.54 -1.64 -0.41 -0.89 -0.96 0.37 -0.82c3.71,-2.14 9.53,-5.2 17.46,-9.13 7.94,-3.94 13.79,-6.97 17.5,-9.1l0.79 -0.86 1.58 -0.15 1.82 0.65c0.76,0.46 -1.35,3.44 -6.28,9 -4.97,5.53 -8.62,9.28 -10.89,11.2 0.74,-0.21 2.39,-0.78 5.04,-1.74 2.67,-0.94 5.42,-1.94 8.33,-2.94 2.93,-1.02 5.87,-2.02 8.94,-2.98 6.97,-2.26 10.97,-3.1 12.04,-2.47l0.97 1 -0.46 1c-2.6,1.53 -6.39,3.85 -11.39,6.97 -4.96,3.14 -8.61,5.4 -10.97,6.76l-5.85 3.24 -0.03 0.01c-0.4,0.25 -1.64,1.04 -3.57,2.42l-0.94 0.69 -1.01 0.83 -1.89 0.51 -2.13 -0.35c-1.14,-0.67 -0.56,-1.65 1.71,-2.94z"/>
   <path class="fil45" d="M4950.61 5579.07l-11.28 6.82 -1.63 0.93 -1.56 0.85 0.74 0.42 1.64 0.89c1.47,0.83 1.78,1.56 0.87,2.07l-1.72 0.36 -1.74 -0.44 -2.39 -1.37c-1.69,-0.98 -2.69,-1.61 -3.1,-1.9l-0.75 -0.39c-1.28,-0.71 -1.53,-1.33 -0.71,-1.81l1.26 -0.37 1.11 0.1 1.56 0.9 0.87 -0.35 11.14 -6.89 12.4 -6.82c2.07,-1.21 3.94,-2.37 5.6,-3.54l-1.07 -0.61 -1.32 -0.69 -0.93 -0.89 0.69 -0.94c0.85,-0.48 2.15,-0.18 3.92,0.86l6.54 3.76c1.49,0.85 1.85,1.5 1.1,1.94l-1.43 0.26 -1.53 -0.4 -2.78 -1.61c-1.39,0.93 -2.94,1.94 -4.83,3.03l-10.69 5.85z"/>
   <path class="fil45" d="M4942.44 5592.55l1.87 1.57 2.74 0.53 3.4 -0.65c2.21,-0.71 4,-1.47 5.33,-2.22 1.33,-0.79 2.42,-1.68 3.32,-2.69l1.97 -3.06 1.53 -3.11c1.18,-2.47 3.18,-4.47 5.82,-6.02 1.63,-0.93 3.35,-1.63 5.13,-2.03 3.42,-0.74 5.9,-0.63 7.64,0.33l1.22 1.43 -0.47 1.26 -2.56 -0.03 -0.82 -0.86c-1.25,-0.64 -3.32,-0.35 -6.25,0.88l-2.03 1.03 -2.25 1.85 -1.69 2.37 -1.18 2.5 -1.37 2.64c-1.07,1.93 -3.02,3.74 -5.92,5.36 -2.14,1.28 -4.76,2.21 -7.8,2.74 -1.47,0.31 -3.02,0.35 -4.57,0.17 -1.54,-0.12 -2.92,-0.57 -4.1,-1.22l-0.13 0.06c-1.28,-0.97 -1.46,-1.85 -0.37,-2.63l1.54 -0.19z"/>
   <path class="fil45" d="M4984.72 5585.41l-10.53 6.18 -0.08 0.03c2.46,1.11 6.64,-0.03 12.47,-3.41 1.71,-0.98 2.65,-1.79 2.86,-2.39l-1.18 -1.82 -0.47 -0.37 -3.07 1.78zm-8.85 1.94l5.26 -2.94c2.21,-1.26 3.74,-2.33 4.58,-3.15 1.54,-0.6 2.68,-0.68 3.42,-0.26l2.39 1.39c2.14,1.22 2.71,2.57 1.82,4.07 -0.79,1.32 -2.18,2.56 -4.18,3.71 -2.53,1.46 -4.15,2.32 -4.83,2.58l-2.04 0.72 -1.78 0.4 -1.8 0.18 -2.07 -0.08c-1.5,-0.2 -3.08,-0.54 -4.82,-1.06l-5.82 3.36 -9.85 6.21 -1.68 0.33 -1.75 -0.5 -0.48 -1.03c1.56,-1.42 4.01,-3.07 7.33,-5l9.91 -5.48 0.97 -0.94 0.18 -0.1c1.11,-0.21 2.85,-1 5.24,-2.4z"/>
   <path class="fil45" d="M5002.23 5601.73l-0.85 0.58c-16.1,9.29 -26.5,12.57 -31.21,9.86 -1.82,-1.06 -2.43,-2.25 -1.82,-3.61 0.62,-1.39 1.56,-2.61 2.89,-3.57 1.99,-1.52 4.49,-3.15 7.43,-4.93 2.97,-1.75 7.29,-4.26 12.94,-7.54l7.56 -4.63 2.29 0.02 0.15 1.25 -1.59 1.53 -14.78 8.54c-1.29,0.75 -3.13,1.93 -5.39,3.56 -2.3,1.6 -4.1,2.78 -5.39,3.53 -2.65,1.54 -2.85,2.97 -0.53,4.31 2.61,1.51 13.68,-3.38 33.17,-14.64l3.07 -1.76 0.86 -0.54 1.22 -0.37 1.41 0.43 0.87 0.76 -0.18 0.68 -1.48 1.14 -5.85 2.93 -4.8 2.49z"/>
   <path class="fil45" d="M5002.72 5629.37l6.97 -3.98c1.64,-0.94 3.89,-2.38 6.74,-4.32 2.83,-1.97 4.79,-3.25 5.89,-3.88 1.07,-0.62 2.39,-1.36 3.96,-2.17 1.57,-0.83 2.75,-1.44 3.5,-1.87 -0.68,0.17 -3.8,1.26 -9.39,3.25 -14.53,5.17 -22.35,7.39 -23.53,6.71l-1.06 -1.32 1.13 -1.32c1.72,-1 4.57,-3.43 8.56,-7.32 4,-3.89 6.96,-6.91 8.82,-9.1 -13.46,6.96 -22.46,11.76 -26.96,14.36l-1.5 0.98 -1.76 0.56 -1.61 -0.42 -0.93 -0.97 0.42 -0.82c3.71,-2.12 9.5,-5.18 17.46,-9.11 7.9,-3.96 13.76,-6.97 17.47,-9.11l0.82 -0.85 1.58 -0.15 1.79 0.65c0.79,0.44 -1.32,3.43 -6.28,9 -4.98,5.54 -8.61,9.25 -10.89,11.19 0.72,-0.22 2.39,-0.8 5.07,-1.74 2.64,-0.94 5.39,-1.94 8.29,-2.94 2.93,-1.01 5.88,-2.04 8.94,-3.01 6.99,-2.25 11.02,-3.08 12.08,-2.46l0.97 1 -0.46 1.02c-2.6,1.51 -6.42,3.83 -11.42,6.97 -4.96,3.14 -8.58,5.39 -10.94,6.75l-5.89 3.25 -0.02 0.01c-0.42,0.24 -1.61,1.03 -3.57,2.41l-0.94 0.68 -1.01 0.86 -1.86 0.5 -2.13 -0.35c-1.14,-0.65 -0.58,-1.64 1.68,-2.94z"/>
   <path class="fil13" d="M5083.18 5552.48c-31.81,18.36 -83.53,18.26 -115.53,-0.22 -32.02,-18.47 -32.17,-48.33 -0.36,-66.69 31.81,-18.36 83.51,-18.26 115.53,0.2 32.02,18.47 32.15,48.33 0.36,66.71z"/>
   <path class="fil16" d="M4998.27 5563.44c-3.64,-0.71 -7.08,-1.6 -10.57,-2.63 -7.18,-2.17 -13.96,-5.03 -20.04,-8.54 -4.36,-2.51 -8.11,-5.2 -11.3,-8.09l-3.5 -3.54c2.51,0.2 5.19,0.17 7.82,0.06 1.42,-0.07 2.78,-0.15 4.14,-0.29 2.28,-0.19 4.48,-0.56 6.52,-1.18 4.83,-1.51 7.29,-3.8 9.5,-6.54 2.12,-2.57 3.93,-2.68 5.7,0.26 3.68,5.96 10.11,10.9 21.3,12.65l-1.92 1.04c-1.82,1.04 -2.97,2.35 -3.97,3.68 -3.06,4.11 -4.25,8.65 -3.67,13.13z"/>
   <path class="fil18" d="M5031.34 5493.5c-10.07,-0.36 -19.82,1.86 -27.63,6.01 -4.12,2.2 -8.09,4.53 -11.26,7.22 -5.19,4.42 -7.94,9.63 -10.64,14.74 -2.02,3.82 -4.03,7.72 -3.53,11.69 0.87,7.02 10.81,13.47 22.9,14.33 7.57,0.56 15.08,-0.92 22.15,-2.53 14,-3.24 28.15,-7.14 37.74,-14.1 8.9,-6.47 10.6,-14.44 4.96,-22.08 -4.36,-5.92 -12.39,-11.02 -22.57,-13.58 -4.03,-1.02 -8.1,-1.57 -12.13,-1.71z"/>
   <path class="fil48" d="M4976.01 5538.31c-5.24,2.43 -12.98,4.74 -19.86,3.61 -3.94,-0.64 -4.78,-2.87 -6.2,-4.83 -2.3,-3.14 -4,-6.43 -5.08,-9.78 -1.08,-3.42 -1.5,-6.89 -1.26,-10.35 0.1,-1.72 0.39,-3.46 0.83,-5.17l1.61 -4.61c2.17,-0.5 4.29,-0.9 6.4,-1.19 9.14,-1.29 19.94,-1.28 28.42,-3.78 8.63,-2.5 13.71,-7.72 21.06,-11.26 11.37,-5.47 28.6,-6.39 41.65,-2.28 3.44,1.04 6.67,2.51 8.71,4.43 2.39,2.37 3.96,3.7 8.21,4.86 10.17,2.79 19.22,7.21 24.32,12.98 5.18,5.79 5.92,12.97 0.75,18.7 -5.72,6.35 -17.57,10.04 -29.54,11.9 -9.33,1.47 -16.69,3.74 -17.67,9.92 -0.53,3.58 0.65,7.24 -0.64,10.74 -0.5,1.28 -1.36,2.53 -2.46,3.68 -12.42,0.8 -25.1,-0.02 -36.99,-2.44 -3.64,-0.71 -7.08,-1.6 -10.57,-2.63 1.56,-3.53 5.82,-6.81 9.75,-9.65 2.41,-1.75 5.33,-3.25 8.46,-4.53 5.74,-2.39 12.44,-4.15 19.06,-5.68 16.54,-3.76 39.25,-7.93 42.98,-19.56 1.79,-5.42 -1.22,-11.28 -7.4,-15.56 -2.31,-1.54 -5.08,-2.93 -8.36,-3.48 -5,-0.85 -7.47,0.69 -11.35,2 -2.28,0.72 -4.96,1.28 -7.63,1.64 -2.97,0.43 -6.01,0.72 -8.89,0.92 -10.74,0.75 -24.35,-1.72 -33.13,3.17 -4.14,2.31 -6.54,5.53 -7.33,8.82 -0.72,3.03 -0.15,6.13 -0.28,9.2 -0.15,4.19 -1.83,7.57 -7.59,10.22z"/>
   <path class="fil49" d="M4764.39 5629.91c-15.43,8.9 -40.54,8.86 -56.09,-0.1 -15.53,-8.98 -15.61,-23.46 -0.18,-32.37 15.44,-8.92 40.54,-8.87 56.09,0.09 15.53,8.96 15.61,23.46 0.17,32.38z"/>
   <path class="fil45" d="M4747.24 5604.79l2.07 -0.78 2.47 -7.08 -1.37 -1.19 -10.78 -1.29 0 0.01 -0.13 -0.03c-2.91,-0.35 -5.76,0.28 -7.59,1.47l0 -0.03c0,0 -20.38,12.39 -11.74,32.85l0.01 -0.01c0.72,1.67 3.04,3.06 6.17,3.42l0.28 0.03 10.63 1.28 2.07 -0.79 2.46 -7.08 -1.36 -1.19 -7.35 -0.88c-1.36,-0.17 -2.26,-0.94 -1.98,-1.74l5.82 -16.68c0.28,-0.81 1.62,-1.32 3.01,-1.15l7.32 0.87z"/>
   <path class="fil50" d="M4883.43 5702.81c-15.44,8.9 -40.54,8.86 -56.08,-0.11 -15.53,-8.96 -15.61,-23.46 -0.17,-32.37 15.43,-8.92 40.54,-8.88 56.07,0.11 15.53,8.96 15.61,23.44 0.18,32.37z"/>
   <path class="fil45" d="M4861.61 5698.23l0 1.42 8.9 5.12 2.47 0.02 7.74 -4.47 0 -0.01 0.06 -0.03c2.13,-1.22 2.81,-2.94 2.09,-4.48l0.03 0.02c0,0 -6.81,-16.72 -41.07,-23.93l0.02 0c-2.82,-0.57 -6.07,-0.21 -8.31,1.08l-0.18 0.11 -7.65 4.43 0 1.42 8.89 5.12 2.49 0.02 5.28 -3.04 3.6 0 20.93 12.1 0.02 2.07 -5.28 3.06z"/>
   <path class="fil9" d="M5866.97 5429.48l-78.61 77.99 -11.93 -1.68 -41.18 -5.92 -26.24 -3.76 -63.97 -55.25 -1.2 -1.29 -59.43 -63.43c0,0 -30,-73.26 -30,-75.97 0,-1.61 5.76,-21.04 10.17,-35.76 2.8,-9.35 5.12,-16.86 5.12,-16.86l19.99 -77.35 93.43 -11.83c-4.42,9.28 -7.21,20.24 -8.5,32.79 -7.01,70.78 40.17,165.22 105.28,210.92 30.3,21.18 59.09,28.22 81.97,22.56l5.11 4.86z"/>
   <polygon class="fil9" points="5616.45,5585.19 5708.29,5532.19 5747.97,5484.59 5656.09,5537.57 "/>
   <polygon class="fil9" points="5421.91,5208.24 5513.77,5155.23 5582,5160.43 5490.13,5213.39 "/>
   <path class="fil9" d="M5747.72 5011.67l-91.8 53.04 -65.52 1.35 -32.39 0.64 24.15 -13.92 67.65 -39.11c27.28,-13.04 60.96,-14.07 97.9,-2z"/>
   <path class="fil49" d="M5976.23 5499c-14.32,20.71 -33.52,34.63 -56.31,41.26l-62.39 38.94 -5.04 4.25 -13.52 11.28 -10.87 -1.53 21.76 -15.9 34.46 -25.3 91.9 -53.01z"/>
   <path class="fil49" d="M6003.19 5408.61l-91.83 52.96 -8.94 -72.15 -4.25 -33.75 13.11 -7.59 78.71 -45.35c10.09,36.39 14.89,72.38 13.21,105.89z"/>
   <path class="fil9" d="M5936.57 5180.19l-65.03 37.5 -26.87 15.52 -91.42 -110.28 0.24 -0.17 91.59 -52.86c35.03,30.54 66.2,68.7 91.5,110.29z"/>
   <polygon class="fil9" points="5848.79,5683.8 5940.66,5630.8 5919.94,5540.24 5828.08,5593.23 "/>
   <path class="fil33" d="M5688.05 5455.07c-65.15,-45.7 -112.32,-140.14 -105.28,-210.92 7.04,-70.7 65.63,-90.99 130.78,-45.29 65.22,45.75 112.37,140.17 105.33,210.87 -7.04,70.78 -65.63,91.07 -130.83,45.33zm196.32 96.94l70.89 51.52 20.36 -72.71 -64.28 -69.21c1.65,-33.48 -3.15,-69.54 -13.21,-105.9l52.29 -24.31 -42.92 -97.28 -62.8 -0.92c-25.25,-41.67 -56.46,-79.81 -91.49,-110.31l-11.93 -93.39 -76.37 -42.66 -9.04 77.81c-36.96,-12.08 -70.64,-11.04 -97.86,1.99l-65.79 -74.84 -42.79 47.9 54.24 87.63c-6.21,15.25 -10.47,32.82 -12.44,52.61 -1.08,10.86 -1.39,22.04 -1.08,33.44l-68.22 -5.14 20.51 96.28 73.26 31.21c13.28,35.6 31.25,70.68 52.85,103.17l-21.43 69.53 69.35 76.76 39.64 -47.62c7.2,5.94 14.57,11.58 22.06,16.85 21.08,14.78 41.75,25.62 61.57,32.8l39.79 93.44 69.28 3.14 -20.71 -90.57c22.76,-6.64 42.03,-20.53 56.29,-41.22z"/>
   <polygon class="fil9" points="5833.13,4976.53 5741.29,5029.51 5664.91,4986.85 5756.77,4933.86 "/>
   <polygon class="fil9" points="5907.51,5234.12 5999.36,5181.13 6042.27,5278.41 5950.43,5331.4 "/>
   <polygon class="fil9" points="5975.62,5530.81 6067.5,5477.84 6003.2,5408.61 5911.34,5461.61 "/>
   <polygon class="fil49" points="5753.22,5122.9 5741.29,5029.51 5833.13,4976.53 5845.07,5069.91 "/>
   <polygon class="fil49" points="5907.51,5234.12 5999.36,5181.13 5936.55,5180.22 5844.7,5233.2 "/>
   <polygon class="fil49" points="5975.62,5530.81 6067.5,5477.84 6047.09,5550.58 5955.26,5603.52 "/>
   <polygon class="fil49" points="5558.01,5066.65 5492.22,4991.81 5584.08,4938.81 5649.81,5013.67 "/>
   <path class="fil36" d="M6171.36 5295.84l-51.92 51.5 -7.87 -1.11 -27.2 -3.9 -17.32 -2.49 -42.25 -36.5 -0.78 -0.83 -39.25 -41.89c0,0 -19.79,-48.36 -19.79,-50.15 0,-1.07 3.79,-13.89 6.7,-23.63 1.85,-6.17 3.37,-11.13 3.37,-11.13l13.21 -51.08 61.68 -7.82c-2.91,6.14 -4.75,13.36 -5.58,21.67 -4.65,46.72 26.5,109.1 69.48,139.25 20.02,14 39.03,18.64 54.13,14.9l3.39 3.21z"/>
   <polygon class="fil36" points="6005.94,5398.65 6066.58,5363.66 6092.77,5332.23 6032.12,5367.22 "/>
   <polygon class="fil36" points="5877.48,5149.77 5938.15,5114.76 5983.19,5118.19 5922.54,5153.16 "/>
   <path class="fil36" d="M6092.61 5019.97l-60.61 35.01 -43.25 0.91 -21.39 0.42 15.94 -9.18 44.68 -25.82c18,-8.62 40.24,-9.29 64.63,-1.33z"/>
   <path class="fil37" d="M6243.48 5341.74c-9.44,13.67 -22.11,22.86 -37.17,27.25l-41.19 25.71 -3.32 2.8 -8.93 7.46 -7.19 -1.02 14.37 -10.51 22.76 -16.7 60.67 -35z"/>
   <path class="fil37" d="M6261.29 5282.07l-60.63 34.96 -5.9 -47.63 -2.82 -22.29 8.67 -5.01 51.97 -29.94c6.65,24.03 9.82,47.79 8.71,69.92z"/>
   <path class="fil36" d="M6217.3 5131.24l-42.93 24.76 -17.75 10.25 -60.36 -72.83 0.17 -0.09 60.46 -34.92c23.12,20.18 43.72,45.37 60.41,72.83z"/>
   <polygon class="fil36" points="6159.36,5463.77 6220,5428.77 6206.33,5368.98 6145.68,5403.97 "/>
   <path class="fil34" d="M6053.2 5312.73c-43.02,-30.17 -74.15,-92.52 -69.5,-139.25 4.65,-46.69 43.32,-60.08 86.35,-29.91 43.07,30.2 74.19,92.56 69.56,139.25 -4.65,46.72 -43.33,60.13 -86.4,29.92zm129.63 64.01l46.82 34.02 13.44 -48.02 -42.44 -45.69c1.09,-22.1 -2.08,-45.92 -8.72,-69.93l34.53 -16.04 -28.33 -64.22 -41.49 -0.61c-16.67,-27.5 -37.26,-52.69 -60.4,-72.83l-7.87 -61.67 -50.41 -28.16 -5.98 51.37c-24.4,-7.97 -46.64,-7.28 -64.61,1.33l-43.44 -49.43 -28.26 31.63 35.82 57.85c-4.1,10.06 -6.9,21.65 -8.21,34.74 -0.72,7.17 -0.93,14.56 -0.72,22.08l-45.06 -3.39 13.54 63.57 48.39 20.6c8.76,23.5 20.62,46.67 34.89,68.13l-14.15 45.9 45.79 50.68 26.18 -31.43c4.75,3.93 9.61,7.65 14.56,11.13 13.92,9.75 27.57,16.92 40.65,21.65l26.28 61.69 45.75 2.08 -13.68 -59.8c15.01,-4.39 27.74,-13.56 37.15,-27.22z"/>
   <polygon class="fil36" points="6149.02,4996.78 6088.36,5031.74 6037.95,5003.58 6098.59,4968.61 "/>
   <polygon class="fil36" points="6198.12,5166.86 6258.77,5131.87 6287.09,5196.09 6226.45,5231.08 "/>
   <polygon class="fil36" points="6243.09,5362.74 6303.74,5327.77 6261.3,5282.07 6200.65,5317.05 "/>
   <polygon class="fil37" points="6096.23,5093.41 6088.36,5031.74 6149.02,4996.78 6156.89,5058.43 "/>
   <polygon class="fil37" points="6198.12,5166.86 6258.77,5131.87 6217.3,5131.26 6156.63,5166.24 "/>
   <polygon class="fil37" points="6243.09,5362.74 6303.74,5327.77 6290.29,5375.8 6229.65,5410.76 "/>
   <polygon class="fil37" points="5967.36,5056.29 5923.91,5006.86 5984.57,4971.86 6027.98,5021.3 "/>
   <path class="fil51" d="M2339.77 7525.72c0,39.63 -32.11,71.76 -71.75,71.76 -39.64,0 -71.76,-32.14 -71.76,-71.76 0,-39.64 32.13,-71.76 71.76,-71.76 39.64,0 71.75,32.13 71.75,71.76z"/>
  </g>
 </g>
</svg>
