<?xml version="1.0" encoding="UTF-8"?>
<!DOCTYPE svg PUBLIC "-//W3C//DTD SVG 1.1//EN" "http://www.w3.org/Graphics/SVG/1.1/DTD/svg11.dtd">
<!-- Creator: CorelDRAW 2020 (64-Bit) -->
<svg xmlns="http://www.w3.org/2000/svg" xml:space="preserve" width="4.10748in" height="4.23924in" version="1.1" style="shape-rendering:geometricPrecision; text-rendering:geometricPrecision; image-rendering:optimizeQuality; fill-rule:evenodd; clip-rule:evenodd"
viewBox="0 0 4107.49 4239.24"
 xmlns:xlink="http://www.w3.org/1999/xlink"
 xmlns:xodm="http://www.corel.com/coreldraw/odm/2003">
 <defs>
  <style type="text/css">
   <![CDATA[
    .fil4 {fill:#69CAF3;fill-rule:nonzero}
    .fil8 {fill:#53C1EF;fill-rule:nonzero}
    .fil3 {fill:#53C1EF;fill-rule:nonzero}
    .fil7 {fill:#32ADE3;fill-rule:nonzero}
    .fil1 {fill:#32ADE3;fill-rule:nonzero}
    .fil2 {fill:#0098DA;fill-rule:nonzero}
    .fil29 {fill:#1A1A1A;fill-rule:nonzero}
    .fil49 {fill:#1E5E7A;fill-rule:nonzero}
    .fil39 {fill:#214C7F;fill-rule:nonzero}
    .fil32 {fill:#234B7F;fill-rule:nonzero}
    .fil0 {fill:#292929;fill-rule:nonzero}
    .fil33 {fill:#29A7B5;fill-rule:nonzero}
    .fil21 {fill:#303030;fill-rule:nonzero}
    .fil41 {fill:#334654;fill-rule:nonzero}
    .fil5 {fill:#3E1839;fill-rule:nonzero}
    .fil24 {fill:#404040;fill-rule:nonzero}
    .fil30 {fill:#4D4D4D;fill-rule:nonzero}
    .fil14 {fill:#522A4D;fill-rule:nonzero}
    .fil23 {fill:#666666;fill-rule:nonzero}
    .fil27 {fill:gray;fill-rule:nonzero}
    .fil48 {fill:#815076;fill-rule:nonzero}
    .fil28 {fill:#999999;fill-rule:nonzero}
    .fil20 {fill:#A8958C;fill-rule:nonzero}
    .fil9 {fill:#ADD5D6;fill-rule:nonzero}
    .fil47 {fill:#BA5720;fill-rule:nonzero}
    .fil43 {fill:#C7784C;fill-rule:nonzero}
    .fil25 {fill:#CCCCCC;fill-rule:nonzero}
    .fil11 {fill:#CDB0A2;fill-rule:nonzero}
    .fil26 {fill:#D1C7C2;fill-rule:nonzero}
    .fil50 {fill:#DC6161;fill-rule:nonzero}
    .fil19 {fill:#DCDEDD;fill-rule:nonzero}
    .fil46 {fill:#DDB596;fill-rule:nonzero}
    .fil44 {fill:#DFCFB5;fill-rule:nonzero}
    .fil37 {fill:#E35252;fill-rule:nonzero}
    .fil35 {fill:#E6DBD5;fill-rule:nonzero}
    .fil42 {fill:#F2EADC;fill-rule:nonzero}
    .fil40 {fill:whitesmoke;fill-rule:nonzero}
    .fil12 {fill:#F6F0E4;fill-rule:nonzero}
    .fil31 {fill:#F7DBCD;fill-rule:nonzero}
    .fil22 {fill:#F9F9F9;fill-rule:nonzero}
    .fil38 {fill:#FADD8D;fill-rule:nonzero}
    .fil17 {fill:#FF7E33;fill-rule:nonzero}
    .fil34 {fill:#FF978A;fill-rule:nonzero}
    .fil16 {fill:#FFB169;fill-rule:nonzero}
    .fil36 {fill:#FFC0B8;fill-rule:nonzero}
    .fil18 {fill:#FFD8B5;fill-rule:nonzero}
    .fil6 {fill:#FFE0FB;fill-rule:nonzero}
    .fil15 {fill:#FFEEE6;fill-rule:nonzero}
    .fil51 {fill:#FFF1F0;fill-rule:nonzero}
    .fil10 {fill:#FFF8F5;fill-rule:nonzero}
    .fil45 {fill:#FFFCF7;fill-rule:nonzero}
    .fil13 {fill:white;fill-rule:nonzero}
   ]]>
  </style>
 </defs>
 <g id="Layer_x0020_1">
  <metadata id="CorelCorpID_0Corel-Layer"/>
  <polygon class="fil0" points="2409.86,4113.39 347.87,2922.91 1180.29,2444.88 3242.28,3635.37 "/>
  <polygon class="fil1" points="2409.86,4239.24 2409.86,4113.39 3242.28,3635.37 3242.28,3761.23 "/>
  <polygon class="fil2" points="2409.86,4239.24 2409.86,4113.39 347.87,2922.91 347.87,3048.75 "/>
  <path class="fil3" d="M3326.11 2458.39l0 1091.49c0,59.21 -20.63,100.21 -52.71,116.18l0.14 0.14 -813.73 469.42 -74.78 -460.9 -1.61 -480.86 -48.31 -27.82 -42.06 -24.36 -375.18 -216.67 -749.97 -432.95c-59.5,-34.35 -110.33,-112.74 -131.11,-194.06l-4.39 5.86 -346.03 -412.58 -429.22 -402.59 813.99 -469.3c3.07,-1.98 6.13,-3.86 9.46,-5.32l3.98 -2.26 0 0.54c23.42,-9.32 52.04,-6.39 83.32,11.69l2017 1164.55c1.46,0.81 2.81,1.6 4.25,2.54 60.83,37.53 112.07,120.71 130.04,204.95 4.52,20.9 6.92,41.93 6.92,62.3z"/>
  <path class="fil2" d="M3326.11 2458.39l0 1091.49c0,59.21 -20.63,100.21 -52.71,116.18l0.14 0.14 -813.73 469.42 -74.78 -460.9 -1.61 -480.86 -48.31 -27.82 24.89 -149.06 297.19 -297.21 217.47 -164.08 443.6 -159.72 0.93 0.13c4.52,20.9 6.92,41.93 6.92,62.3z"/>
  <path class="fil1" d="M3326.11 2458.39l0 86.76 -1033.06 596.52 -506.28 292.28 0 -433.21 131.1 -75.74 1271.28 -733.86c76,46.85 136.96,165.03 136.96,267.25z"/>
  <path class="fil4" d="M2368.13 4128.17l-2017.07 -1164.57c-77.97,-45.01 -141.19,-165.8 -141.19,-269.78l0 -1091.58c0,-103.96 63.22,-151.75 141.19,-106.74l2017.07 1164.55c77.97,45.03 141.19,165.8 141.19,269.78l0 1091.59c0,103.97 -63.22,151.76 -141.19,106.75z"/>
  <path class="fil5" d="M2387.38 4137.55c-6.32,-2.5 -12.75,-5.61 -19.3,-9.4l-274.83 -158.63c-0.02,-0.03 -0.03,-0.06 -0.04,-0.08l274.93 158.74c6.53,3.76 12.96,6.89 19.25,9.37z"/>
  <path class="fil1" d="M2424.11 4145.07c-11.53,0 -23.86,-2.44 -36.74,-7.53 -6.29,-2.48 -12.72,-5.61 -19.25,-9.37l-274.93 -158.74c-6.5,-12.86 -10.47,-20.82 -10.47,-20.82l88.78 -487.92 184.19 -442.26 153.58 494.04 0 508.95c0,77.39 -35.06,123.65 -85.17,123.65z"/>
  <path class="fil6" d="M2355.7 2941.37l0 969.45c0,34.21 -7.71,61.5 -21.15,80.39 -3.2,4.79 -6.79,8.93 -10.65,12.53 -4.53,4.11 -9.58,7.57 -14.92,10.37l-83.44 50.04c23.43,-16.78 37.94,-50.85 37.94,-97.83l0 -969.57c0,-16.38 -1.74,-33.28 -5.07,-50.18 -15.04,-76.39 -61.35,-153.04 -116.72,-187.11l-3.72 -2.26 -1791.56 -1034.41c-31.93,-18.5 -61.08,-19.42 -83.18,-5.85l-0.26 -0.26 89.83 -53.37c2.67,-1.86 5.32,-3.46 8.39,-4.79l3.46 -1.99 0 0.39c20.9,-8.25 46.32,-5.58 74,10.52l1791.55 1034.26c1.35,0.79 2.54,1.46 3.87,2.26 3.72,2.26 7.46,4.78 11.03,7.44 2.93,2.26 5.86,4.53 8.79,6.92 2,1.6 3.99,3.33 6,5.2 1.58,1.46 3.18,2.79 4.65,4.39 1.98,1.86 3.86,3.74 5.86,5.72 1.86,1.86 3.72,3.87 5.58,6 4.93,5.32 9.58,10.9 14.11,16.9 2.53,3.04 4.78,6.39 7.18,9.71 5.07,7.06 9.72,14.52 14.25,22.36 1.32,2.25 2.65,4.53 3.85,6.79 4.26,7.46 8.12,15.17 11.72,23.03 1.74,4.13 3.6,8.11 5.19,12.36 1.72,4.12 3.46,8.39 4.92,12.65l0.93 2.39c1.46,4 2.79,8.13 4,12.25 1.46,4.51 2.79,9.06 3.98,13.71l0 0.26c1.21,4.67 2.4,9.32 3.33,13.97 1.06,4.67 2,9.32 2.67,13.98 0.65,3.46 1.2,7.06 1.46,10.52 0.39,1.72 0.53,3.32 0.67,5.06 0.53,4.51 0.92,9.18 1.06,13.69 0.28,4.14 0.4,8.13 0.4,12.11z"/>
  <path class="fil2" d="M2355.7 2941.37l0 969.45c0,34.21 -7.71,61.5 -21.15,80.39 -3.2,4.67 -6.79,8.93 -10.65,12.53 -4.53,4.11 -9.58,7.57 -14.92,10.37l-83.44 50.04c23.43,-16.78 37.94,-50.85 37.94,-97.83l0 -969.57c0,-16.38 -1.74,-33.28 -5.07,-50.18l90.25 -60.68 0.79 0.13c1.06,4.67 2,9.32 2.67,13.98 0.65,3.46 1.2,7.06 1.46,10.52 0.39,1.72 0.53,3.32 0.67,5.06 0.53,4.51 0.92,9.18 1.06,13.69 0.28,4.14 0.4,8.13 0.4,12.11z"/>
  <path class="fil7" d="M2355.7 2941.37l0 77.07 -92.22 55.5 0 -77.19c0,-16.38 -1.74,-33.28 -5.07,-50.18 -15.04,-76.39 -61.35,-153.04 -116.72,-187.11l92.37 -55.5c3.72,2.26 7.46,4.78 11.03,7.44 2.93,2.26 5.86,4.53 8.79,6.92 2,1.6 3.99,3.33 6,5.2 1.58,1.46 3.18,2.79 4.65,4.39 1.98,1.86 3.86,3.74 5.86,5.72 1.86,1.86 3.72,3.87 5.58,6 4.93,5.32 9.58,10.9 14.11,16.9 2.53,3.04 4.78,6.39 7.18,9.71 5.07,7.06 9.72,14.52 14.25,22.36 1.32,2.25 2.65,4.53 3.85,6.79 4.26,7.46 8.12,15.17 11.72,23.03 1.74,4.13 3.6,8.11 5.19,12.36 1.72,4.12 3.46,8.39 4.92,12.65l0.93 2.39c1.46,4 2.79,8.13 4,12.25 1.46,4.51 2.79,9.06 3.98,13.71l0 0.26c2.54,9.32 4.53,18.64 6,27.96 0.65,3.46 1.2,7.06 1.46,10.52 0.39,1.72 0.53,3.32 0.67,5.06 0.53,4.51 0.92,9.18 1.06,13.69 0.28,4.14 0.4,8.13 0.4,12.11z"/>
  <path class="fil8" d="M2263.47 2996.74l0 969.57c0,46.99 -14.52,81.06 -37.94,97.83 -22.63,16.36 -53.5,16.63 -87.57,-3.07l-1791.56 -1034.25c-69.21,-40.06 -125.37,-147.33 -125.37,-239.7l0 -969.58c0,-49.78 16.37,-85.04 42.19,-100.61 22.1,-13.57 51.25,-12.65 83.18,5.85l1791.56 1034.41c69.35,39.93 125.52,147.19 125.52,239.56z"/>
  <path class="fil9" d="M2163.49 2986.48l0 874.67c0,42.37 -13.08,73.13 -34.21,88.24 -20.41,14.78 -48.26,15.01 -79.01,-2.76l-1616.16 -933c-62.43,-36.14 -113.11,-132.92 -113.11,-216.24l0 -874.65c0,-44.9 14.78,-76.72 38.07,-90.78 19.93,-12.24 46.22,-11.41 75.04,5.29l1616.16 933.12c62.56,36.03 113.22,132.79 113.22,216.11z"/>
  <path class="fil2" d="M2158.19 3903.65c-5.59,20.75 -15.71,36.32 -28.89,45.76 -20.5,14.78 -48.31,15.04 -79.06,-2.79l-1616.14 -932.97c-33.14,-19.15 -62.94,-55.36 -83.58,-97.69 -18.36,-37.39 -29.54,-79.44 -29.54,-118.59l0 -874.67c0,-44.86 14.78,-76.67 38.07,-90.78 14.37,-8.78 32.07,-10.64 51.63,-4.92 -3.46,12.37 -5.44,26.61 -5.44,42.46l0 874.67c0,42.46 13.18,88.52 34.47,128.18 20.36,38.06 48.18,70.41 78.65,88.1l1616.27 932.97c8.12,4.65 15.97,8.11 23.57,10.26z"/>
  <path class="fil6" d="M2158.19 3903.65c-5.59,20.75 -15.71,36.32 -28.89,45.76 -20.5,14.78 -48.31,15.04 -79.06,-2.79l-1616.14 -932.97c-33.14,-19.15 -62.94,-55.36 -83.58,-97.69l89.18 -43.64c20.36,38.06 48.18,70.41 78.65,88.1l1616.27 932.97c8.12,4.65 15.97,8.11 23.57,10.26z"/>
  <polygon class="fil2" points="2059.03,2345.78 790.81,1615.75 1193.06,1384.77 2461.29,2114.81 "/>
  <polygon class="fil10" points="2049.77,2216.55 882.82,1541.48 1214.99,1349.7 2381.95,2024.75 "/>
  <polygon class="fil11" points="2049.77,2298.62 2049.77,2216.55 2381.95,2024.75 2381.95,2106.82 "/>
  <polygon class="fil12" points="2049.77,2298.62 2049.77,2216.55 882.82,1541.48 882.82,1623.56 "/>
  <path class="fil13" d="M663.87 2515.95c18.67,-10.64 27.97,-31.1 27.97,-61.38 0,-30.3 -9.31,-61.5 -27.97,-93.62 -18.69,-32.13 -41.24,-55.81 -67.6,-71.04 -26.4,-15.26 -48.91,-17.58 -67.61,-7.03 -18.68,10.56 -28,30.98 -28,61.26 0,30.31 9.32,61.54 28,93.75 18.7,32.22 41.21,55.94 67.61,71.17 26.36,15.24 48.91,17.56 67.6,6.89zm7.35 27.94c-21.19,8.86 -46.17,5.02 -74.94,-11.64 -32.03,-18.46 -59.28,-47.17 -81.82,-86.13 -22.56,-38.96 -33.83,-76.78 -33.83,-113.51 0,-36.6 11.28,-61.33 33.83,-74.24 22.54,-12.94 49.79,-10.17 81.82,8.33 31.86,18.39 59.09,47.06 81.68,86.06 21.76,37.53 33.1,73.96 33.92,109.21l1.28 0.75c-1.44,56.08 -13.33,95.64 -35.81,118.78 -22.46,23.09 -50.26,46.36 -83.39,69.76 -2,1.43 -3.9,2.85 -5.69,4.21l-26.1 -15.1c2.78,-2.37 5.75,-4.69 8.85,-6.96 36.92,-26.04 66.17,-50.44 87.81,-73.25 4.64,-4.75 8.75,-10.15 12.4,-16.28z"/>
  <path class="fil13" d="M787.17 2729.95c3.72,6.35 5.58,12.48 5.58,18.46 0,6.11 -1.86,10.19 -5.58,12.26 -3.74,2.02 -8.21,1.53 -13.36,-1.48 -5.24,-3 -9.67,-7.64 -13.41,-14.02 -3.74,-6.31 -5.58,-12.54 -5.58,-18.65 0,-5.97 1.85,-9.96 5.58,-12.03 3.74,-2.03 8.17,-1.53 13.41,1.47 5.15,2.97 9.62,7.65 13.36,13.99zm0 -149.1c3.72,6.33 5.58,12.51 5.58,18.46 0,6.11 -1.86,10.2 -5.58,12.22 -3.74,2.07 -8.21,1.57 -13.36,-1.43 -5.24,-3.01 -9.67,-7.65 -13.41,-13.98 -3.74,-6.35 -5.58,-12.58 -5.58,-18.69 0,-5.94 1.85,-9.97 5.58,-12.03 3.74,-2.03 8.17,-1.56 13.41,1.44 5.15,3 9.62,7.67 13.36,14.02z"/>
  <path class="fil13" d="M1046.28 2659.17c0,-30.26 -9.32,-61.5 -28.01,-93.61 -18.68,-32.13 -41.19,-55.81 -67.6,-71.04 -26.4,-15.25 -48.9,-17.57 -67.59,-7.01 -18.67,10.54 -27.99,31 -27.99,61.29l0 128.06c0,30.29 9.32,61.48 27.99,93.63 18.69,32.11 41.19,55.79 67.59,71.03 26.41,15.26 48.92,17.58 67.6,7.03 18.69,-10.56 28.01,-30.99 28.01,-61.26l0 -128.1zm20.03 139.63c0,36.57 -11.27,61.33 -33.82,74.24 -22.54,12.94 -49.79,10.17 -81.82,-8.33 -31.86,-18.39 -59.11,-47.08 -81.69,-86.06 -22.61,-38.99 -33.9,-76.76 -33.9,-113.33l0 -128.07c0,-36.57 11.29,-61.31 33.9,-74.18 22.58,-12.92 49.83,-10.14 81.69,8.26 32.03,18.47 59.28,47.18 81.82,86.14 22.56,38.93 33.82,76.68 33.82,113.28l0 128.06z"/>
  <path class="fil13" d="M1309.5 2811.14c0,-30.28 -9.35,-61.49 -27.99,-93.61 -18.69,-32.11 -41.2,-55.81 -67.61,-71.03 -26.4,-15.28 -48.92,-17.6 -67.61,-7.03 -18.68,10.56 -27.98,31 -27.98,61.29l0 128.06c0,30.28 9.3,61.5 27.98,93.61 18.69,32.13 41.21,55.82 67.61,71.04 26.41,15.26 48.92,17.58 67.61,7.03 18.64,-10.57 27.99,-30.97 27.99,-61.28l0 -128.08zm20.04 139.63c0,36.59 -11.28,61.33 -33.82,74.24 -22.54,12.93 -49.83,10.17 -81.82,-8.33 -31.86,-18.39 -59.11,-47.07 -81.68,-86.07 -22.61,-38.98 -33.93,-76.74 -33.93,-113.3l0 -128.1c0,-36.57 11.32,-61.29 33.93,-74.17 22.57,-12.91 49.82,-10.13 81.68,8.26 31.99,18.46 59.28,47.18 81.82,86.13 22.54,38.96 33.82,76.73 33.82,113.29l0 128.06z"/>
  <path class="fil13" d="M1677.84 3107.91l-51.38 -191.85 -51.37 132.5 102.75 59.35zm6.98 25.78l-116.69 -67.39 -46.94 121.04 -20.24 -11.69 125.51 -323.1 125.31 467.91 -20.02 -11.57 -46.93 -175.19z"/>
  <polygon class="fil13" points="1815.56,2970.67 1942.1,3295.03 2068.46,3116.66 2090.16,3129.22 2089.31,3130.42 2089.31,3515.34 2070.35,3504.38 2070.35,3157.14 1942.1,3337.8 1813.66,3008.94 1813.66,3356.2 1794.71,3345.26 1794.71,2960.31 1793.85,2958.12 "/>
  <path class="fil14" d="M1469.42 3101.52c-0.94,6.31 -2.54,12.99 -2.6,19.37 -0.06,5.03 2.11,8.11 -1.98,12.39 -6.53,6.83 -17.61,2.44 -23.99,-2.26 2.49,16.25 5.32,33.31 15.57,46.14 14.12,17.67 40.83,24.41 62.56,25.33 25.01,1.06 49.4,-9.78 68.98,-25.37 19.57,-15.6 34.99,-35.72 49.67,-55.99 21.61,-29.8 42.29,-60.64 56.53,-94.58 14.24,-33.93 21.79,-71.42 16.24,-107.82 -2.41,-15.92 -7.32,-31.9 -4.94,-47.85 2.06,-13.78 9.4,-26.18 17.44,-37.56 13.03,-18.44 28.35,-35.36 39.12,-55.21 34.53,-63.56 1.11,-106.61 -49.12,-133.99 -36.86,-20.07 -82.79,-31.69 -117.58,-36.78 -3,-0.43 -6.27,-0.82 -8.97,0.58 -2.59,1.35 -4.13,4.04 -5.41,6.65 -10.17,20.86 -11.78,44.82 -19.42,66.74 -6.72,19.24 -18.17,36.82 -33.06,50.75 -9.01,8.43 -19.32,15.61 -26.96,25.29 -24.43,31 -4.25,67.35 -5.78,102.24 -3.53,81.07 -14.44,161.63 -26.3,241.92z"/>
  <path class="fil15" d="M1683.27 2626.72c-36.86,-20.09 -82.79,-31.71 -117.58,-36.76 -3.02,-0.46 -6.26,-0.85 -8.97,0.57 -2.58,1.33 -4.13,4.03 -5.4,6.64 -10.17,20.86 -11.78,44.82 -19.42,66.74 -6.72,19.25 -18.17,36.82 -33.06,50.75 -9,8.44 -19.32,15.61 -26.94,25.29 -24.44,31 -4.26,67.35 -5.79,102.24 -3.53,81.08 -14.43,161.63 -26.32,241.92 -2.36,15.98 -4.76,32.19 -2.82,48.24 3.68,30.42 19.82,51.36 52.38,52.74 25.01,1.06 49.41,-9.78 68.98,-25.37 19.58,-15.59 35,-35.72 49.68,-55.99 21.61,-29.81 42.29,-60.63 56.53,-94.57 14.22,-33.94 21.78,-71.43 16.25,-107.82 -2.43,-15.93 -7.33,-31.92 -4.96,-47.86 2.06,-13.78 9.4,-26.18 17.44,-37.56 13.03,-18.43 28.35,-35.36 39.13,-55.19 34.53,-63.57 1.12,-106.63 -49.13,-133.98z"/>
  <path class="fil16" d="M1621.79 2717.63c-14.06,26.76 -33.46,50.18 -45.5,77.28 -6.69,15.4 -11.06,31.46 -16.74,46.85 -12.39,34.79 -30.44,67.25 -48.52,99.71 -2.01,3.02 -4.01,6.71 -7.36,8.37 -5.35,2.67 -11.71,0 -15.39,-4.68 -3.68,-4.36 -5.03,-10.37 -6.02,-16.06 -12.39,-63.91 -1.35,-128.83 -16.4,-192.07 -21.75,-92.35 -91.01,-165.63 -162.29,-228.86 -69.25,-61.57 -140.18,-119.46 -205.1,-186.04 -36.47,-37.12 -72.94,-73.94 -99.36,-118.44 -22.1,-36.81 -31.81,-80.97 -31.46,-124.8 0.32,-23.09 3.02,-46.19 8.7,-68.26 1.35,-5.36 2.67,-10.7 4.35,-16.07 11.71,-37.81 57.21,-72.6 86.67,-97.36 14.04,-12.06 29.1,-23.08 45.17,-32.46 7.7,-4.68 16.06,-8.7 24.42,-12.04 32.81,-13.37 88.67,-19.07 93.68,27.43 3.36,31.46 -8.35,61.91 -17.39,92.68 -1,4.03 -2,7.71 -3,11.72 -11.04,44.83 -9.72,93.35 4.33,137.18 7.71,24.41 19.42,47.85 34.81,68.58 53.19,70.28 145.21,105.4 191.39,180.69 25.43,41.82 34.13,92.68 60.57,133.83 16.72,26.43 30.11,51.86 55.86,70.93 23.1,17.07 56.54,28.44 72.63,53.2 17.06,26.11 5.68,63.58 -8.04,88.68z"/>
  <path class="fil17" d="M1224.29 2071.19c1.02,17.07 -4.02,34.12 -9.71,50.53 -1.67,5.35 -3.67,11.04 -5.35,16.39 -8.36,25.78 -17.74,51.53 -27.78,76.63 -5.35,12.72 -10.69,25.76 -16.39,38.47 -2.68,6.03 -17.07,27.78 -15.72,33.47 -15.06,-55.21 -35.47,-109.08 -64.92,-158.26 -16.06,-26.78 -34.79,-51.86 -56.54,-74.29 -15.72,-16.06 -32.79,-30.76 -51.53,-43.49 1.35,-5.36 2.67,-10.7 4.35,-16.07 11.71,-37.81 57.21,-72.6 86.67,-97.36 14.04,-12.06 29.1,-23.08 45.17,-32.46 6.36,1.68 12.72,4.01 18.74,7.03 20.42,9.71 37.81,25.43 51.53,43.48 13.39,17.4 23.75,36.82 30.44,57.56 2.02,5.36 3.68,10.71 5.03,16.41 6.35,27.43 4.68,54.21 6.02,81.97z"/>
  <path class="fil14" d="M1113.08 2999.74c-23.31,17.48 -46.89,34.68 -68.9,53.79 -10.91,9.48 -21.43,19.44 -31.21,30.09 -3.32,3.61 -7.81,11.72 -12.2,13.76 -4.78,2.2 -8.64,-1.4 -8.19,-6.57l-0.39 -1.46 -1.62 0.56c-10.97,10.89 -17.56,26.01 -18.31,41.43 -0.69,14.06 0.44,31.46 6.4,44.42 15.99,34.79 57.5,39.68 90.85,44.62 56.1,8.32 115.43,0.32 165.5,-26.12 33.65,-17.75 65.74,-38.76 94.07,-64.17 23.79,-21.33 45.19,-45.93 72.79,-62.07 24.7,-14.43 53.86,-21.76 74.97,-41.06 36.85,-33.67 53.47,-85.59 37.33,-133.93 -7.5,-22.43 -21.21,-42.24 -35.83,-60.8 -0.15,3.3 -0.64,6.78 -2.67,9.41 -4.2,5.43 -6.81,1.88 -10.63,-0.36 -5.15,-3.02 -11.33,-4.57 -17.29,-4.25 -33.85,1.72 -64.97,-12.8 -99.86,-7.19 -36.26,5.85 -60.75,26.4 -87,50.22 -28.82,26.14 -59.28,50.63 -89.75,74.82 -19.15,15.22 -38.5,30.17 -58.07,44.85z"/>
  <path class="fil15" d="M1113.08 2966.28c-45.42,34.08 -92.92,67.74 -124.68,114.81 -12.5,18.54 -19.61,39.74 -9.74,61.22 15.99,34.79 57.5,39.68 90.85,44.63 56.1,8.32 115.43,0.31 165.5,-26.11 33.65,-17.76 65.74,-38.78 94.07,-64.18 23.79,-21.33 45.19,-45.94 72.79,-62.07 24.7,-14.43 53.86,-21.75 74.97,-41.06 21.39,-19.54 32.49,-54.4 34.19,-82.87 1.88,-30.89 -7.44,-62.71 -27.23,-86.72 -9.11,-11.06 -21.74,-21.07 -36.04,-20.35 -33.85,1.72 -64.97,-12.79 -99.86,-7.17 -36.26,5.83 -60.75,26.4 -87,50.21 -28.82,26.14 -59.28,50.63 -89.75,74.82 -19.15,15.21 -38.5,30.17 -58.07,44.85z"/>
  <path class="fil18" d="M1475.57 2662.41c-5.02,37.82 -5.02,72.63 -1.67,110.43 3.02,37.47 9.36,68.92 -2.68,106.06 -3,8.38 -6.69,16.74 -11.71,24.43 -9.37,13.39 -23.08,23.08 -37.14,31.79 -40.48,25.42 -84.32,45.5 -129.83,59.56 -31.11,9.69 -63.57,16.72 -96.03,13.72 -19.07,-1.68 -40.8,-10.04 -45.17,-28.44 -2,-9.71 1.35,-19.74 7.03,-28.11 5.7,-8.03 13.39,-14.39 20.74,-20.74 42.83,-36.8 82.67,-80.65 104.07,-133.5 24.09,-59.57 3.35,-115.44 -21.75,-171.67 -26.43,-59.21 -52.86,-118.44 -79.3,-177.67 -30.43,-68.25 -61.22,-137.83 -68.59,-212.46 -4.35,-46.51 1.68,-96.36 22.1,-139.19 4.02,-8.69 8.35,-16.72 13.71,-24.75 24.75,-38.15 65.92,-84.32 113.1,-43.18 20.07,17.75 30.78,43.5 46.85,64.91 29.43,39.49 89.67,75.96 139.18,51.2l2.01 -1 -1.35 2.33c-27.44,39.49 -39.48,104.41 -23.42,149.57 6.7,18.75 19.41,34.81 29.78,52.19 10.71,17.41 18.75,36.47 24.43,55.88 8.7,30.46 11.38,62.25 8.03,94.03 -5.68,54.54 -5.36,109.74 -12.39,164.61z"/>
  <path class="fil16" d="M1479.93 2403.77c-40.15,-51.53 -81.64,-101.71 -125.14,-149.89 -54.21,-60.24 -113.43,-119.13 -188.39,-148.57 -10.03,-3.68 -20.4,-7.03 -30.76,-8.69 4.02,-8.69 8.35,-16.72 13.71,-24.75 24.75,-38.15 65.92,-84.32 113.1,-43.18 20.07,17.75 30.78,43.5 46.85,64.91 29.43,39.49 89.67,75.96 139.18,51.2l0.67 1.33c-27.44,39.49 -39.48,104.41 -23.42,149.57 6.7,18.75 19.41,34.81 29.78,52.19 10.71,17.41 18.75,36.47 24.43,55.88z"/>
  <path class="fil2" d="M1781.06 1335.88c-53.69,-12.96 -105.42,-32.57 -157.98,-49.37 -22.25,-7.13 -44.24,-15.88 -67.3,-20.11 -24.62,-4.54 -32.36,-1.78 -42.32,-28.29 -10.42,66.04 -20.35,132.2 -31.24,198.17 -8.15,49.3 -30.67,95.17 -69.8,126.92 -128.32,104.08 -249.64,219.24 -365.13,337.11 -16.08,16.43 -32.22,33.11 -45.17,52.21 -3.32,4.92 -17.86,23.57 -15.5,29.56 6.72,17.08 46.61,-0.6 55.48,-5.89 26.4,-15.72 53.03,-31.61 75.35,-52.71 -19,23.13 -35.09,48.64 -47.8,75.72 -10.56,22.48 62.03,40.54 74.67,46.11 32.07,14.13 63.1,30.68 92.72,49.43 59.25,37.5 112.96,83.79 158.57,137.06 9.58,11.2 18.81,22.68 27.64,34.46 4.71,6.28 9.42,12.75 15.75,17.37 6.33,4.63 14.72,7.19 22.17,4.69 16.08,-5.44 22.25,-25.65 32.47,-37.67 41.4,-48.67 112.68,-73.13 171.7,-93.22 75.76,-25.81 153.25,-46.6 226.48,-78.77 70.89,-31.12 142.89,-83.53 196.26,-139.22 53.42,-55.76 91.75,-130.39 95.43,-209.1 3.06,-64.98 -13.3,-129.26 -40.08,-188.12 -26.82,-58.96 -68.29,-108.07 -97.86,-165.2 -20.91,-40.43 -35.21,-83.87 -49.42,-127.11 -5.35,43.44 -43.35,77.64 -85.38,89.9 -42,12.26 -87.17,6.33 -129.72,-3.93z"/>
  <path class="fil19" d="M1665.22 1912.21l-0.17 12.44c-1,8.44 -7.64,17.21 -19.67,24.18l-322.86 185.78c-5.64,3.26 -11.93,5.85 -18.67,7.64 -18.79,5.4 -40.15,5.06 -55.89,-1.24 -2.26,-0.89 -4.52,-1.9 -6.53,-3.03l-526.06 -303.85c-9.44,-5.4 -14.06,-12.71 -14.06,-20.24l-0.13 0 0.35 -20.24 10.68 7.87c2.58,-2.25 5.51,-4.29 8.89,-6.3l322.85 -185.76c24.06,-13.83 60.39,-15.42 81.19,-3.38l350.2 202.18 175.86 101.56 1.02 0.68 12.98 1.7z"/>
  <path class="fil20" d="M1665.28 1906.69l-0.22 17.97c-1,8.44 -7.64,17.21 -19.67,24.18l-322.86 185.78c-5.64,3.26 -11.93,5.85 -18.67,7.64l0 -333.97 171.5 0 175.86 101.56 1.02 0.68 13.04 -3.83z"/>
  <polygon class="fil21" points="1405.57,2086.21 1379.72,2101.19 1379.72,2085.88 1405.57,2070.91 "/>
  <polygon class="fil22" points="1402.67,2084.64 1402.67,2072.59 1405.57,2070.91 1405.57,2086.21 1379.72,2101.19 1379.72,2097.92 "/>
  <polygon class="fil19" points="1402.67,2084.64 1405.57,2086.21 1405.57,2070.91 1402.67,2072.59 "/>
  <polygon class="fil23" points="1402.67,2084.64 1392.81,2080.44 1379.72,2088.07 1379.72,2097.92 "/>
  <polygon class="fil24" points="1392.81,2080.44 1392.78,2078.31 1402.67,2072.59 1402.67,2084.64 "/>
  <path class="fil25" d="M1247.97 2086.91l0 54.11c15.71,6.33 37.08,6.6 55.93,1.24l0 -55.35 -55.93 0z"/>
  <path class="fil13" d="M715.35 1817.38l526.1 303.76c20.8,12 57.11,10.5 81.13,-3.39l232.69 -133.93 90.17 -51.89c7.96,-4.63 13.56,-9.97 16.75,-15.58 6.39,-11.22 2.94,-23.21 -10.94,-31.22l-526.1 -303.79c-20.8,-11.98 -57.13,-10.48 -81.11,3.41l-322.87 185.76c-1.44,0.83 -2.81,1.69 -4.11,2.59 -20.14,13.75 -21.25,32.99 -1.69,44.28z"/>
  <polygon class="fil26" points="1320.46,1894.28 1094.04,1763.56 1234.63,1682.38 1461.04,1813.12 "/>
  <polygon class="fil20" points="1234.63,1690.12 1454.35,1816.98 1461.04,1813.12 1234.63,1682.38 1094.04,1763.56 1100.74,1767.42 "/>
  <polygon class="fil27" points="1234.63,1690.12 1234.63,1682.38 1094.04,1763.56 1100.74,1767.42 "/>
  <polygon class="fil25" points="1286.93,2072.32 1259.84,2087.86 1287.06,2103.53 1289.24,2107.89 1295.63,2108.48 1322.71,2092.91 "/>
  <polygon class="fil28" points="1289.24,2103.53 1253.46,2082.95 1280.54,2067.39 1316.34,2087.98 "/>
  <polygon class="fil13" points="1289.24,2101.57 1255.15,2081.96 1253.46,2082.95 1289.24,2103.53 1316.34,2087.98 1314.64,2087.01 "/>
  <polygon class="fil29" points="1316.34,2087.98 1316.34,2092.32 1289.24,2107.89 1289.24,2103.53 "/>
  <polygon class="fil30" points="1253.46,2082.95 1253.46,2087.3 1289.24,2107.89 1289.24,2103.53 "/>
  <polygon class="fil25" points="1239.46,2044.67 1212.38,2060.23 1239.58,2075.88 1241.78,2080.23 1248.17,2080.81 1275.25,2065.25 "/>
  <polygon class="fil28" points="1241.78,2075.88 1205.99,2055.28 1233.08,2039.73 1268.86,2060.34 "/>
  <polygon class="fil13" points="1241.78,2073.92 1207.68,2054.32 1205.99,2055.28 1241.78,2075.88 1268.86,2060.34 1267.17,2059.35 "/>
  <polygon class="fil29" points="1268.86,2060.34 1268.86,2064.69 1241.78,2080.23 1241.78,2075.88 "/>
  <polygon class="fil30" points="1205.99,2055.28 1205.99,2059.64 1241.78,2080.23 1241.78,2075.88 "/>
  <polygon class="fil25" points="1192,2017.03 1164.92,2032.57 1192.13,2048.23 1194.32,2052.59 1200.69,2053.16 1227.78,2037.62 "/>
  <polygon class="fil28" points="1194.32,2048.23 1158.53,2027.63 1185.61,2012.09 1221.4,2032.69 "/>
  <polygon class="fil13" points="1194.32,2046.28 1160.22,2026.67 1158.53,2027.63 1194.32,2048.23 1221.4,2032.69 1219.71,2031.7 "/>
  <polygon class="fil29" points="1221.4,2032.69 1221.4,2037.03 1194.32,2052.59 1194.32,2048.23 "/>
  <polygon class="fil30" points="1158.53,2027.63 1158.53,2031.99 1194.32,2052.59 1194.32,2048.23 "/>
  <polygon class="fil25" points="902.81,1846.88 875.72,1862.43 902.95,1878.09 905.13,1882.43 911.51,1883.02 938.6,1867.46 "/>
  <polygon class="fil28" points="905.13,1878.09 869.35,1857.49 896.43,1841.93 932.21,1862.55 "/>
  <polygon class="fil13" points="905.13,1876.13 871.04,1856.52 869.35,1857.49 905.13,1878.09 932.21,1862.55 930.53,1861.56 "/>
  <polygon class="fil29" points="932.21,1862.55 932.21,1866.89 905.13,1882.43 905.13,1878.09 "/>
  <polygon class="fil30" points="869.35,1857.49 869.35,1861.85 905.13,1882.43 905.13,1878.09 "/>
  <polygon class="fil25" points="855.35,1819.23 828.26,1834.78 855.47,1850.42 857.67,1854.8 864.04,1855.36 891.14,1839.82 "/>
  <polygon class="fil28" points="857.67,1850.42 821.87,1829.84 848.97,1814.3 884.75,1834.88 "/>
  <polygon class="fil13" points="857.67,1848.49 823.57,1828.88 821.87,1829.84 857.67,1850.42 884.75,1834.88 883.06,1833.91 "/>
  <polygon class="fil29" points="884.75,1834.88 884.75,1839.24 857.67,1854.8 857.67,1850.42 "/>
  <polygon class="fil30" points="821.87,1829.84 821.87,1834.2 857.67,1854.8 857.67,1850.42 "/>
  <polygon class="fil25" points="784.26,1778.07 757.17,1793.64 808.01,1822.78 810.21,1827.14 816.58,1827.73 843.67,1812.17 "/>
  <polygon class="fil28" points="810.21,1822.78 750.79,1788.7 777.87,1773.16 837.29,1807.23 "/>
  <polygon class="fil13" points="810.21,1820.84 752.48,1787.73 750.79,1788.7 810.21,1822.78 837.29,1807.23 835.6,1806.27 "/>
  <polygon class="fil29" points="837.29,1807.23 837.29,1811.59 810.21,1827.14 810.21,1822.78 "/>
  <polygon class="fil30" points="750.79,1788.7 750.79,1793.06 810.21,1827.14 810.21,1822.78 "/>
  <polygon class="fil25" points="1122.93,1976.84 1095.84,1992.38 1144.65,2020.57 1146.85,2024.94 1153.24,2025.52 1180.32,2009.96 "/>
  <polygon class="fil28" points="1146.85,2020.57 1089.46,1987.45 1116.56,1971.91 1173.93,2005.02 "/>
  <polygon class="fil13" points="1146.85,2018.63 1091.15,1986.48 1089.46,1987.45 1146.85,2020.57 1173.93,2005.02 1172.25,2004.06 "/>
  <polygon class="fil29" points="1173.93,2005.02 1173.93,2009.38 1146.85,2024.94 1146.85,2020.57 "/>
  <polygon class="fil30" points="1089.46,1987.45 1089.46,1991.8 1146.85,2024.94 1146.85,2020.57 "/>
  <polygon class="fil25" points="1063.46,1892.66 1036.38,1908.23 1063.58,1923.88 1065.78,1928.23 1072.15,1928.81 1099.25,1913.25 "/>
  <polygon class="fil28" points="1065.78,1923.88 1029.99,1903.28 1057.07,1887.73 1092.88,1908.31 "/>
  <polygon class="fil13" points="1065.78,1921.92 1031.68,1902.31 1029.99,1903.28 1065.78,1923.88 1092.88,1908.31 1091.17,1907.34 "/>
  <polygon class="fil29" points="1092.88,1908.31 1092.88,1912.67 1065.78,1928.23 1065.78,1923.88 "/>
  <polygon class="fil30" points="1029.99,1903.28 1029.99,1907.64 1065.78,1928.23 1065.78,1923.88 "/>
  <polygon class="fil25" points="1253.39,2002.88 1226.31,2018.42 1253.51,2034.07 1255.71,2038.44 1262.08,2039.02 1289.17,2023.46 "/>
  <polygon class="fil28" points="1255.71,2034.07 1219.92,2013.49 1247,1997.95 1282.79,2018.53 "/>
  <polygon class="fil13" points="1255.71,2032.13 1221.61,2012.52 1219.92,2013.49 1255.71,2034.07 1282.79,2018.53 1281.1,2017.56 "/>
  <polygon class="fil29" points="1282.79,2018.53 1282.79,2022.88 1255.71,2038.44 1255.71,2034.07 "/>
  <polygon class="fil30" points="1219.92,2013.49 1219.92,2017.84 1255.71,2038.44 1255.71,2034.07 "/>
  <polygon class="fil25" points="1205.92,1975.23 1178.84,1990.78 1206.04,2006.43 1208.24,2010.78 1214.63,2011.36 1241.71,1995.81 "/>
  <polygon class="fil28" points="1208.24,2006.43 1172.46,1985.84 1199.54,1970.28 1235.34,1990.88 "/>
  <polygon class="fil13" points="1208.24,2004.48 1174.15,1984.86 1172.46,1985.84 1208.24,2006.43 1235.34,1990.88 1233.64,1989.91 "/>
  <polygon class="fil29" points="1235.34,1990.88 1235.34,1995.23 1208.24,2010.78 1208.24,2006.43 "/>
  <polygon class="fil30" points="1172.46,1985.84 1172.46,1990.2 1208.24,2010.78 1208.24,2006.43 "/>
  <polygon class="fil25" points="1158.46,1947.57 1131.38,1963.13 1158.58,1978.78 1160.78,1983.13 1167.15,1983.71 1194.25,1968.16 "/>
  <polygon class="fil28" points="1160.78,1978.78 1124.99,1958.19 1152.07,1942.64 1187.86,1963.24 "/>
  <polygon class="fil13" points="1160.78,1976.84 1126.68,1957.23 1124.99,1958.19 1160.78,1978.78 1187.86,1963.24 1186.17,1962.25 "/>
  <polygon class="fil29" points="1187.86,1963.24 1187.86,1967.59 1160.78,1983.13 1160.78,1978.78 "/>
  <polygon class="fil30" points="1124.99,1958.19 1124.99,1962.55 1160.78,1983.13 1160.78,1978.78 "/>
  <polygon class="fil25" points="1110.92,1920.32 1083.84,1935.86 1111.04,1951.52 1113.24,1955.86 1119.63,1956.45 1146.71,1940.91 "/>
  <polygon class="fil28" points="1113.24,1951.52 1077.46,1930.92 1104.54,1915.38 1140.34,1935.98 "/>
  <polygon class="fil13" points="1113.24,1949.57 1079.14,1929.96 1077.46,1930.92 1113.24,1951.52 1140.34,1935.98 1138.63,1934.99 "/>
  <polygon class="fil29" points="1140.34,1935.98 1140.34,1940.32 1113.24,1955.86 1113.24,1951.52 "/>
  <polygon class="fil30" points="1077.46,1930.92 1077.46,1935.28 1113.24,1955.86 1113.24,1951.52 "/>
  <polygon class="fil25" points="1015.99,1865.01 988.9,1880.56 1016.11,1896.21 1018.31,1900.57 1024.69,1901.16 1051.79,1885.6 "/>
  <polygon class="fil28" points="1018.31,1896.21 982.53,1875.63 1009.61,1860.09 1045.42,1880.67 "/>
  <polygon class="fil13" points="1018.31,1894.28 984.22,1874.66 982.53,1875.63 1018.31,1896.21 1045.42,1880.67 1043.71,1879.7 "/>
  <polygon class="fil29" points="1045.42,1880.67 1045.42,1885.03 1018.31,1900.57 1018.31,1896.21 "/>
  <polygon class="fil30" points="982.53,1875.63 982.53,1879.98 1018.31,1900.57 1018.31,1896.21 "/>
  <polygon class="fil25" points="965.37,1836.99 938.29,1852.55 965.5,1868.2 967.69,1872.55 974.08,1873.13 1001.17,1857.57 "/>
  <polygon class="fil28" points="967.69,1868.2 931.92,1847.6 959,1832.05 994.79,1852.66 "/>
  <polygon class="fil13" points="967.69,1866.25 933.61,1846.63 931.92,1847.6 967.69,1868.2 994.79,1852.66 993.1,1851.67 "/>
  <polygon class="fil29" points="994.79,1852.66 994.79,1857.01 967.69,1872.55 967.69,1868.2 "/>
  <polygon class="fil30" points="931.92,1847.6 931.92,1851.96 967.69,1872.55 967.69,1868.2 "/>
  <polygon class="fil25" points="917.92,1809.34 890.84,1824.89 918.04,1840.56 920.24,1844.89 926.61,1845.48 953.69,1829.93 "/>
  <polygon class="fil28" points="920.24,1840.56 884.45,1819.95 911.53,1804.41 947.32,1824.99 "/>
  <polygon class="fil13" points="920.24,1838.6 886.14,1818.99 884.45,1819.95 920.24,1840.56 947.32,1824.99 945.63,1824.02 "/>
  <polygon class="fil29" points="947.32,1824.99 947.32,1829.35 920.24,1844.89 920.24,1840.56 "/>
  <polygon class="fil30" points="884.45,1819.95 884.45,1824.31 920.24,1844.89 920.24,1840.56 "/>
  <polygon class="fil25" points="871.61,1782.19 844.53,1797.74 871.74,1813.39 873.93,1817.74 880.31,1818.34 907.4,1802.78 "/>
  <polygon class="fil28" points="873.93,1813.39 838.14,1792.81 865.22,1777.25 901.01,1797.84 "/>
  <polygon class="fil13" points="873.93,1811.45 839.84,1791.84 838.14,1792.81 873.93,1813.39 901.01,1797.84 899.32,1796.86 "/>
  <polygon class="fil29" points="901.01,1797.84 901.01,1802.2 873.93,1817.75 873.93,1813.39 "/>
  <polygon class="fil30" points="838.14,1792.81 838.14,1797.16 873.93,1817.75 873.93,1813.39 "/>
  <polygon class="fil25" points="825.87,1754.25 798.79,1769.8 826,1785.45 828.19,1789.8 834.58,1790.38 861.67,1774.84 "/>
  <polygon class="fil28" points="828.19,1785.45 792.4,1764.85 819.5,1749.31 855.28,1769.91 "/>
  <polygon class="fil13" points="828.19,1783.51 794.1,1763.89 792.4,1764.85 828.19,1785.45 855.28,1769.91 853.58,1768.92 "/>
  <polygon class="fil29" points="855.28,1769.91 855.28,1774.25 828.19,1789.8 828.19,1785.45 "/>
  <polygon class="fil30" points="792.4,1764.85 792.4,1769.21 828.19,1789.8 828.19,1785.45 "/>
  <polygon class="fil25" points="1306.64,2033.28 1279.54,2048.84 1328.38,2077.03 1330.56,2081.38 1336.95,2081.96 1364.03,2066.41 "/>
  <polygon class="fil28" points="1330.56,2077.03 1273.17,2043.89 1300.25,2028.35 1357.65,2061.48 "/>
  <polygon class="fil13" points="1330.56,2075.09 1274.86,2042.94 1273.17,2043.89 1330.56,2077.03 1357.65,2061.48 1355.96,2060.51 "/>
  <polygon class="fil29" points="1357.65,2061.48 1357.65,2065.82 1330.56,2081.38 1330.56,2077.03 "/>
  <polygon class="fil30" points="1273.17,2043.89 1273.17,2048.25 1330.56,2081.38 1330.56,2077.03 "/>
  <polygon class="fil25" points="1103.39,1867.66 1076.32,1883.2 1103.53,1898.85 1105.72,1903.2 1112.1,1903.78 1139.18,1888.24 "/>
  <polygon class="fil28" points="1105.72,1898.85 1069.93,1878.25 1097.01,1862.71 1132.82,1883.31 "/>
  <polygon class="fil13" points="1105.72,1896.91 1071.63,1877.3 1069.93,1878.25 1105.72,1898.85 1132.82,1883.31 1131.11,1882.32 "/>
  <polygon class="fil29" points="1132.82,1883.31 1132.82,1887.66 1105.72,1903.2 1105.72,1898.85 "/>
  <polygon class="fil30" points="1069.93,1878.25 1069.93,1882.62 1105.72,1903.2 1105.72,1898.85 "/>
  <polygon class="fil25" points="1290.42,1976.84 1263.34,1992.38 1290.56,2008.03 1292.74,2012.39 1299.13,2012.98 1326.21,1997.42 "/>
  <polygon class="fil28" points="1292.74,2008.03 1256.96,1987.45 1284.04,1971.91 1319.84,1992.49 "/>
  <polygon class="fil13" points="1292.74,2006.09 1258.65,1986.48 1256.96,1987.45 1292.74,2008.03 1319.84,1992.49 1318.14,1991.52 "/>
  <polygon class="fil29" points="1319.84,1992.49 1319.84,1996.84 1292.74,2012.39 1292.74,2008.03 "/>
  <polygon class="fil30" points="1256.96,1987.45 1256.96,1991.8 1292.74,2012.39 1292.74,2008.03 "/>
  <polygon class="fil25" points="1335.36,2002.92 1308.27,2018.48 1335.47,2034.13 1337.68,2038.49 1344.04,2039.06 1371.15,2023.52 "/>
  <polygon class="fil28" points="1337.68,2034.13 1301.88,2013.55 1328.97,1997.99 1364.77,2018.59 "/>
  <polygon class="fil13" points="1337.68,2032.19 1303.57,2012.56 1301.88,2013.55 1337.68,2034.13 1364.77,2018.59 1363.07,2017.62 "/>
  <polygon class="fil29" points="1364.77,2018.59 1364.77,2022.94 1337.68,2038.49 1337.68,2034.13 "/>
  <polygon class="fil30" points="1301.88,2013.55 1301.88,2017.89 1337.68,2038.49 1337.68,2034.13 "/>
  <polygon class="fil25" points="1244.61,1950.25 1217.53,1965.81 1244.74,1981.46 1246.93,1985.82 1253.31,1986.41 1280.4,1970.84 "/>
  <polygon class="fil28" points="1246.93,1981.46 1211.14,1960.88 1238.22,1945.32 1274.01,1965.92 "/>
  <polygon class="fil13" points="1246.93,1979.52 1212.84,1959.91 1211.14,1960.88 1246.93,1981.46 1274.01,1965.92 1272.32,1964.95 "/>
  <polygon class="fil29" points="1274.01,1965.92 1274.01,1970.27 1246.93,1985.82 1246.93,1981.46 "/>
  <polygon class="fil30" points="1211.14,1960.88 1211.14,1965.23 1246.93,1985.82 1246.93,1981.46 "/>
  <polygon class="fil25" points="1198.4,1922.56 1171.32,1938.12 1198.53,1953.77 1200.72,1958.12 1207.1,1958.7 1234.18,1943.14 "/>
  <polygon class="fil28" points="1200.72,1953.77 1164.93,1933.17 1192.01,1917.62 1227.81,1938.21 "/>
  <polygon class="fil13" points="1200.72,1951.81 1166.63,1932.2 1164.93,1933.17 1200.72,1953.77 1227.81,1938.21 1226.11,1937.24 "/>
  <polygon class="fil29" points="1227.81,1938.21 1227.81,1942.56 1200.72,1958.12 1200.72,1953.77 "/>
  <polygon class="fil30" points="1164.93,1933.17 1164.93,1937.53 1200.72,1958.12 1200.72,1953.77 "/>
  <polygon class="fil25" points="1150.86,1895.3 1123.78,1910.85 1150.99,1926.51 1153.18,1930.85 1159.56,1931.43 1186.65,1915.88 "/>
  <polygon class="fil28" points="1153.18,1926.51 1117.39,1905.92 1144.47,1890.35 1180.26,1910.95 "/>
  <polygon class="fil13" points="1153.18,1924.55 1119.08,1904.93 1117.39,1905.92 1153.18,1926.51 1180.26,1910.95 1178.57,1909.99 "/>
  <polygon class="fil29" points="1180.26,1910.95 1180.26,1915.3 1153.18,1930.85 1153.18,1926.51 "/>
  <polygon class="fil30" points="1117.39,1905.92 1117.39,1910.27 1153.18,1930.85 1153.18,1926.51 "/>
  <polygon class="fil25" points="1055.93,1839.99 1028.85,1855.56 1056.06,1871.21 1058.25,1875.56 1064.64,1876.14 1091.72,1860.59 "/>
  <polygon class="fil28" points="1058.25,1871.21 1022.46,1850.62 1049.56,1835.06 1085.36,1855.64 "/>
  <polygon class="fil13" points="1058.25,1869.25 1024.17,1849.64 1022.46,1850.62 1058.25,1871.21 1085.36,1855.64 1083.64,1854.69 "/>
  <polygon class="fil29" points="1085.36,1855.64 1085.36,1860.01 1058.25,1875.56 1058.25,1871.21 "/>
  <polygon class="fil30" points="1022.46,1850.62 1022.46,1854.98 1058.25,1875.56 1058.25,1871.21 "/>
  <polygon class="fil25" points="1005.32,1811.98 978.24,1827.52 1005.45,1843.19 1007.64,1847.53 1014.03,1848.12 1041.11,1832.56 "/>
  <polygon class="fil28" points="1007.64,1843.19 971.85,1822.6 998.95,1807.03 1034.72,1827.63 "/>
  <polygon class="fil13" points="1007.64,1841.23 973.54,1821.62 971.85,1822.59 1007.64,1843.19 1034.72,1827.63 1033.03,1826.66 "/>
  <polygon class="fil29" points="1034.72,1827.63 1034.72,1831.98 1007.64,1847.53 1007.64,1843.19 "/>
  <polygon class="fil30" points="971.85,1822.6 971.85,1826.95 1007.64,1847.53 1007.64,1843.19 "/>
  <polygon class="fil25" points="957.86,1784.32 930.78,1799.88 957.99,1815.53 960.18,1819.88 966.56,1820.46 993.64,1804.91 "/>
  <polygon class="fil28" points="960.18,1815.53 924.39,1794.93 951.47,1779.38 987.26,1799.99 "/>
  <polygon class="fil13" points="960.18,1813.59 926.08,1793.96 924.39,1794.93 960.18,1815.53 987.26,1799.99 985.57,1799.01 "/>
  <polygon class="fil29" points="987.26,1799.99 987.26,1804.34 960.18,1819.88 960.18,1815.53 "/>
  <polygon class="fil30" points="924.39,1794.93 924.39,1799.3 960.18,1819.88 960.18,1815.53 "/>
  <polygon class="fil25" points="911.56,1757.17 884.47,1772.73 911.68,1788.38 913.87,1792.73 920.25,1793.31 947.34,1777.75 "/>
  <polygon class="fil28" points="913.87,1788.38 878.08,1767.78 905.17,1752.24 940.96,1772.84 "/>
  <polygon class="fil13" points="913.87,1786.43 879.78,1766.81 878.08,1767.78 913.87,1788.38 940.96,1772.84 939.26,1771.85 "/>
  <polygon class="fil29" points="940.96,1772.84 940.96,1777.19 913.87,1792.73 913.87,1788.38 "/>
  <polygon class="fil30" points="878.08,1767.78 878.08,1772.14 913.87,1792.73 913.87,1788.38 "/>
  <polygon class="fil25" points="865.82,1729.23 838.74,1744.78 865.95,1760.43 868.14,1764.78 874.51,1765.36 901.61,1749.81 "/>
  <polygon class="fil28" points="868.14,1760.43 832.35,1739.85 859.43,1724.3 895.22,1744.89 "/>
  <polygon class="fil13" points="868.14,1758.49 834.04,1738.86 832.35,1739.85 868.14,1760.43 895.22,1744.89 893.53,1743.92 "/>
  <polygon class="fil29" points="895.22,1744.89 895.22,1749.24 868.14,1764.78 868.14,1760.43 "/>
  <polygon class="fil30" points="832.35,1739.85 832.35,1744.2 868.14,1764.78 868.14,1760.43 "/>
  <polygon class="fil25" points="1326.77,1952.56 1299.68,1968.12 1326.89,1983.77 1329.08,1988.13 1335.46,1988.71 1362.56,1973.16 "/>
  <polygon class="fil28" points="1329.08,1983.77 1293.29,1963.19 1320.38,1947.63 1356.18,1968.23 "/>
  <polygon class="fil13" points="1329.08,1981.82 1294.99,1962.2 1293.29,1963.19 1329.08,1983.77 1356.18,1968.23 1354.47,1967.25 "/>
  <polygon class="fil29" points="1356.18,1968.23 1356.18,1972.57 1329.08,1988.13 1329.08,1983.77 "/>
  <polygon class="fil30" points="1293.29,1963.19 1293.29,1967.53 1329.08,1988.13 1329.08,1983.77 "/>
  <polygon class="fil25" points="1371.69,1978.66 1344.61,1994.21 1371.82,2009.86 1374.01,2014.21 1380.4,2014.8 1407.49,1999.24 "/>
  <polygon class="fil28" points="1374.01,2009.86 1338.22,1989.28 1365.32,1973.73 1401.1,1994.31 "/>
  <polygon class="fil13" points="1374.01,2007.92 1339.92,1988.3 1338.22,1989.28 1374.01,2009.86 1401.1,1994.31 1399.4,1993.35 "/>
  <polygon class="fil29" points="1401.1,1994.31 1401.1,1998.67 1374.01,2014.21 1374.01,2009.86 "/>
  <polygon class="fil30" points="1338.22,1989.28 1338.22,1993.63 1374.01,2014.21 1374.01,2009.86 "/>
  <polygon class="fil25" points="924.21,1690.71 909.5,1698.78 936.71,1714.43 938.92,1718.8 945.31,1719.38 960,1711.31 "/>
  <polygon class="fil28" points="938.92,1714.43 903.13,1693.85 917.84,1685.78 953.63,1706.36 "/>
  <polygon class="fil13" points="938.92,1712.49 904.81,1692.88 903.13,1693.85 938.92,1714.43 953.63,1706.36 951.92,1705.41 "/>
  <polygon class="fil29" points="953.63,1706.36 953.63,1710.73 938.92,1718.8 938.92,1714.43 "/>
  <polygon class="fil30" points="903.13,1693.85 903.13,1698.21 938.92,1718.8 938.92,1714.43 "/>
  <polygon class="fil25" points="970.31,1717.75 955.61,1725.82 982.82,1741.48 985.01,1745.82 991.39,1746.41 1006.08,1738.34 "/>
  <polygon class="fil28" points="985.01,1741.48 949.22,1720.88 963.92,1712.81 999.71,1733.41 "/>
  <polygon class="fil13" points="985.01,1739.52 950.92,1719.91 949.22,1720.88 985.01,1741.48 999.71,1733.41 998.01,1732.42 "/>
  <polygon class="fil29" points="999.71,1733.41 999.71,1737.75 985.01,1745.82 985.01,1741.48 "/>
  <polygon class="fil30" points="949.22,1720.88 949.22,1725.24 985.01,1745.82 985.01,1741.48 "/>
  <polygon class="fil25" points="1016.42,1744.78 1001.69,1752.85 1028.92,1768.51 1031.11,1772.86 1037.49,1773.43 1052.19,1765.36 "/>
  <polygon class="fil28" points="1031.11,1768.51 995.32,1747.92 1010.03,1739.85 1045.82,1760.43 "/>
  <polygon class="fil13" points="1031.11,1766.55 997.01,1746.93 995.32,1747.92 1031.11,1768.51 1045.82,1760.43 1044.13,1759.46 "/>
  <polygon class="fil29" points="1045.82,1760.43 1045.82,1764.78 1031.11,1772.86 1031.11,1768.51 "/>
  <polygon class="fil30" points="995.32,1747.92 995.32,1752.27 1031.11,1772.86 1031.11,1768.51 "/>
  <polygon class="fil25" points="1062.5,1771.81 1047.79,1779.88 1075,1795.53 1077.21,1799.89 1083.6,1800.48 1098.29,1792.41 "/>
  <polygon class="fil28" points="1077.21,1795.53 1041.4,1774.95 1056.13,1766.88 1091.9,1787.46 "/>
  <polygon class="fil13" points="1077.21,1793.59 1043.11,1773.98 1041.4,1774.95 1077.21,1795.53 1091.9,1787.46 1090.21,1786.49 "/>
  <polygon class="fil29" points="1091.9,1787.46 1091.9,1791.82 1077.21,1799.89 1077.21,1795.53 "/>
  <polygon class="fil30" points="1041.4,1774.95 1041.4,1779.3 1077.21,1799.89 1077.21,1795.53 "/>
  <polygon class="fil25" points="1108.58,1798.85 1093.9,1806.91 1121.11,1822.57 1123.31,1826.92 1129.68,1827.49 1144.39,1819.43 "/>
  <polygon class="fil28" points="1123.31,1822.57 1087.51,1801.98 1102.21,1793.91 1138.01,1814.51 "/>
  <polygon class="fil13" points="1123.31,1820.62 1089.21,1801.01 1087.51,1801.98 1123.31,1822.57 1138.01,1814.51 1136.31,1813.52 "/>
  <polygon class="fil29" points="1138.01,1814.51 1138.01,1818.85 1123.31,1826.92 1123.31,1822.57 "/>
  <polygon class="fil30" points="1087.51,1801.98 1087.51,1806.32 1123.31,1826.92 1123.31,1822.57 "/>
  <polygon class="fil25" points="1154.69,1825.88 1139.99,1833.93 1167.19,1849.6 1169.39,1853.95 1175.78,1854.53 1190.49,1846.46 "/>
  <polygon class="fil28" points="1169.39,1849.6 1133.61,1829.01 1148.32,1820.93 1184.1,1841.53 "/>
  <polygon class="fil13" points="1169.39,1847.64 1135.31,1828.03 1133.61,1829.01 1169.39,1849.6 1184.1,1841.53 1182.42,1840.56 "/>
  <polygon class="fil29" points="1184.1,1841.53 1184.1,1845.88 1169.39,1853.95 1169.39,1849.6 "/>
  <polygon class="fil30" points="1133.61,1829.01 1133.61,1833.36 1169.39,1853.95 1169.39,1849.6 "/>
  <polygon class="fil25" points="1200.79,1852.91 1186.08,1860.96 1213.29,1876.63 1215.5,1880.98 1221.88,1881.56 1236.58,1873.51 "/>
  <polygon class="fil28" points="1215.5,1876.63 1179.69,1856.03 1194.42,1847.98 1230.19,1868.56 "/>
  <polygon class="fil13" points="1215.5,1874.69 1181.4,1855.06 1179.69,1856.03 1215.5,1876.63 1230.19,1868.56 1228.5,1867.59 "/>
  <polygon class="fil29" points="1230.19,1868.56 1230.19,1872.92 1215.5,1880.99 1215.5,1876.63 "/>
  <polygon class="fil30" points="1179.69,1856.03 1179.69,1860.38 1215.5,1880.99 1215.5,1876.63 "/>
  <polygon class="fil25" points="1246.89,1879.93 1232.18,1888.01 1259.4,1903.66 1261.6,1908.01 1267.97,1908.59 1282.68,1900.53 "/>
  <polygon class="fil28" points="1261.6,1903.66 1225.81,1883.07 1240.5,1875.01 1276.31,1895.59 "/>
  <polygon class="fil13" points="1261.6,1901.71 1227.5,1882.1 1225.81,1883.07 1261.6,1903.66 1276.31,1895.59 1274.6,1894.62 "/>
  <polygon class="fil29" points="1276.31,1895.59 1276.31,1899.95 1261.6,1908.01 1261.6,1903.66 "/>
  <polygon class="fil30" points="1225.81,1883.07 1225.81,1887.42 1261.6,1908.01 1261.6,1903.66 "/>
  <polygon class="fil25" points="1292.99,1906.96 1278.28,1915.03 1305.49,1930.69 1307.68,1935.03 1314.07,1935.62 1328.78,1927.55 "/>
  <polygon class="fil28" points="1307.68,1930.7 1271.9,1910.09 1286.61,1902.03 1322.39,1922.63 "/>
  <polygon class="fil13" points="1307.68,1928.74 1273.6,1909.13 1271.9,1910.09 1307.68,1930.69 1322.39,1922.63 1320.71,1921.64 "/>
  <polygon class="fil29" points="1322.39,1922.63 1322.39,1926.98 1307.68,1935.03 1307.68,1930.7 "/>
  <polygon class="fil30" points="1271.9,1910.09 1271.9,1914.45 1307.68,1935.03 1307.68,1930.7 "/>
  <polygon class="fil25" points="1339.08,1934.01 1324.38,1942.06 1351.58,1957.71 1353.79,1962.07 1360.17,1962.66 1374.88,1954.59 "/>
  <polygon class="fil28" points="1353.79,1957.71 1318,1937.13 1332.69,1929.07 1368.49,1949.66 "/>
  <polygon class="fil13" points="1353.79,1955.77 1319.69,1936.16 1318,1937.13 1353.79,1957.71 1368.49,1949.66 1366.79,1948.69 "/>
  <polygon class="fil29" points="1368.49,1949.66 1368.49,1954.01 1353.79,1962.07 1353.79,1957.71 "/>
  <polygon class="fil30" points="1318,1937.13 1318,1941.48 1353.79,1962.07 1353.79,1957.71 "/>
  <polygon class="fil25" points="1385.17,1961.02 1370.49,1969.09 1397.69,1984.74 1399.89,1989.1 1406.27,1989.69 1420.97,1981.62 "/>
  <polygon class="fil28" points="1399.89,1984.74 1364.1,1964.16 1378.79,1956.1 1414.6,1976.69 "/>
  <polygon class="fil13" points="1399.89,1982.81 1365.79,1963.2 1364.1,1964.16 1399.89,1984.74 1414.6,1976.69 1412.9,1975.71 "/>
  <polygon class="fil29" points="1414.6,1976.69 1414.6,1981.05 1399.89,1989.1 1399.89,1984.74 "/>
  <polygon class="fil30" points="1364.1,1964.16 1364.1,1968.51 1399.89,1989.1 1399.89,1984.74 "/>
  <polygon class="fil25" points="1431.28,1988.06 1416.57,1996.13 1443.78,2011.78 1445.97,2016.13 1452.36,2016.71 1467.07,2008.64 "/>
  <polygon class="fil28" points="1445.97,2011.78 1410.18,1991.19 1424.89,1983.13 1460.68,2003.73 "/>
  <polygon class="fil13" points="1445.97,2009.84 1411.89,1990.21 1410.18,1991.19 1445.97,2011.78 1460.68,2003.73 1458.99,2002.74 "/>
  <polygon class="fil29" points="1460.68,2003.73 1460.68,2008.07 1445.97,2016.13 1445.97,2011.78 "/>
  <polygon class="fil30" points="1410.18,1991.19 1410.18,1995.55 1445.97,2016.13 1445.97,2011.78 "/>
  <polygon class="fil25" points="1280.96,1925.99 1253.86,1941.55 1281.07,1957.2 1283.28,1961.55 1289.64,1962.13 1316.75,1946.57 "/>
  <polygon class="fil28" points="1283.28,1957.2 1247.47,1936.62 1274.57,1921.06 1310.36,1941.66 "/>
  <polygon class="fil13" points="1283.28,1955.25 1249.17,1935.63 1247.47,1936.62 1283.28,1957.2 1310.36,1941.66 1308.67,1940.69 "/>
  <polygon class="fil29" points="1310.36,1941.66 1310.36,1946.01 1283.28,1961.55 1283.28,1957.2 "/>
  <polygon class="fil30" points="1247.47,1936.62 1247.47,1940.96 1283.28,1961.55 1283.28,1957.2 "/>
  <polygon class="fil25" points="1234.74,1898.3 1207.65,1913.85 1234.86,1929.51 1237.06,1933.85 1243.43,1934.43 1270.54,1918.88 "/>
  <polygon class="fil28" points="1237.06,1929.51 1201.26,1908.91 1228.35,1893.35 1264.15,1913.95 "/>
  <polygon class="fil13" points="1237.06,1927.55 1202.96,1907.93 1201.26,1908.91 1237.06,1929.51 1264.15,1913.95 1262.45,1912.96 "/>
  <polygon class="fil29" points="1264.15,1913.95 1264.15,1918.3 1237.06,1933.85 1237.06,1929.51 "/>
  <polygon class="fil30" points="1201.26,1908.91 1201.26,1913.27 1237.06,1933.85 1237.06,1929.51 "/>
  <polygon class="fil25" points="1187.21,1871.03 1160.11,1886.59 1187.32,1902.24 1189.53,1906.59 1195.9,1907.17 1223,1891.62 "/>
  <polygon class="fil28" points="1189.53,1902.24 1153.74,1881.66 1180.84,1866.09 1216.61,1886.69 "/>
  <polygon class="fil13" points="1189.53,1900.28 1155.42,1880.67 1153.74,1881.66 1189.53,1902.24 1216.61,1886.69 1214.92,1885.71 "/>
  <polygon class="fil29" points="1216.61,1886.69 1216.61,1891.03 1189.53,1906.59 1189.53,1902.24 "/>
  <polygon class="fil30" points="1153.74,1881.66 1153.74,1886.01 1189.53,1906.59 1189.53,1902.24 "/>
  <polygon class="fil25" points="1139.18,1842.71 1112.08,1858.27 1139.29,1873.92 1141.5,1878.27 1147.86,1878.85 1174.97,1863.3 "/>
  <polygon class="fil28" points="1141.5,1873.92 1105.69,1853.32 1132.79,1837.77 1168.58,1858.36 "/>
  <polygon class="fil13" points="1141.5,1871.96 1107.39,1852.35 1105.69,1853.32 1141.5,1873.92 1168.58,1858.36 1166.89,1857.38 "/>
  <polygon class="fil29" points="1168.58,1858.36 1168.58,1862.71 1141.5,1878.27 1141.5,1873.92 "/>
  <polygon class="fil30" points="1105.69,1853.32 1105.69,1857.69 1141.5,1878.27 1141.5,1873.92 "/>
  <polygon class="fil25" points="1092.28,1815.73 1065.18,1831.3 1092.39,1846.93 1094.6,1851.3 1100.99,1851.88 1128.07,1836.32 "/>
  <polygon class="fil28" points="1094.6,1846.93 1058.81,1826.35 1085.9,1810.8 1121.69,1831.38 "/>
  <polygon class="fil13" points="1094.6,1844.99 1060.5,1825.38 1058.81,1826.35 1094.6,1846.93 1121.69,1831.38 1120,1830.42 "/>
  <polygon class="fil29" points="1121.69,1831.38 1121.69,1835.74 1094.6,1851.3 1094.6,1846.93 "/>
  <polygon class="fil30" points="1058.81,1826.35 1058.81,1830.71 1094.6,1851.3 1094.6,1846.93 "/>
  <polygon class="fil25" points="1041.65,1787.71 1014.57,1803.25 1041.78,1818.91 1043.97,1823.27 1050.36,1823.84 1077.45,1808.3 "/>
  <polygon class="fil28" points="1043.97,1818.91 1008.19,1798.32 1035.28,1782.77 1071.06,1803.36 "/>
  <polygon class="fil13" points="1043.97,1816.96 1009.87,1797.35 1008.19,1798.32 1043.97,1818.91 1071.06,1803.36 1069.38,1802.38 "/>
  <polygon class="fil29" points="1071.06,1803.36 1071.06,1807.71 1043.97,1823.27 1043.97,1818.91 "/>
  <polygon class="fil30" points="1008.19,1798.32 1008.19,1802.67 1043.97,1823.27 1043.97,1818.91 "/>
  <polygon class="fil25" points="994.19,1760.06 967.11,1775.62 994.32,1791.27 996.51,1795.62 1002.89,1796.2 1029.99,1780.64 "/>
  <polygon class="fil28" points="996.51,1791.27 960.72,1770.67 987.81,1755.12 1023.6,1775.71 "/>
  <polygon class="fil13" points="996.51,1789.32 962.42,1769.7 960.72,1770.67 996.51,1791.27 1023.6,1775.71 1021.9,1774.74 "/>
  <polygon class="fil29" points="1023.6,1775.71 1023.6,1780.06 996.51,1795.62 996.51,1791.27 "/>
  <polygon class="fil30" points="960.72,1770.67 960.72,1775.03 996.51,1795.62 996.51,1791.27 "/>
  <polygon class="fil25" points="947.89,1732.91 920.81,1748.46 948.01,1764.12 950.21,1768.46 956.58,1769.05 983.68,1753.49 "/>
  <polygon class="fil28" points="950.21,1764.12 914.42,1743.52 941.51,1727.98 977.29,1748.56 "/>
  <polygon class="fil13" points="950.21,1762.16 916.11,1742.54 914.42,1743.52 950.21,1764.12 977.29,1748.56 975.6,1747.59 "/>
  <polygon class="fil29" points="977.29,1748.56 977.29,1752.92 950.21,1768.46 950.21,1764.12 "/>
  <polygon class="fil30" points="914.42,1743.52 914.42,1747.88 950.21,1768.46 950.21,1764.12 "/>
  <polygon class="fil25" points="902.15,1704.96 875.07,1720.52 902.28,1736.17 904.47,1740.52 910.86,1741.1 937.95,1725.54 "/>
  <polygon class="fil28" points="904.47,1736.17 868.68,1715.57 895.78,1700.03 931.56,1720.63 "/>
  <polygon class="fil13" points="904.47,1734.23 870.37,1714.6 868.68,1715.57 904.47,1736.17 931.56,1720.63 929.86,1719.64 "/>
  <polygon class="fil29" points="931.56,1720.63 931.56,1724.96 904.47,1740.52 904.47,1736.17 "/>
  <polygon class="fil30" points="868.68,1715.57 868.68,1719.93 904.47,1740.52 904.47,1736.17 "/>
  <polygon class="fil25" points="1420.21,2006.34 1353.17,2044.6 1369.39,2053.98 1371.58,2058.34 1377.96,2058.91 1445.01,2020.66 "/>
  <polygon class="fil28" points="1371.58,2053.98 1346.79,2039.66 1413.84,2001.41 1438.63,2015.73 "/>
  <polygon class="fil13" points="1371.58,2052.03 1348.49,2038.69 1346.79,2039.66 1371.58,2053.98 1438.63,2015.73 1436.93,2014.75 "/>
  <polygon class="fil29" points="1438.63,2015.73 1438.63,2020.07 1371.58,2058.34 1371.58,2053.98 "/>
  <polygon class="fil30" points="1346.79,2039.66 1346.79,2044.02 1371.58,2058.34 1371.58,2053.98 "/>
  <polygon class="fil25" points="951.84,1876.16 924.75,1891.71 1075.1,1980.28 1077.29,1984.64 1083.67,1985.23 1110.78,1969.67 "/>
  <polygon class="fil28" points="1077.29,1980.28 918.37,1886.78 945.46,1871.23 1104.39,1964.74 "/>
  <polygon class="fil13" points="1077.29,1978.34 920.06,1885.8 918.37,1886.78 1077.29,1980.28 1104.39,1964.74 1102.69,1963.77 "/>
  <polygon class="fil29" points="1104.39,1964.74 1104.39,1969.09 1077.29,1984.64 1077.29,1980.28 "/>
  <polygon class="fil30" points="918.37,1886.78 918.37,1891.13 1077.29,1984.64 1077.29,1980.28 "/>
  <path class="fil15" d="M1501.35 865.08c8.69,-69.03 32.53,-135.57 64.57,-197.32 20.47,-39.43 37.36,-79.74 24.85,-124.85 -0.47,-1.69 -1.14,-3.57 -2.72,-4.35 -1.35,-0.65 -2.93,-0.31 -4.39,0.06 -49.08,12.5 -92.56,43.93 -121.64,85.18 -11.25,15.96 -19.68,33.26 -26.25,51.35 -12.63,34.83 -18.29,72.57 -23.65,108.97 -4.65,31.71 -9.06,63.46 -13.46,95.22 -4.79,34.42 -9.56,68.86 -14.33,103.29 -5.13,36.92 -9.6,73.81 -13.39,110.88 -1.09,10.79 -7.21,23.58 -2.51,33.85 5.92,12.86 24.12,20.74 37.04,23.19 8.2,1.54 16.88,1.71 24.64,-1.36 9.29,-3.67 16.3,-11.63 21.3,-20.28 13.2,-22.76 14.17,-49.72 18.14,-75.08 4.97,-31.78 13.63,-62.32 20.27,-93.67 6.61,-31.29 7.56,-63.43 11.54,-95.08z"/>
  <path class="fil18" d="M1396.28 1500.04c-1,15.74 -4.35,30.79 -6.01,46.18 -1.68,13.37 -1.35,26.41 -1.35,39.8l0 1.02c0.67,24.76 -1,51.86 -17.07,71.93 -6.36,8.03 -14.72,14.06 -21.75,21.42 -9.03,9.04 -16.72,19.42 -22.41,31.13 -5.36,10.69 -10.37,23.42 -21.42,28.09 -2.01,0.68 -4.36,1.35 -6.36,1 -3.35,-0.32 -6.36,-2 -9.04,-4.35 -12.37,-11.04 -11.04,-31.44 -3.67,-46.17 7.35,-15.06 19.39,-27.44 26.75,-42.5 -2.67,-7.03 -12.37,-8.69 -19.07,-5.35 -6.68,3.33 -11.03,9.69 -16.06,15.39 -8.36,9.71 -18.74,17.74 -30.11,23.42 -3.35,1.68 -7.36,3.35 -10.04,6.03 -4.68,4.02 -6.7,9.71 -9.03,15.39 -7.36,16.4 -19.75,30.46 -35.14,40.15 -9.04,5.36 -15.06,13.39 -17.72,23.42 -2.02,7.69 -3.02,15.4 -7.03,22.08 -1.35,3.01 -3.36,5.36 -5.69,7.71 -2.33,2 -5.35,3.67 -8.36,4.33 -4.02,0.68 -8.37,-1 -11.37,-4.01 -3.02,-3.02 -4.36,-7.03 -4.36,-11.36 -4.33,-0.68 -9.37,-1.68 -11.71,-5.69 -1.33,-2.68 -1,-6.03 -0.67,-9.37 1,-4.68 2,-9.03 3.35,-13.71 -3.35,4.01 -8.7,12.37 -15.06,11.04 -2.35,-0.67 -5.03,-1.35 -6.7,-3.36 -2.68,-2.67 -3.35,-7.03 -2.35,-10.7 0.67,-3.68 2.68,-7.03 4.68,-10.37 6.03,-11.04 8.37,-24.1 14.39,-35.47 3.68,-7.03 8.04,-13.39 11.04,-20.74 1.35,-4.02 2.7,-8.37 4.36,-12.39 2.35,-4.35 5.68,-8.36 8.69,-12.04 23.76,-28.09 49.86,-53.52 77.96,-76.96 11.37,-9.37 23.08,-18.4 33.13,-29.44 5.69,-6.68 10.71,-14.06 14.39,-22.08 2,-4.01 3.02,-8.03 3.68,-12.37 0.33,-3.02 1,-6.03 1.68,-9.04 3.35,-12.37 13.04,-25.09 21.74,-34.12l2.68 -0.67 0.67 1.33c0.35,2.35 1.35,4.35 3.36,5.69 4.02,2.67 11.69,-2.68 15.71,-4.01 6.71,-1.68 14.06,-1.68 20.76,0.32 9.35,3.36 16.72,10.72 24.75,17.07 4.02,3.35 10.38,8.04 15.74,9.37 5.68,1.68 5.68,-2.68 10.03,-7.03z"/>
  <path class="fil16" d="M1396.28 1500.04c-1,15.74 -4.35,30.79 -6.01,46.18 -1.68,13.37 -1.35,26.41 -1.35,39.8 -11.04,-21.74 -27.1,-40.82 -48.18,-52.53 -15.07,-8.03 -32.13,-12.04 -48.85,-12.04 -4.36,0 -8.71,0.33 -12.72,-0.33 0.33,-3.02 1,-6.03 1.68,-9.04 3.35,-12.37 13.04,-25.09 21.74,-34.12l2.68 -0.67 0.67 1.33c0.35,2.35 1.35,4.35 3.36,5.69 4.02,2.67 11.69,-2.68 15.71,-4.01 6.71,-1.68 14.06,-1.68 20.76,0.32 9.35,3.36 16.72,10.72 24.75,17.07 4.02,3.35 10.38,8.04 15.74,9.37 5.68,1.68 5.68,-2.68 10.03,-7.03z"/>
  <path class="fil15" d="M1278.24 1513.91c-0.08,1.94 0.04,3.87 0.42,5.82 3.56,-8.36 11.57,-14.22 20.22,-17.01 8.64,-2.78 17.93,-2.81 26.99,-2.14 13.35,0.97 26.58,3.39 39.4,7.22 8.9,2.65 17.98,6.22 24.17,13.17 4.42,4.96 0.02,11.52 2.92,17.57 0.58,1.22 1.53,2.44 2.87,2.71 3.26,0.58 7.43,-20.63 8.7,-24.04 3.07,-8.24 4.96,-16.93 7.98,-25.24 5.93,-16.32 13.43,-32.08 22.39,-46.96 10.31,-17.11 22.6,-33.28 29.61,-52 13.04,-34.85 6.15,-73.65 10.41,-110.61 3.17,-27.53 12.54,-53.94 22.51,-79.8 6.36,-16.5 13.07,-34.64 7.31,-51.36 -4.75,-13.8 -17,-23.43 -25.65,-35.21 -15.87,-21.65 -21.28,-52.65 -44.79,-65.58 -11.37,-6.25 -25.71,-6.75 -37.5,-1.33 -23.32,10.78 -28.93,37.68 -34.96,59.89 -8.75,32.21 -16.8,64.63 -24.33,97.15 -7.39,31.96 -14.26,64.03 -20.76,96.19 -3.26,16.07 -6.43,32.17 -9.53,48.26 -2.74,14.33 -7.56,29.83 -8.46,44.25 -0.98,15.75 0.4,31.47 -1.29,47.29 -1.69,15.86 -5.04,31.61 -10.94,46.47 -3.25,8.21 -7.36,16.68 -7.67,25.29z"/>
  <path class="fil31" d="M2154.81 848.91c-5.35,3.02 -12.06,2.35 -18.42,2.02 -23.75,-0.67 -52.85,21.07 -70.6,35.8 -32.46,26.76 -46.5,69.93 -53.53,111.42 -9.69,58.22 -9.36,117.44 -9.04,176 0.35,65.24 0.67,130.15 1.02,195.07 0,6.35 0,12.71 -2.68,18.39 -2.35,4.36 -6.36,8.03 -10.37,11.06 -50.18,40.15 -118.44,48.5 -182.68,47.52 -75.61,-1.35 -150.9,-13.39 -222.85,-35.81 -6.68,-2.35 -13.71,-4.68 -20.42,-7.36 -15.06,-6.03 -29.43,-13.72 -40.14,-25.43l0 -0.33c-1.35,-1.35 -2.68,-2.68 -3.68,-4.02 -7.03,-8.71 -11.38,-19.4 -16.06,-29.78 -49.2,-114.44 -99.04,-232.89 -99.39,-357.68 0,-50.88 8.37,-101.39 16.74,-151.92 7.03,-42.49 14.06,-85.31 21.42,-128.14 4.68,-29.11 9.71,-58.89 25.43,-83.99 34.79,-55.87 109.42,-79.64 168.31,-100.72 15.72,-5.35 32.46,-9.03 48.83,-11.71 33.81,-5.68 67.93,-6.7 102.06,-5.02 19.42,1 38.49,2.67 57.56,6.03 6.36,1 18.4,6.02 24.41,3.67 2.7,-1 13.06,-12.38 8.04,-15.06 38.47,20.08 70.6,49.86 102.39,78.97 18.06,16.39 35.8,33.13 53.53,49.52 47.51,43.52 86.33,97.37 113.09,155.26 7.36,15.71 30.11,53.19 7.03,66.24z"/>
  <path class="fil18" d="M1650.9 1732.92c-17.74,11.03 -31.44,27.09 -46.5,41.14 -13.74,12.72 -28.44,23.76 -44.18,33.8 -43.82,28.43 -93.35,49.85 -134.5,82.64 -15.72,12.39 -30.44,26.44 -48.85,34.47 -8.37,3.67 -30.11,11.04 -33.8,-2.02 -2.33,-8.36 6.36,-17.74 11.39,-23.08 25.08,-28.44 50.52,-56.54 76.61,-84.32 -14.71,5.68 -26.76,16.39 -38.47,27.09 -16.07,14.39 -31.78,28.78 -47.85,43.5 -13.39,12.04 -26.76,24.09 -42.48,32.11 -5.36,2.69 -11.39,5.04 -17.08,4.69 -6.02,-0.68 -12.04,-5.01 -12.71,-11.04 -6.36,7.69 -22.42,9.04 -28.76,0 -6.36,-9.38 3,-23.42 8.69,-30.44 36.47,-47.2 78.63,-90.02 124.79,-127.82 -19.74,14.39 -42.82,23.42 -63.24,36.81 -22.74,14.72 -42.48,35.13 -68.25,43.17 -5.7,2 -12.72,2.67 -17.4,-1.01 -4.68,-3.67 -5.02,-10.69 -3,-16.39 2.33,-5.35 6.68,-9.36 11.04,-13.37 39.47,-36.82 80.97,-72.28 129.14,-96.71 32.46,-16.72 67.93,-28.44 104.07,-34.47 21.75,-3.33 44.15,-5.02 65.25,-12.04 14.7,-4.68 27.76,-12.04 41.48,-19.39l0.33 0c2,-1.01 4.01,-2.02 6.36,-3.36l0.65 0c2.02,-1.33 4.36,-2.33 6.71,-3.35 1.33,-0.67 3.33,-1.33 4.33,0l0.68 1.67 0 1.35c0.67,7.02 0,14.05 1.33,20.75 1,5.68 3.02,11.71 4.35,17.39 2.35,13.72 6.7,27.11 15.06,38.15 8.37,11.04 21.08,19.41 34.8,20.09z"/>
  <path class="fil16" d="M1650.9 1732.92c-17.74,11.03 -31.44,27.09 -46.5,41.14 -13.74,12.72 -28.44,23.76 -44.18,33.8 4.35,-7.36 7.71,-15.39 10.06,-23.76 8.03,-30.44 -1.03,-62.22 -3.36,-92.68 -1.68,-17.06 -2.35,-41.15 9.37,-51.18l0.33 0c2,-1.01 4.01,-2.02 6.36,-3.36l0.65 0c3.36,-1.33 7.03,-1.33 11.72,-0.33 0.67,7.02 0,14.05 1.33,20.75 1,5.68 3.02,11.71 4.35,17.39 2.35,13.72 6.7,27.11 15.06,38.15 8.37,11.04 21.08,19.41 34.8,20.09z"/>
  <path class="fil15" d="M2192.7 878.67c-11.87,-44.37 -36.56,-87.33 -74.94,-113.76 -37.85,-26.03 -90.09,-13.14 -120.09,18 -48.18,50.02 -48.96,137.64 -47.13,202.85 1.97,69.65 22.35,297.54 21.67,343.31 -0.26,16.75 3.79,41.19 -1.29,57.18 -3.28,10.35 -17.71,18.28 -26.04,24.5 -107.61,80.57 -226.04,142.96 -345.85,203.59 -9.2,4.67 -21.24,10.38 -26.74,19.65 -4.24,7.15 -2.46,15.73 -1.56,23.58 2.65,23.58 10.36,46.14 23.52,65.99 7.4,11.17 16.39,21.3 26.69,29.89 2.49,2.08 5.22,4.15 8.42,4.59 3.07,0.43 6.13,-0.67 9.02,-1.78 18.09,-6.94 35.79,-15.04 54.44,-20.28 34.72,-9.75 71.46,-9.3 106.83,-16.36 89.89,-17.94 162.74,-81.98 246.25,-119.77 25.29,-11.44 56,-20.94 76.21,-40.9 2.06,-2.03 3.61,-4.39 5.74,-6.31l1.09 -2c18.35,-23.21 21.6,-56.83 27.79,-84.9 7.81,-35.31 12.47,-71.42 17.11,-107.24 13.79,-106.52 23.32,-213.57 28.58,-320.83 2.61,-53.26 4.06,-107.48 -9.72,-159z"/>
  <path class="fil10" d="M1716.49 659.87c-3.68,24.43 -15.06,47.18 -26.78,69.26 -36.79,68.25 -82.64,135.52 -103.72,210.46 -10.37,37.14 -24.08,72.93 -32.46,111.08 -8.03,38.15 -13.04,76.96 -15.39,116.11 -2.33,44.5 -1,89.67 5.36,133.83 4.68,33.79 10.69,69.26 21.74,102.39 -15.06,-6.03 -29.43,-13.72 -40.14,-25.43l0 -0.33c-5.03,-13.39 -9.38,-26.78 -12.71,-40.82 -4.7,-19.07 -7.71,-38.82 -9.38,-58.56 -3.01,-37.82 0,-75.61 0.67,-113.09 1,-77.63 22.08,-153.92 46.5,-227.53 8.71,-26.76 20.75,-52.86 34.14,-78.29 20.74,-39.15 45.17,-76.63 68.6,-113.42 11.37,-18.07 25.43,-37.15 33.46,-56.89 3.33,-8.71 7.35,-51.19 26.43,-41.15 4.01,2 4.35,7.7 3.68,12.37z"/>
  <path class="fil16" d="M1920.58 539.08l-0.33 3.35c-3.68,12.39 -10.37,31.46 -22.75,37.15 -3.02,1.33 -5.69,2 -8.36,3.33 -2.35,0.68 -4.68,1.68 -7.03,3.35 -1.67,1.35 -3.68,2.68 -5.36,3.68 -5.68,4.35 -11.36,8.71 -17.39,12.72 -33.14,22.07 -68.93,40.49 -103.39,60.89 -3.36,1.68 -6.36,3.35 -9.37,5.35 -6.36,3.7 -12.39,7.71 -17.41,12.72 -16.39,-12.72 -34.79,-23.42 -54.19,-31.44 3.35,-9.04 6.68,-18.75 6.36,-28.44l0 -1.35c-0.35,-5.68 -2.7,-11.71 -6.03,-16.39l-0.33 -0.33c-3.02,-3.35 -8.04,-5.01 -10.71,-8.7 -7.71,-9.03 -0.68,-24.42 6.35,-31.78 6.03,-6.03 13.39,-10.04 20.75,-13.72 3.68,-1.68 7.03,-3.35 10.71,-5.02 30.44,-14.72 57.21,-37.14 77.62,-64.25 10.38,-13.38 19.41,-27.76 26.1,-43.5 3.68,-7.7 5.69,-15.39 8.71,-23.42 2.67,-6.02 3.33,-11.71 3,-18.07 0.33,-2.33 0.33,-4.68 0.33,-7.36l0 -21.75c3.03,9.71 6.36,19.07 10.04,28.44 19.07,49.86 47.52,95.69 84.32,134.5 2,2.35 4.02,4.36 6.02,6.36 1.01,1.02 2.01,2.02 2.35,3.68z"/>
  <path class="fil17" d="M1912.22 529.04c-1.01,6.36 -2.35,12.72 -4.36,19.08 -3.33,10.71 -9.36,25.76 -18.72,34.79 -3.68,3.68 -7.69,6.36 -12.39,7.03 -5.35,1.35 -11.04,0.33 -17.72,-3.68 -3.69,-2.35 -7.03,-6.03 -11.04,-8.69 -5.03,-3.35 -11.04,-5.02 -17.4,-6.36 -26.1,-4.35 -53.19,3.35 -77.63,14.39 -3.01,1.68 -6.03,3.01 -9.03,4.35 -21.08,10.37 -40.83,22.08 -62.57,30.44 -0.35,-5.68 -2.7,-11.71 -6.03,-16.39 3.33,-10.71 9.03,-21.08 13.04,-31.44 3.02,-8.37 3.02,-15.74 3.02,-23.09 0,-4.35 0,-9.03 0.33,-14.06 2.68,-25.43 14.04,-49.51 27.78,-70.93 16.72,-25.1 38.14,-48.18 65.24,-60.56 10.37,-4.69 21.42,-7.71 32.79,-8.71 3.36,-0.67 7.03,-1 10.37,-0.67 19.07,49.86 47.52,95.69 84.32,134.5z"/>
  <path class="fil9" d="M1665.99 574.63c-1.35,-2.67 -2.67,-5.32 -3.74,-8.08 -2.61,-6.74 -2.48,-15.22 -4.14,-22.3 -3.47,-14.99 -9.21,-29.63 -18.78,-41.79 -10.85,-13.8 -25.91,-23.63 -37.92,-36.39 -9.11,-9.71 -18.76,-24.37 -17.5,-38.41 1.14,-12.56 7.87,-26.18 10.37,-39.06 5.21,-26.85 8.44,-54.07 9.68,-81.37 1.06,-23.13 0.56,-46.86 -7.52,-68.57 -8.19,-22.03 -26.26,-41.06 -49.54,-46.76 -12.72,-3.11 -22.53,2.35 -34.35,1.88 -6.61,-0.25 -23.03,-11.29 -16.02,-20.24 -22.53,28.72 -35.14,64.87 -36.58,101.35 -0.39,10.37 0.08,20.76 1.42,31.04 3.3,25.9 11.92,51.15 24.87,73.85 14.56,25.48 32.9,48.86 37.24,78.78 8.6,59.38 -34.86,112.91 -43.14,170.03 -5.31,36.58 7.78,77.63 41.98,95.76 16.29,8.64 35.64,10.2 53.86,7.46 36.19,-5.39 69.79,-28.03 86.92,-60.36 13.85,-26.13 16.36,-57.82 7.56,-85.97 -1.2,-3.83 -2.94,-7.33 -4.7,-10.83z"/>
  <path class="fil10" d="M1613.86 705.34c-0.59,2.11 -1.14,4.49 -0.02,6.36 0.83,1.4 2.4,2.15 3.96,2.6 3.47,0.93 7.15,0.54 10.67,-0.21 16.1,-3.4 29.85,-13.7 41.89,-24.92 12.01,-11.22 23,-23.71 36.48,-33.13 -15.75,-19.85 -28.36,-42.19 -37.22,-65.93l-2.02 -2.54 -2.82 0.88c-6.96,4.59 -13.98,9.25 -19.63,15.39 -10.94,11.92 -11.4,30.04 -15.58,45.06 -5.25,18.81 -10.48,37.64 -15.72,56.44z"/>
  <path class="fil10" d="M1704.54 701.51c5.64,17.36 7.8,35.85 6.32,54.04 69.33,-25.48 130.48,-69.74 184.11,-120.54 7.4,-7.02 14.72,-14.21 20.83,-22.39 8.8,-11.81 14.9,-25.37 20.91,-38.83 3.46,-7.71 6.97,-15.67 7.29,-24.13 0.72,-19.72 -15.85,-36.41 -17.36,-56.09 -0.64,-8.35 1.28,-17.63 -3.54,-24.49 -2.32,-3.3 -5.9,-5.48 -9.44,-7.43 -7.14,-3.93 -14.59,-7.35 -22.25,-10.17 10.96,7 17.32,20.58 15.67,33.48 -1.13,8.67 -5.46,16.58 -10.19,23.94 -23.33,36.26 -57.56,64.02 -91.99,90.02 -26.17,19.73 -53.43,39.17 -84.72,48.93 -8.46,2.64 -22.78,4.42 -24.67,14.76 -2.32,12.78 5.2,27.1 9.03,38.89z"/>
  <path class="fil32" d="M1443.69 367.46l-2.29 2.15c-2.53,2.37 -9.97,7.25 -7.4,11.71 0.78,1.33 2.57,1.79 4.08,1.53 2.02,-0.33 3.71,-1.61 5.32,-2.86 14.07,-10.9 28.2,-21.85 40.71,-34.53 1.17,-1.18 2.35,-2.42 3.03,-3.93 1.44,-3.24 -0.04,-5.43 -3.48,-5.56 -3.7,-0.13 -5,2.14 -7.58,4.12 -7.21,5.59 -28.63,23.85 -32.38,27.36z"/>
  <path class="fil18" d="M1869.04 238.74c-9.8,-36.03 -26.64,-70.82 -52.96,-97.31 -31.21,-31.39 -74.97,-48.93 -118.53,-53.64 -49.37,-5.33 -93.14,7.19 -133.79,35.46 -20.87,14.5 -37.46,34.25 -49.93,56.18 -15.86,27.89 -28.54,58 -34.86,89.56 -6.13,30.61 -1.15,58.47 -0.7,88.85 0.1,7.68 0.25,15.57 3.17,22.68 4.15,10.15 13.25,17.26 20.48,25.52 10.76,12.28 19.58,27.72 23.43,43.67 3.71,15.29 -2.79,34.71 -8.24,49.11 -2.11,5.57 -4.59,11.1 -5.53,16.99 -0.94,5.9 -0.15,12.39 3.68,16.97 2.32,2.79 5.56,4.64 8.91,6.03 5.71,2.37 11.93,3.51 18.09,3.35 7.09,-0.18 8.53,-1.28 12.31,5.32 2.28,4.02 2.33,6 2.67,10.58 0.21,2.78 -0.03,5.83 2.24,7.92 0.33,0.29 4.56,3.06 4.79,1.74 -0.96,5.44 -1.11,12.57 3.94,14.81 1.44,0.64 3.07,0.72 4.57,1.18 4.96,1.54 10.07,9.15 12.28,13.62 3.08,6.25 4.25,13.29 7.9,19.28 5.08,8.29 14.6,13.14 24.22,14.48 9.63,1.35 19.42,-0.4 28.83,-2.86 43.87,-11.41 82.35,-37.52 118.51,-64.86 15.03,-11.35 29.82,-23 44.38,-34.94 12.28,-10.06 16.44,-23.68 16.01,-39.32 -0.24,-8.28 -0.98,-16.79 0.83,-24.96 1.65,-7.43 6.5,-11.65 11.92,-16.69 56.11,-52.06 49.53,-141.9 31.36,-208.69z"/>
  <path class="fil33" d="M1654.24 398.91c6.17,0 12.35,2 17.98,4.24 4.32,1.72 9.11,2.61 13.06,5.13 -20.89,-6.72 -41.86,-2.92 -62.7,1.92 -22.49,5.2 -44.99,10.43 -67.49,15.65l-3.53 0.07 -2.37 -2.92c-1.67,-3.9 -2.18,-8.28 -1.49,-12.46 26.83,-3.5 52.14,-6.35 78.99,-9.86 9.15,-1.19 18.36,-2.39 27.56,-1.76z"/>
  <path class="fil33" d="M1473.72 367.85c-1.56,3.72 -0.46,8.13 1.71,11.54 2.18,3.42 5.29,6.1 8.15,8.94 4.94,4.89 9.29,10.5 14.96,14.61 4,2.93 8,4.79 4.63,-1.26 -7.03,-12.6 -20.08,-22.93 -29.44,-33.83z"/>
  <path class="fil34" d="M1685.14 510.1c-2.63,-4.28 -6.28,-7.9 -10.87,-10.46 -9.92,-5.49 -22.29,-2.24 -30.17,5.29 -10.61,10.13 -12.2,26.97 -3.49,38.78 4.61,6.25 11.63,10.83 19.32,11.8 15.13,1.92 29.31,-10.67 30.11,-25.58 0.38,-7.01 -1.32,-14.01 -4.9,-19.83z"/>
  <path class="fil9" d="M2160 768.83c5.33,-10.13 9.75,-20.75 13.1,-31.68 16.59,-54.35 7.71,-115.31 -21.1,-164.31 -42.86,-72.96 -125.85,-119.48 -155.43,-198.76 -17.38,-46.57 -13.65,-98.15 -23.54,-146.85 -15.6,-76.85 -67.33,-145.78 -137.22,-181.33 -69.89,-35.57 -156.56,-36.69 -226.92,-2.08 -41.39,20.36 -76.46,52.88 -100.85,91.94 -21.35,34.22 -45.44,89.22 -32.53,130.17 8.7,27.57 62.2,19.18 83.53,15.79 3.22,-0.52 30.47,-8.97 31.13,-8.29 56.53,59.35 145.28,79.5 201.26,139.35 6.71,-17.91 8.56,-37.58 17.32,-54.57 8.78,-17 28.35,-31.13 46.33,-24.68 7.4,2.64 13.39,8.42 17.4,15.15 6.47,10.85 6.43,22.25 1.24,33.76 -4.04,8.97 -10.28,16.74 -15.94,24.78 -9.44,13.43 -17.47,28.06 -21.75,43.9 -6.44,23.96 -1.87,50.83 11.28,71.86 9.37,14.98 25.5,23.19 34.22,38.41 9.39,16.35 11.31,33.61 5.86,51.76 -5.7,18.94 -16.89,35.74 -24.08,54.15 -20.68,52.93 -4.22,117.42 37.43,156.08 41.64,38.67 105.25,50.67 159.13,32.57 43.01,-14.44 78.94,-46.94 100.14,-87.14z"/>
  <path class="fil32" d="M1805.92 350.15c3.08,-2.03 6.44,-3.69 9.21,-6.04 3.32,-2.78 6.68,-5.18 10.72,-6.78 -5.43,5.4 -10.22,11.43 -14.29,17.92 -2.61,4.14 -5.43,9.41 -9.14,12.68 -5.02,4.39 -77.1,51.94 -93.96,63.85 -7.93,5.59 -15.86,11.18 -23.83,16.69 -7.6,5.24 -15.33,11.83 -23.59,15.96l-3.46 1.15 -2.54 -1.93c-2.82,-3.42 -7.4,-9.26 -3.59,-13.5 3.14,-3.46 10.89,-5.36 15.03,-7.52 12.3,-6.41 23.76,-15.04 35.3,-22.69 19.5,-12.92 38.92,-25.96 58.35,-38.98 15.3,-10.28 30.44,-20.71 45.79,-30.81z"/>
  <path class="fil32" d="M1657.57 506.7c-2.72,3.39 -7.8,3.39 -11.86,3.04 -10.14,-1.02 -19.94,-2.36 -30.11,-3.38 -6.76,-0.68 -13.2,-1.36 -19.63,-3.06 -8.53,-2.12 -16.74,-9.62 -22.97,-15.65 -7.02,-6.76 -12.94,-14.97 -18.64,-22.57 -4.18,-5.57 -7.15,-10.89 -6.18,-18.18 0.96,-7.46 15.71,-1.79 20.39,-1.11 11.51,1.68 22.33,3.37 33.5,5.4 8.79,1.69 17.26,3.72 25.37,6.78 5.08,1.69 10.15,4.06 14.56,7.09 8.46,6.43 14.54,16.25 16.25,26.74 1,4.41 2.7,10.82 -0.68,14.89zm-138.07 -34.18l-1.02 1.7 -1.69 0c-24.17,-12.09 -45.15,-35.47 -59.79,-57.75 -2.43,-3.72 -4.76,-7.57 -6.37,-11.74 -1.29,-3.39 -2.11,-6.98 -2.38,-10.63 3.61,-1.68 7.75,0.6 11.07,2.79 26.67,17.65 69.06,36.59 60.18,75.63zm136.71 -20.29c-1.02,-1.69 -1.7,-3.39 -3.39,-4.4 -1.35,-1.02 -3.04,-1.35 -4.74,-1.7 -19.29,-3.04 -38.24,-6.43 -57.18,-9.47 -15.24,-2.7 -30.44,-5.08 -46.03,-4.73 -7.44,0 -14.89,1.01 -20.97,-4.41 -4.06,-3.72 -8.46,-6.43 -13.19,-9.14 -2.03,-1.35 -4.4,-2.36 -6.43,-3.72 -15.9,-8.79 -31.14,-18.26 -46.03,-28.41 -5.41,-4.06 -10.82,-8.13 -17.25,-9.82 -1.69,-0.67 -3.37,-0.67 -5.07,0 -6.09,2.7 7.44,20.98 9.46,24.7 4.42,7.78 9.15,15.56 13.87,23.02 13.54,20.97 29.46,41.96 52.46,51.76 2.71,1.35 5.41,2.37 8.46,1.69 4.74,-1.36 6.76,-6.78 7.11,-11.5 0,-5.08 -1.36,-9.82 -0.35,-14.56 0.35,-2.37 2.36,-5.07 4.4,-4.07l1.69 1.36c15.22,22.33 28.42,47.71 51.77,60.24 19.97,10.82 43.32,10.49 65.65,10.14 6.08,-0.33 13.54,-1 16.92,-6.09 2.37,-3.39 2.37,-7.78 2.03,-11.85 -1.01,-16.92 -5.75,-33.83 -13.19,-49.06z"/>
  <path class="fil10" d="M1616.14 1062.77c-2.93,8.87 -6.22,17.9 -5.94,27.22 0.49,16.97 12.39,31.18 23.68,43.86 10.56,11.89 21.85,24.25 36.94,29.26 11.44,3.82 23.87,2.94 35.89,1.69 8.94,-0.92 17.87,-2.03 26.79,-3.3 7.03,-1.02 14.85,-2.63 18.92,-8.44 2.26,-3.24 2.97,-7.25 3.67,-11.13 6.9,-38.56 17.75,-76.37 32.31,-112.72 3.51,-8.76 16.35,-28.33 10.5,-37.07 -2.13,-3.17 -5.44,-5.28 -8.7,-7.22 -11.97,-7.13 -24.51,-13.18 -37.18,-18.93 -29.08,-13.24 -58.83,-24.96 -88.54,-36.68l-1.2 -0.19 -1.07 1.13c-5.54,10.5 -38.92,110.87 -46.07,132.53z"/>
  <path class="fil20" d="M559.35 1352.49l4.37 0.87 0.04 0 9.08 1.91 0 3.18c0.1,2.72 0.39,5.62 0.92,8.74l17.36 101.03 44.74 260.83c4.57,26.94 24.78,58.1 45.12,69.63l576.81 331.89 1.07 0.58 -1.52 17.24 9.25 -6.78c5.69,-4.06 8.56,-12.74 7.33,-25.15 -0.14,-1.52 -0.4,-3.1 -0.65,-4.68l-62.04 -361.11 -0.13 -0.76c-3.08,-18.57 -13.65,-39.08 -26.63,-53.85 -5.82,-6.64 -12.14,-12.17 -18.5,-15.78l-576.74 -331.89c-8.9,-5 -16.29,-5.39 -21.46,-2.08l-0.02 -0.07 -6.3 4.75 -2.13 1.51z"/>
  <path class="fil13" d="M561.47 1350.98l2.25 2.39 0.04 0 9.08 5.09 601.87 342.02 9.76 -4.43c-5.82,-6.64 -12.14,-12.17 -18.5,-15.78l-576.74 -331.89c-8.9,-5 -16.29,-5.39 -21.46,-2.08l-0.02 -0.07 -6.3 4.75z"/>
  <path class="fil35" d="M1152.22 1713.84l30.26 56.7 28.75 -19.88 -0.13 -0.76c-3.08,-18.57 -13.65,-39.08 -26.63,-53.85l-32.26 17.79z"/>
  <path class="fil26" d="M552.46 1382.38l17.38 101.04 44.74 260.83c4.57,26.92 24.78,58.1 45.19,69.63l426.58 242.24 150.15 89.65c16.67,9.44 28.21,2.79 29.4,-14.63 0.21,-2.6 0.14,-5.44 -0.18,-8.56 -0.15,-1.58 -0.39,-3.1 -0.67,-4.75l-62.11 -361.87c-4.57,-26.92 -24.83,-58.08 -45.18,-69.61l-210.71 -120.23 -200.24 -117.99 -0.07 0 -165.72 -93.67c-13.61,-7.67 -23.78,-4.64 -27.72,6.19 -1.94,5.44 -2.3,12.81 -0.85,21.72z"/>
  <path class="fil36" d="M3118.39 484.47l0 936.69c0,37.32 -13.14,62 -33.1,72.52l-34.02 19.79 3.15 -21.54 6.31 -4.74c-5.26,-2.09 -11.04,-4.21 -16.29,-7.35l-43.08 -24.69 -484.46 -280.07c-49.4,-28.37 -89.33,-104.57 -89.33,-169.71l0 -936.71c0,-9.46 1.57,-18.39 3.15,-26.79l-19.97 -17.35 34.54 -19.26c15.24,-7.87 34.68,-7.36 56.74,4.72l527.57 304.76c24.68,14.19 47.28,40.98 63.06,71.98 15.76,30.49 25.74,65.68 25.74,97.74z"/>
  <path class="fil37" d="M3118.39 484.47l0 936.69c0,37.32 -13.14,62 -33.1,72.52l-34.02 19.79 3.15 -21.54 6.31 -4.74c-5.26,-2.09 -11.04,-4.21 -16.29,-7.35l-43.08 -24.69 -85.64 -509.17 56.21 -467.99 68.85 -64.11 51.88 -27.15c15.76,30.49 25.74,65.68 25.74,97.74z"/>
  <path class="fil34" d="M2992.89 1509.26l-527.68 -304.65c-49.07,-28.35 -88.86,-104.36 -88.86,-169.8l0 -936.47c0,-65.44 39.79,-95.53 88.86,-67.2l527.68 304.65c49.07,28.33 88.87,104.36 88.87,169.81l0 936.49c0,65.44 -39.81,95.52 -88.87,67.18z"/>
  <path class="fil13" d="M2781.32 713.72c0,21.76 -15.31,30.64 -34.28,19.69l-63.3 -36.56c-18.96,-10.94 -34.25,-37.49 -34.25,-59.25l0 -72.48c0,-21.76 15.29,-30.64 34.25,-19.68l63.3 36.54c18.97,10.94 34.28,37.5 34.28,59.25l0 72.49zm-13.61 -143.52l-104.63 -60.42c-18.96,-10.94 -34.28,-2.07 -34.28,19.54l0 120.06c0,21.76 15.32,48.31 34.28,59.25l104.63 60.42c18.97,10.94 34.26,2.08 34.26,-19.69l0 -120.06c0,-21.61 -15.29,-48.15 -34.26,-59.1z"/>
  <path class="fil13" d="M2781.32 990.77c0,21.75 -15.31,30.62 -34.28,19.68l-63.3 -36.54c-18.96,-10.96 -34.25,-37.5 -34.25,-59.26l0 -72.47c0,-21.78 15.29,-30.64 34.25,-19.69l63.3 36.56c18.97,10.94 34.28,37.48 34.28,59.24l0 72.5zm-13.61 -143.53l-104.63 -60.42c-18.96,-10.94 -34.28,-2.07 -34.28,19.56l0 120.06c0,21.76 15.32,48.31 34.28,59.25l104.63 60.4c18.97,10.94 34.26,2.08 34.26,-19.68l0 -120.06c0,-21.63 -15.29,-48.17 -34.26,-59.11z"/>
  <path class="fil13" d="M2781.32 1267.81c0,21.76 -15.31,30.64 -34.28,19.68l-63.3 -36.54c-18.96,-10.96 -34.25,-37.5 -34.25,-59.25l0 -72.48c0,-21.76 15.29,-30.64 34.25,-19.7l63.3 36.56c18.97,10.94 34.28,37.49 34.28,59.24l0 72.5zm-13.61 -143.53l-104.63 -60.4c-18.96,-10.94 -34.28,-2.08 -34.28,19.54l0 120.06c0,21.76 15.32,48.3 34.28,59.25l104.63 60.42c18.97,10.94 34.26,2.07 34.26,-19.68l0 -120.07c0,-21.62 -15.29,-48.17 -34.26,-59.11z"/>
  <path class="fil38" d="M2806.64 459.81c-9.92,-8.65 -20.06,-7.56 -23.53,1.49l-74.14 187.04 -15.87 -47.33c-4.41,-13.14 -15.1,-25.08 -24.71,-26.61 -11.04,-1.75 -15.96,9.76 -11.03,24.47l42.67 125.89c5.32,15.67 21.24,23.89 25.37,13.13l94.87 -240.76c3.89,-10.13 -2.26,-27.39 -13.64,-37.31z"/>
  <path class="fil15" d="M3081.82 505.52l0 78.6 -705.47 -407.28 0 -78.59c0,-65.39 39.76,-95.41 88.81,-67.11l527.68 304.63c49.19,28.29 88.98,104.37 88.98,169.76z"/>
  <path class="fil37" d="M2555.9 248.65l-0.32 -14.54c0,-0.06 0.08,-2.15 0.24,-6.26 -0.44,-1.85 -1.29,-16.43 -2.58,-43.79 -1.32,-27.35 -2.02,-44.01 -2.11,-50l-0.65 -0.36c-8.83,-5.3 -13.22,-9.68 -13.22,-13.25l1.75 -1.86 3.42 0.86 22.17 14.52 2.64 1.44c3.41,1.97 5.11,4.44 5.11,7.43 0,1.54 -0.56,2.43 -1.67,2.74 -1.13,0.3 -2.37,0.06 -3.78,-0.74l-7.49 -5.63 -0.32 1.75c0,11.82 0.9,30.08 2.72,54.74 1.8,24.65 2.72,42.93 2.72,54.85 0,1.47 -0.6,2.42 -1.76,2.87 -1.17,0.46 -2.44,0.28 -3.83,-0.52l-3.03 -4.25z"/>
  <path class="fil37" d="M2588.45 187.56l-0.79 16.82c0,18.11 1.26,34.65 3.82,49.61 2.72,9.46 5.3,15.57 7.75,18.39 1.94,1.14 3.74,1.26 5.32,0.35 1.61,-0.9 2.86,-2.63 3.81,-5.18 0.92,-2.54 1.72,-5.33 2.35,-8.39 0.6,-3.01 1.04,-6.36 1.36,-10.01 0.52,-6.36 0.81,-11.87 0.81,-16.58 0,-4.7 -0.36,-12.08 -1.07,-22.21 -0.74,-10.13 -1.1,-17.54 -1.1,-22.31l0 -3.32c-0.11,-4.64 -1.4,-9.44 -3.9,-14.46 -2.5,-5 -5.69,-8.63 -9.58,-10.86 -3.71,-2.15 -6.18,-1.17 -7.4,2.94 -1.02,3.44 -1.53,8.1 -1.53,14.03l0.17 11.18zm-9.65 20.04l0.17 -7.06 -0.24 -1.04 0 -3.38c0,-19.65 0.97,-33.07 2.94,-40.22 1.64,-6.08 3.24,-9.5 4.79,-10.22 1.53,-0.78 3.04,-0.71 4.54,0.15 12.65,7.31 21.37,19.65 26.17,37.04 2.75,10.01 4.13,21.19 4.13,33.54l0 1.35 0.33 21.43c0,35.94 -7.26,49.74 -21.79,41.35 -6,-3.46 -10.59,-9.94 -13.78,-19.43 -3.03,-9.06 -4.89,-17.35 -5.58,-24.81 -1.13,-11.33 -1.68,-20.9 -1.68,-28.71z"/>
  <path class="fil37" d="M2662.47 300.3l0 4.47c9.46,5.47 15.15,-2.21 17.07,-23.08 0.42,-4.82 0.64,-9.59 0.64,-14.28 0,-37.69 -6.33,-61.07 -19,-70.08 -0.79,4.47 -1.2,11.04 -1.2,19.68 0,8.62 0.42,22.37 1.24,41.21 0.83,18.85 1.25,32.87 1.25,42.08zm-11.42 -17.11l0.48 -58.75c0,-4.03 -0.32,-10.35 -0.96,-19.01 -0.64,-8.63 -0.97,-14.06 -0.97,-16.33 0,-2.24 0.63,-3.65 1.83,-4.2 1.24,-0.57 2.54,-0.4 3.93,0.39 11.21,6.49 20.32,19.29 27.36,38.37 4.03,10.97 6.04,21.22 6.04,30.8l-0.3 9.25 0 10.33c0,12.57 -0.49,20.68 -1.47,24.32 -0.99,3.64 -2.02,6.58 -3.08,8.75 -1.06,2.18 -2.33,3.96 -3.82,5.29 -3.46,3 -7.82,4.54 -13.09,4.54l-11.8 -6.82c-2.78,-1.6 -4.15,-10.57 -4.15,-26.93z"/>
  <path class="fil37" d="M2707.61 256.37l-0.79 16.82c0,18.11 1.26,34.67 3.82,49.61 2.71,9.46 5.31,15.57 7.75,18.39 1.94,1.14 3.74,1.26 5.32,0.33 1.61,-0.89 2.86,-2.63 3.8,-5.17 0.93,-2.56 1.72,-5.33 2.35,-8.4 0.58,-3 1.04,-6.35 1.36,-10 0.53,-6.36 0.81,-11.89 0.81,-16.59 0,-4.69 -0.36,-12.09 -1.1,-22.21 -0.71,-10.12 -1.07,-17.56 -1.07,-22.3l0 -3.32c-0.1,-4.64 -1.42,-9.46 -3.89,-14.46 -2.52,-5 -5.71,-8.62 -9.6,-10.87 -3.69,-2.14 -6.18,-1.17 -7.4,2.96 -1.02,3.43 -1.52,8.1 -1.52,14.03l0.15 11.18zm-9.65 20.04l0.17 -7.06 -0.24 -1.06 0 -3.37c0,-19.65 0.97,-33.07 2.94,-40.22 1.64,-6.07 3.24,-9.48 4.79,-10.22 1.53,-0.76 3.04,-0.7 4.54,0.15 12.67,7.31 21.39,19.65 26.17,37.07 2.76,10 4.14,21.17 4.14,33.52l0 1.35 0.32 21.43c0,35.96 -7.25,49.74 -21.76,41.36 -6.03,-3.47 -10.63,-9.94 -13.81,-19.43 -3.03,-9.06 -4.89,-17.35 -5.58,-24.81 -1.13,-11.33 -1.68,-20.92 -1.68,-28.71z"/>
  <path class="fil37" d="M2779.57 275.73l0.47 45.32c-0.65,1.35 -0.96,3.29 -0.96,5.86l0 3.75 -0.64 29.47c0,8.6 1.83,13.97 5.5,16.09l6.79 3.62c5.85,3.38 8.76,6.91 8.76,10.56 0,1.36 -0.5,2.18 -1.52,2.46 -1.01,0.3 -2.15,0.18 -3.44,-0.36 -3.97,-3.78 -8.85,-7.32 -14.58,-10.63 -1.76,0.15 -3.44,-0.25 -5.06,-1.18 -1.63,-0.94 -2.89,-2.32 -3.79,-4.1 -0.92,-1.82 -1.37,-3.47 -1.37,-5.02 0,-9.26 0.35,-23.01 1.04,-41.26 0.7,-18.26 1.04,-32.01 1.04,-41.28l0 -1.39c-0.64,-8.17 -0.96,-14.21 -0.96,-18.11 0,-11.86 1.89,-16.67 5.67,-14.5 1.11,0.65 2.1,1.68 2.92,3.07 0.83,1.39 1.22,2.71 1.22,4l-1.09 13.63z"/>
  <path class="fil37" d="M2824.46 344.41l0.81 40.28 0 5.59 -0.08 5.15 2.15 1.26 4.7 2.52c4.47,2.57 6.71,5.43 6.71,8.53 0,1.59 -0.54,2.64 -1.64,3.14 -1.1,0.5 -2.36,0.33 -3.79,-0.5l-7.18 -4.14c-4.94,-2.86 -8.11,-4.79 -9.48,-5.83l-2 -0.98c-3.88,-2.24 -5.83,-4.75 -5.83,-7.59l0.97 -2.72 1.92 -0.56 4.61 2.67 0.33 -2.28 -1.13 -40.46 0.87 -41.22c0,-7.14 -0.25,-14.02 -0.79,-20.61l-3.1 -1.78 -3.76 -2c-1.58,-0.92 -2.85,-1.99 -3.75,-3.22 -0.9,-1.19 -1.35,-2.79 -1.35,-4.76 0,-2.85 2.69,-2.72 8.06,0.38l19.47 11.24c4.4,2.56 6.61,5.12 6.61,7.74l-1.44 2.39 -3.28 -0.41 -8.36 -4.85c0.42,5.36 0.64,11.29 0.64,17.76l-0.89 35.28z"/>
  <path class="fil37" d="M2847.2 411.98l6.79 5.32c2.07,1.19 3.88,1.19 5.42,0 1.54,-1.17 2.68,-3.11 3.42,-5.81 1.46,-5.13 2.17,-10.01 2.17,-14.61 0,-4.61 -0.67,-9.58 -1.98,-14.86 -1.35,-5.28 -2.97,-10.42 -4.92,-15.42 -1.93,-4.98 -3.86,-10.04 -5.79,-15.19 -4.57,-12.15 -6.85,-22.81 -6.85,-31.96 0,-5.63 0.82,-10.11 2.48,-13.49 3.07,-6.29 7.15,-7.94 12.28,-5 1.9,1.11 3.72,2.86 5.46,5.26 1.74,2.4 2.6,4.44 2.6,6.07 0,2.89 -1.33,3.53 -3.99,1.98 -1.17,-0.67 -2.32,-1.68 -3.46,-3.06 -3.44,-1.82 -5.78,1.25 -7,9.21 -0.26,1.75 -0.4,3.9 -0.4,6.42 0,2.54 0.47,5.92 1.44,10.22 0.94,4.26 2.17,8.26 3.62,12.02 1.46,3.74 3.03,7.85 4.71,12.32 1.68,4.47 3.26,8.79 4.74,12.97 3.42,9.57 5.08,19.28 5.03,29.07 0.06,7.58 -1.46,13.93 -4.56,19.06 -1.47,2.56 -3.57,4.12 -6.33,4.72 -2.72,0.58 -5.86,-0.11 -9.36,-2.07l0 0.46c-4.47,-3.32 -6.93,-7.15 -7.35,-11.49l1.83 -2.15z"/>
  <path class="fil37" d="M2897.45 445.85l-0.32 -14.56c0,-0.07 0.09,-2.15 0.24,-6.26 -0.43,-1.85 -1.28,-16.43 -2.59,-43.78 -1.32,-27.36 -2.03,-44.03 -2.11,-50.01l-0.64 -0.38c-8.83,-5.28 -13.24,-9.68 -13.24,-13.22l1.75 -1.87 3.43 0.83 22.17 14.54 2.64 1.43c3.41,1.96 5.11,4.46 5.11,7.43 0,1.53 -0.57,2.44 -1.7,2.75 -1.09,0.31 -2.36,0.04 -3.75,-0.75l-7.49 -5.61 -0.32 1.74c0,11.83 0.9,30.09 2.71,54.74 1.82,24.67 2.71,42.93 2.71,54.85 0,1.46 -0.58,2.41 -1.75,2.87 -1.18,0.46 -2.43,0.28 -3.82,-0.53l-3.04 -4.21z"/>
  <polygon class="fil9" points="1197.63,572.08 975.97,239.08 754.31,316.13 754.29,316.12 741.4,323.72 754.29,630.7 1184.76,894.26 1197.64,886.67 1197.64,572.09 "/>
  <polygon class="fil9" points="1184.76,579.56 1197.63,572.08 975.97,239.08 963.08,246.66 "/>
  <polygon class="fil33" points="1184.76,894.26 741.4,638.28 741.4,323.7 1184.76,579.67 "/>
  <polygon class="fil39" points="963.08,246.66 741.4,323.72 1184.76,579.69 "/>
  <polygon class="fil39" points="963.08,656.62 1184.76,579.56 741.4,323.59 "/>
  <polygon class="fil40" points="1140.36,416.99 1140.36,594.95 1015.5,638.38 963.1,656.63 910.61,577.83 782.96,386.01 782.96,210.65 "/>
  <polygon class="fil9" points="1184.76,894.3 741.36,638.3 910.53,577.73 1015.67,638.43 "/>
  <path class="fil34" d="M978.43 454.08c-4.15,-7.39 -7.87,-11.68 -13.68,-15.03 -17.41,-10.06 -20.74,35.38 -20.74,53.22 0,14.28 3.53,22.03 10.56,26.09 8.11,4.67 14.74,-2.93 16.8,-17.43l7.06 -46.86zm1.03 -2.72l3.53 -5.11 22.6 13.06 -6.63 39.47c-1.46,9.15 -2.48,16.65 -2.48,23.79 0,11.89 1.87,19.64 11.82,25.37 10.78,6.24 25.71,-2.51 25.71,-36.32 0,-45.92 -24.26,-88.47 -66.97,-113.14 -39.61,-22.88 -75.07,-10.5 -75.07,46.12 0,58.31 38.97,101.75 75.91,123.06 20.93,12.1 37.32,12.52 48.3,8.15l3.32 6.2c-12.44,6.15 -32.97,2.14 -51.83,-8.75 -42.72,-24.67 -81.5,-72.75 -81.5,-131.06 0,-54.96 33.17,-76.5 82.32,-48.13 41.26,23.83 70.92,68.56 70.92,119 0,40.46 -15.76,50.63 -41.67,35.67 -17.64,-10.18 -24.06,-21.99 -27.17,-32.82 -2.5,6.17 -8.1,11.98 -20.32,4.91 -20.33,-11.74 -30.29,-34.85 -30.29,-53.64 0,-41.87 23.24,-45.61 41.48,-35.07 8.71,5.03 13.28,11.22 18.03,19.22z"/>
  <polygon class="fil41" points="1184.76,894.3 1197.64,886.67 1197.63,572.08 1184.76,579.56 "/>
  <path class="fil42" d="M3070.03 2143.95l0 34.96 -0.03 0c-0.11,6.79 -5.07,13.94 -14.76,19.53l-401.04 231.54 -3.26 1.87c-17.92,10.35 -44.98,11.46 -60.48,2.51l-0.78 -0.46 -211.22 -121.93c-6.65,-3.86 -10.11,-8.94 -10.42,-14.33l-0.03 0 0 -34.63 39.1 0 247.09 -142.65 32.31 -18.65 100.6 -58.09c17.91,-10.32 44.98,-11.46 60.48,-2.51l104.96 60.6 88.2 50.93 0 -8.69 29.29 0z"/>
  <path class="fil43" d="M3070.03 2143.95l0 34.96 -0.03 0c-0.11,6.79 -5.07,13.94 -14.76,19.53l-401.04 231.54 0 -328.26 298.35 0 88.2 50.93 0 -8.69 29.29 0z"/>
  <path class="fil44" d="M2654.2 2371.83l0 58.15 -3.26 1.87c-17.92,10.35 -44.98,11.46 -60.48,2.51l-0.78 -0.46 0 -62.08 64.53 0z"/>
  <path class="fil45" d="M2590.45 2400.12l-211.99 -122.4c-15.5,-8.93 -13.57,-24.57 4.33,-34.92l404.32 -233.42c17.89,-10.33 44.97,-11.47 60.47,-2.52l211.99 122.39c15.5,8.94 13.57,24.58 -4.35,34.92l-404.3 233.43c-17.91,10.33 -44.97,11.46 -60.47,2.52z"/>
  <polygon class="fil43" points="2658.84,2360.71 2446.68,2238.23 2798.54,2035.07 3010.7,2157.57 "/>
  <polygon class="fil9" points="2454.63,2238.23 2798.54,2039.66 3002.75,2157.57 2658.85,2356.13 "/>
  <path class="fil46" d="M2955.85 2107.13c-1.79,0 -3.5,-0.36 -4.76,-1.09l-47.48 -27.42c-2.82,-1.63 -2.47,-4.46 0.78,-6.33 1.78,-1.03 4.06,-1.56 6.21,-1.56 1.79,0 3.5,0.36 4.76,1.1l47.49 27.42c2.82,1.62 2.46,4.46 -0.78,6.33 -1.79,1.03 -4.06,1.56 -6.21,1.56z"/>
  <path class="fil42" d="M2958.34 2096.57l0 4.22c-0.14,1.15 -1,2.37 -2.67,3.32 -2.28,1.33 -5.37,1.83 -8,1.44l-2.98 -0.99 -47.47 -27.42 -1.87 -2.62 -0.03 -4.1 3.01 0.24c3.22,-1.71 7.92,-1.87 10.64,-0.29l40.22 23.21 6.64 3.85 0.13 -0.86 2.39 0z"/>
  <path class="fil43" d="M2958.34 2096.57l0 4.22c-0.14,1.15 -1,2.37 -2.67,3.32 -2.28,1.33 -5.37,1.83 -8,1.44l0 -11.97 1.52 0 6.64 3.85 0.13 -0.86 2.39 0z"/>
  <path class="fil13" d="M2944.68 2100.62l-47.47 -27.42c-2.82,-1.63 -2.47,-4.47 0.78,-6.35 3.25,-1.86 8.17,-2.07 10.97,-0.44l47.49 27.42c2.8,1.63 2.46,4.46 -0.78,6.33 -3.26,1.88 -8.17,2.07 -10.98,0.46z"/>
  <path class="fil47" d="M2499.06 2375.59l-27.79 -16.04c-3.19,-1.85 -5.78,-6.79 -5.78,-11.04l0 -0.39c0,-4.24 2.59,-6.19 5.78,-4.36l27.79 16.04c3.18,1.85 5.76,6.79 5.76,11.04l0 0.39c0,4.24 -2.58,6.2 -5.76,4.36z"/>
  <path class="fil45" d="M2502.77 2374.02l-27.79 -16.06c-3.18,-1.83 -5.78,-6.78 -5.78,-11.03l0 -0.37c0,-1.37 0.31,-2.5 0.78,-3.33 -2.57,-0.71 -4.49,1.24 -4.49,4.89l0 0.39c0,4.25 2.59,9.19 5.78,11.04l27.79 16.04c2.14,1.24 4,0.72 5,-1.04l-1.29 -0.53z"/>
  <path class="fil46" d="M2541.77 2351.07c-3.04,0 -5.96,-0.61 -8.13,-1.86l-53.72 -31.03c-4.79,-2.76 -4.2,-7.61 1.33,-10.8l8.71 -5.03c3.03,-1.75 6.91,-2.65 10.57,-2.65 3.06,0 5.96,0.61 8.14,1.87l53.72 31.01c4.79,2.78 4.19,7.6 -1.33,10.81l-8.72 5.03c-3.02,1.74 -6.91,2.64 -10.57,2.64z"/>
  <path class="fil42" d="M2559.27 2330.95l0 4.68 -0.06 0.03c0.08,2.14 -1.43,4.44 -4.52,6.25l-8.71 5.03c-2.91,1.69 -6.62,2.6 -10.17,2.63 -3.17,0.08 -6.25,-0.53 -8.51,-1.86l-53.75 -31c-2.15,-1.25 -3.15,-2.89 -3.18,-4.64l-0.06 0 0 -4.76 1.99 0.61 2.59 -2.02 8.71 -5.03c5.53,-3.19 13.92,-3.56 18.71,-0.78l39.63 22.87 14.08 8.15 1.61 1.19 1.63 -1.36z"/>
  <path class="fil43" d="M2559.27 2330.95l0 4.68 -0.06 0.03c0.08,2.14 -1.43,4.44 -4.52,6.25l-8.71 5.03c-2.91,1.69 -6.62,2.6 -10.17,2.63l0 -26.6 6.13 0 14.08 8.15 1.61 1.19 1.63 -1.36z"/>
  <path class="fil42" d="M2527.29 2342.99l-53.72 -31.01c-4.81,-2.76 -4.2,-7.61 1.33,-10.79l8.71 -5.04c5.54,-3.18 13.9,-3.54 18.7,-0.76l53.73 31.01c4.8,2.76 4.2,7.61 -1.35,10.8l-8.69 5.04c-5.54,3.18 -13.92,3.54 -18.71,0.76z"/>
  <path class="fil13" d="M2526.34 2341.19l-49.65 -28.67c-4.42,-2.56 -3.86,-7.03 1.25,-9.97l8.04 -4.65c5.11,-2.96 12.86,-3.26 17.28,-0.72l49.67 28.68c4.43,2.56 3.87,7.03 -1.25,9.97l-8.04 4.65c-5.13,2.96 -12.85,3.26 -17.29,0.71z"/>
  <path class="fil45" d="M2675.4 2138.74l-12.9 7.64 -2.19 0.9 -1.09 0.63 -8.87 4.89c-2.5,1.43 -3.17,2.48 -1.92,3.21l2.36 1.26c1.94,1.12 2.42,2 1.36,2.62l-1.49 0.25 -1.63 -0.37c-0.9,-1.02 -2.33,-2.08 -4.23,-3.21l-2.22 -0.68 -0.69 -1.06 0.76 -0.96c2.69,-1.56 6.89,-3.82 12.5,-6.82 5.64,-2.98 9.79,-5.26 12.48,-6.8l0.43 -0.25c2.04,-1.4 3.62,-2.47 4.76,-3.13 3.43,-1.97 5.79,-2.59 7.04,-1.87l0.58 0.79 -0.54 0.81 -4.52 2.15z"/>
  <path class="fil45" d="M2680.95 2149.38l-5.31 2.75c-5.25,3.04 -9.37,5.94 -12.46,8.68 -1.39,1.85 -1.87,3.11 -1.43,3.83l2.59 0.57 3.41 -0.5 3.64 -1.18 3.57 -1.56c2.11,-1 3.83,-1.91 5.2,-2.67 1.36,-0.8 3.36,-2.09 5.92,-3.86 2.58,-1.76 4.58,-3.02 5.96,-3.83l0.96 -0.54c1.29,-0.78 2.02,-1.72 2.2,-2.82 0.19,-1.07 -0.33,-1.97 -1.64,-2.74 -1.25,-0.71 -2.78,-0.79 -4.59,-0.22 -1.52,0.46 -3.11,1.21 -4.85,2.19l-3.15 1.89zm-10.68 2.43l2.14 -1.17 0.2 -0.19 0.97 -0.57c5.7,-3.28 10.11,-5.44 13.19,-6.44 2.58,-0.86 4.36,-1.28 5.35,-1.26l2.24 0.48c4.22,2.43 5.06,5.35 2.39,8.72 -1.5,1.94 -4.06,3.94 -7.64,6.01l-0.39 0.24 -6.07 3.61c-10.43,6.03 -18.07,7.64 -22.92,4.83 -2.03,-1.17 -2.47,-2.69 -1.32,-4.59 1.13,-1.79 2.6,-3.36 4.41,-4.71 2.7,-1.99 5.19,-3.65 7.46,-4.96z"/>
  <path class="fil45" d="M2708.59 2153.59l-0.94 0.35c-1.48,0.85 -3.6,2.11 -6.37,3.76 -2.69,1.68 -4.71,2.87 -5.97,3.61 1.26,0.22 3.1,-0.06 5.53,-0.8 2.39,-0.76 4.06,-1.47 5.06,-2.04l2.13 -1.29 1.21 -1.11 -0.63 -2.47zm-16.22 9.13l-5.97 3.37c-4.79,2.76 -8.2,5.15 -10.29,7.15l-2.1 0.47 -1.49 -0.88 0.09 -0.86c1.67,-0.94 3.48,-1.97 5.5,-3.15 2.04,-1.18 6.22,-3.75 12.57,-7.75 6.32,-4.04 11.08,-6.98 14.39,-8.87 1.71,-1 3.18,-1.14 4.39,-0.43 1.9,1.09 3.01,2.3 3.32,3.61 0.36,1.33 -0.44,2.53 -2.31,3.58l-3.82 2.21c-1.03,0.6 -2.15,1.06 -3.43,1.33 -1.25,0.26 -2.64,0.5 -4.07,0.76 -1.47,0.25 -2.29,0.37 -2.44,0.43 -0.69,0.61 -2.07,1.82 -4.17,3.58 -4.57,3.89 -7.43,6.93 -8.63,9.11l-1.08 1.28 -1.37 0.37 -1.28 -0.25c-0.79,-0.44 -0.59,-1.39 0.41,-2.81 1.04,-1.4 2.4,-2.83 4.11,-4.32 5.18,-4.52 8,-7.03 8.32,-7.58l-0.64 -0.37z"/>
  <path class="fil45" d="M2712.93 2163.92l4.31 -2.82c2.56,-1.48 4.57,-1.79 6.1,-0.91l3.35 2.72c1.29,1.24 1.54,2.06 0.82,2.47 -0.74,0.43 -1.85,0.43 -3.32,0.06 -1.08,-1.32 -2.14,-2.31 -3.1,-3l-2.25 1.4 -8.07 4.36 -0.67 0.58 2.01 1.07c1.76,1.04 2.15,1.8 1.14,2.4l-1.48 0.31 -1.63 -0.44 -1.5 -0.97 -1.37 -0.79c-1.28,0.85 -2.63,1.67 -3.99,2.44l-10.07 5.56c-2.04,1.18 -3.04,1.78 -2.97,1.82l4.18 2.26c1.39,0.79 1.64,1.44 0.76,1.94l-1.93 0.29 -1.98 -0.72 -4.61 -2.65 -0.82 -1.06 0.56 -1.03 1.42 -0.83 8.86 -5.52 16.26 -8.94z"/>
  <path class="fil45" d="M2717.9 2197.86l6.99 -4c1.64,-0.93 3.85,-2.37 6.68,-4.33 2.87,-1.93 4.82,-3.25 5.89,-3.88 1.08,-0.62 2.43,-1.32 4,-2.15 1.58,-0.83 2.72,-1.46 3.47,-1.88 -0.65,0.18 -3.76,1.28 -9.36,3.26 -14.53,5.17 -22.35,7.42 -23.56,6.72l-1.01 -1.35 1.1 -1.32c1.72,-1 4.56,-3.44 8.57,-7.32 4,-3.87 6.96,-6.89 8.82,-9.09 -13.46,7 -22.44,11.78 -26.94,14.37l-1.54 0.97 -1.74 0.54 -1.64 -0.41 -0.89 -0.96 0.37 -0.82c3.71,-2.14 9.53,-5.2 17.46,-9.13 7.94,-3.94 13.79,-6.97 17.5,-9.1l0.79 -0.86 1.58 -0.15 1.82 0.65c0.76,0.46 -1.35,3.44 -6.28,9 -4.97,5.53 -8.62,9.28 -10.89,11.2 0.74,-0.21 2.39,-0.78 5.04,-1.74 2.67,-0.94 5.42,-1.94 8.33,-2.94 2.93,-1.02 5.87,-2.02 8.94,-2.98 6.97,-2.26 10.97,-3.1 12.04,-2.47l0.97 1 -0.46 1c-2.6,1.53 -6.39,3.85 -11.39,6.97 -4.96,3.14 -8.61,5.4 -10.97,6.76l-5.85 3.24 -0.03 0.01c-0.4,0.25 -1.64,1.04 -3.57,2.42l-0.94 0.69 -1.01 0.83 -1.89 0.51 -2.13 -0.35c-1.14,-0.67 -0.56,-1.65 1.71,-2.94z"/>
  <path class="fil45" d="M2754.35 2198.69l-11.28 6.82 -1.63 0.93 -1.56 0.85 0.74 0.42 1.64 0.89c1.47,0.83 1.78,1.56 0.87,2.07l-1.72 0.36 -1.74 -0.44 -2.39 -1.37c-1.69,-0.98 -2.69,-1.61 -3.1,-1.9l-0.75 -0.39c-1.28,-0.71 -1.53,-1.33 -0.71,-1.81l1.26 -0.37 1.11 0.1 1.56 0.9 0.87 -0.35 11.14 -6.89 12.4 -6.82c2.07,-1.21 3.94,-2.37 5.6,-3.54l-1.07 -0.61 -1.32 -0.69 -0.93 -0.89 0.69 -0.94c0.85,-0.48 2.15,-0.18 3.92,0.86l6.54 3.76c1.49,0.85 1.85,1.5 1.1,1.94l-1.43 0.26 -1.53 -0.4 -2.78 -1.61c-1.39,0.93 -2.94,1.94 -4.83,3.03l-10.69 5.85z"/>
  <path class="fil45" d="M2746.18 2212.17l1.87 1.57 2.74 0.53 3.4 -0.65c2.21,-0.71 4,-1.47 5.33,-2.22 1.33,-0.79 2.42,-1.68 3.32,-2.69l1.97 -3.06 1.53 -3.11c1.18,-2.47 3.18,-4.47 5.82,-6.02 1.63,-0.93 3.35,-1.63 5.13,-2.03 3.42,-0.74 5.9,-0.63 7.64,0.33l1.22 1.43 -0.47 1.26 -2.56 -0.03 -0.82 -0.86c-1.25,-0.64 -3.32,-0.35 -6.25,0.88l-2.03 1.03 -2.25 1.85 -1.69 2.37 -1.18 2.5 -1.37 2.64c-1.07,1.93 -3.02,3.74 -5.92,5.36 -2.14,1.28 -4.76,2.21 -7.8,2.74 -1.47,0.31 -3.02,0.35 -4.57,0.17 -1.54,-0.12 -2.92,-0.57 -4.1,-1.22l-0.13 0.06c-1.28,-0.97 -1.46,-1.85 -0.37,-2.63l1.54 -0.19z"/>
  <path class="fil45" d="M2788.46 2205.03l-10.53 6.18 -0.08 0.03c2.46,1.11 6.64,-0.03 12.47,-3.41 1.71,-0.98 2.65,-1.79 2.86,-2.39l-1.18 -1.82 -0.47 -0.37 -3.07 1.78zm-8.85 1.94l5.26 -2.94c2.21,-1.26 3.74,-2.33 4.58,-3.15 1.54,-0.6 2.68,-0.68 3.42,-0.26l2.39 1.39c2.14,1.22 2.71,2.57 1.82,4.07 -0.79,1.32 -2.18,2.56 -4.18,3.71 -2.53,1.46 -4.15,2.32 -4.83,2.58l-2.04 0.72 -1.78 0.4 -1.8 0.18 -2.07 -0.08c-1.5,-0.2 -3.08,-0.54 -4.82,-1.06l-5.82 3.36 -9.85 6.21 -1.68 0.33 -1.75 -0.5 -0.48 -1.03c1.56,-1.42 4.01,-3.07 7.33,-5l9.91 -5.48 0.97 -0.94 0.18 -0.1c1.11,-0.21 2.85,-1 5.24,-2.4z"/>
  <path class="fil45" d="M2805.98 2221.35l-0.85 0.58c-16.1,9.29 -26.5,12.57 -31.21,9.86 -1.82,-1.06 -2.43,-2.25 -1.82,-3.61 0.62,-1.39 1.56,-2.61 2.89,-3.57 1.99,-1.52 4.49,-3.15 7.43,-4.93 2.97,-1.75 7.29,-4.26 12.94,-7.54l7.56 -4.63 2.29 0.02 0.15 1.25 -1.59 1.53 -14.78 8.54c-1.29,0.75 -3.13,1.93 -5.39,3.56 -2.3,1.6 -4.1,2.78 -5.39,3.53 -2.65,1.54 -2.85,2.97 -0.53,4.31 2.61,1.51 13.68,-3.38 33.17,-14.64l3.07 -1.76 0.86 -0.54 1.22 -0.37 1.41 0.43 0.87 0.76 -0.18 0.68 -1.48 1.14 -5.85 2.93 -4.8 2.49z"/>
  <path class="fil45" d="M2806.46 2248.99l6.97 -3.98c1.64,-0.94 3.89,-2.38 6.74,-4.32 2.83,-1.97 4.79,-3.25 5.89,-3.88 1.07,-0.62 2.39,-1.36 3.96,-2.17 1.57,-0.83 2.75,-1.44 3.5,-1.87 -0.68,0.17 -3.8,1.26 -9.39,3.25 -14.53,5.17 -22.35,7.39 -23.53,6.71l-1.06 -1.32 1.13 -1.32c1.72,-1 4.57,-3.43 8.56,-7.32 4,-3.89 6.96,-6.91 8.82,-9.1 -13.46,6.96 -22.46,11.76 -26.96,14.36l-1.5 0.98 -1.76 0.56 -1.61 -0.42 -0.93 -0.97 0.42 -0.82c3.71,-2.12 9.5,-5.18 17.46,-9.11 7.9,-3.96 13.76,-6.97 17.47,-9.11l0.82 -0.85 1.58 -0.15 1.79 0.65c0.79,0.44 -1.32,3.43 -6.28,9 -4.98,5.54 -8.61,9.25 -10.89,11.19 0.72,-0.22 2.39,-0.8 5.07,-1.74 2.64,-0.94 5.39,-1.94 8.29,-2.94 2.93,-1.01 5.88,-2.04 8.94,-3.01 6.99,-2.25 11.02,-3.08 12.08,-2.46l0.97 1 -0.46 1.02c-2.6,1.51 -6.42,3.83 -11.42,6.97 -4.96,3.14 -8.58,5.39 -10.94,6.75l-5.89 3.25 -0.02 0.01c-0.42,0.24 -1.61,1.03 -3.57,2.41l-0.94 0.68 -1.01 0.86 -1.86 0.5 -2.13 -0.35c-1.14,-0.65 -0.58,-1.64 1.68,-2.94z"/>
  <path class="fil13" d="M2886.92 2172.1c-31.81,18.36 -83.53,18.26 -115.53,-0.22 -32.02,-18.47 -32.17,-48.33 -0.36,-66.69 31.81,-18.36 83.51,-18.26 115.53,0.2 32.02,18.47 32.15,48.33 0.36,66.71z"/>
  <path class="fil16" d="M2802.01 2183.06c-3.64,-0.71 -7.08,-1.6 -10.57,-2.63 -7.18,-2.17 -13.96,-5.03 -20.04,-8.54 -4.36,-2.51 -8.11,-5.2 -11.3,-8.09l-3.5 -3.54c2.51,0.2 5.19,0.17 7.82,0.06 1.42,-0.07 2.78,-0.15 4.14,-0.29 2.28,-0.19 4.48,-0.56 6.52,-1.18 4.83,-1.51 7.29,-3.8 9.5,-6.54 2.12,-2.57 3.93,-2.68 5.7,0.26 3.68,5.96 10.11,10.9 21.3,12.65l-1.92 1.04c-1.82,1.04 -2.97,2.35 -3.97,3.68 -3.06,4.11 -4.25,8.65 -3.67,13.13z"/>
  <path class="fil18" d="M2835.09 2113.12c-10.07,-0.36 -19.82,1.86 -27.63,6.01 -4.12,2.2 -8.09,4.53 -11.26,7.22 -5.19,4.42 -7.94,9.63 -10.64,14.74 -2.02,3.82 -4.03,7.72 -3.53,11.69 0.87,7.02 10.81,13.47 22.9,14.33 7.57,0.56 15.08,-0.92 22.15,-2.53 14,-3.24 28.15,-7.14 37.74,-14.1 8.9,-6.47 10.6,-14.44 4.96,-22.08 -4.36,-5.92 -12.39,-11.02 -22.57,-13.58 -4.03,-1.02 -8.1,-1.57 -12.13,-1.71z"/>
  <path class="fil48" d="M2779.75 2157.94c-5.24,2.43 -12.98,4.74 -19.86,3.61 -3.94,-0.64 -4.78,-2.87 -6.2,-4.83 -2.3,-3.14 -4,-6.43 -5.08,-9.78 -1.08,-3.42 -1.5,-6.89 -1.26,-10.35 0.1,-1.72 0.39,-3.46 0.83,-5.17l1.61 -4.61c2.17,-0.5 4.29,-0.9 6.4,-1.19 9.14,-1.29 19.94,-1.28 28.42,-3.78 8.63,-2.5 13.71,-7.72 21.06,-11.26 11.37,-5.47 28.6,-6.39 41.65,-2.28 3.44,1.04 6.67,2.51 8.71,4.43 2.39,2.37 3.96,3.7 8.21,4.86 10.17,2.79 19.22,7.21 24.32,12.98 5.18,5.79 5.92,12.97 0.75,18.7 -5.72,6.35 -17.57,10.04 -29.54,11.9 -9.33,1.47 -16.69,3.74 -17.67,9.92 -0.53,3.58 0.65,7.24 -0.64,10.74 -0.5,1.28 -1.36,2.53 -2.46,3.68 -12.42,0.8 -25.1,-0.02 -36.99,-2.44 -3.64,-0.71 -7.08,-1.6 -10.57,-2.63 1.56,-3.53 5.82,-6.81 9.75,-9.65 2.41,-1.75 5.33,-3.25 8.46,-4.53 5.74,-2.39 12.44,-4.15 19.06,-5.68 16.54,-3.76 39.25,-7.93 42.98,-19.56 1.79,-5.42 -1.22,-11.28 -7.4,-15.56 -2.31,-1.54 -5.08,-2.93 -8.36,-3.48 -5,-0.85 -7.47,0.69 -11.35,2 -2.28,0.72 -4.96,1.28 -7.63,1.64 -2.97,0.43 -6.01,0.72 -8.89,0.92 -10.74,0.75 -24.35,-1.72 -33.13,3.17 -4.14,2.31 -6.54,5.53 -7.33,8.82 -0.72,3.03 -0.15,6.13 -0.28,9.2 -0.15,4.19 -1.83,7.57 -7.59,10.22z"/>
  <path class="fil49" d="M2568.13 2249.53c-15.43,8.9 -40.54,8.86 -56.09,-0.1 -15.53,-8.98 -15.61,-23.46 -0.18,-32.37 15.44,-8.92 40.54,-8.87 56.09,0.09 15.53,8.96 15.61,23.46 0.17,32.38z"/>
  <path class="fil45" d="M2550.99 2224.41l2.07 -0.78 2.47 -7.08 -1.37 -1.19 -10.78 -1.29 0 0.01 -0.13 -0.03c-2.91,-0.35 -5.76,0.28 -7.59,1.47l0 -0.03c0,0 -20.38,12.39 -11.74,32.85l0.01 -0.01c0.72,1.67 3.04,3.06 6.17,3.42l0.28 0.03 10.63 1.28 2.07 -0.79 2.46 -7.08 -1.36 -1.19 -7.35 -0.88c-1.36,-0.17 -2.26,-0.94 -1.98,-1.74l5.82 -16.68c0.28,-0.81 1.62,-1.32 3.01,-1.15l7.32 0.87z"/>
  <path class="fil50" d="M2687.17 2322.44c-15.44,8.9 -40.54,8.86 -56.08,-0.11 -15.53,-8.96 -15.61,-23.46 -0.17,-32.37 15.43,-8.92 40.54,-8.88 56.07,0.11 15.53,8.96 15.61,23.44 0.18,32.37z"/>
  <path class="fil45" d="M2665.35 2317.85l0 1.42 8.9 5.12 2.47 0.02 7.74 -4.47 0 -0.01 0.06 -0.03c2.13,-1.22 2.81,-2.94 2.09,-4.48l0.03 0.02c0,0 -6.81,-16.72 -41.07,-23.93l0.02 0c-2.82,-0.57 -6.07,-0.21 -8.31,1.08l-0.18 0.11 -7.65 4.43 0 1.42 8.89 5.12 2.49 0.02 5.28 -3.04 3.6 0 20.93 12.1 0.02 2.07 -5.28 3.06z"/>
  <path class="fil9" d="M3670.71 2049.1l-78.61 77.99 -11.93 -1.68 -41.18 -5.92 -26.24 -3.76 -63.97 -55.25 -1.2 -1.29 -59.43 -63.43c0,0 -30,-73.26 -30,-75.97 0,-1.61 5.76,-21.04 10.17,-35.76 2.8,-9.35 5.12,-16.86 5.12,-16.86l19.99 -77.35 93.43 -11.83c-4.42,9.28 -7.21,20.24 -8.5,32.79 -7.01,70.78 40.17,165.22 105.28,210.92 30.3,21.18 59.09,28.22 81.97,22.56l5.11 4.86z"/>
  <polygon class="fil9" points="3420.2,2204.81 3512.03,2151.81 3551.71,2104.21 3459.84,2157.19 "/>
  <polygon class="fil9" points="3225.66,1827.86 3317.51,1774.85 3385.74,1780.05 3293.88,1833.01 "/>
  <path class="fil9" d="M3551.46 1631.29l-91.8 53.04 -65.52 1.35 -32.39 0.64 24.15 -13.92 67.65 -39.11c27.28,-13.04 60.96,-14.07 97.9,-2z"/>
  <path class="fil49" d="M3779.98 2118.62c-14.32,20.71 -33.52,34.63 -56.31,41.26l-62.39 38.94 -5.04 4.25 -13.52 11.28 -10.87 -1.53 21.76 -15.9 34.46 -25.3 91.9 -53.01z"/>
  <path class="fil49" d="M3806.93 2028.23l-91.83 52.96 -8.94 -72.15 -4.25 -33.75 13.11 -7.59 78.71 -45.35c10.09,36.39 14.89,72.38 13.21,105.89z"/>
  <path class="fil9" d="M3740.31 1799.81l-65.03 37.5 -26.87 15.52 -91.42 -110.28 0.24 -0.17 91.59 -52.86c35.03,30.54 66.2,68.7 91.5,110.29z"/>
  <polygon class="fil9" points="3652.53,2303.42 3744.41,2250.42 3723.68,2159.86 3631.82,2212.85 "/>
  <path class="fil33" d="M3491.79 2074.69c-65.15,-45.7 -112.32,-140.14 -105.28,-210.92 7.04,-70.7 65.63,-90.99 130.78,-45.29 65.22,45.75 112.37,140.17 105.33,210.87 -7.04,70.78 -65.63,91.07 -130.83,45.33zm196.32 96.94l70.89 51.52 20.36 -72.71 -64.28 -69.21c1.65,-33.48 -3.15,-69.54 -13.21,-105.9l52.29 -24.31 -42.92 -97.28 -62.8 -0.92c-25.25,-41.67 -56.46,-79.81 -91.49,-110.31l-11.93 -93.39 -76.37 -42.66 -9.04 77.82c-36.96,-12.08 -70.64,-11.04 -97.86,1.99l-65.79 -74.84 -42.79 47.9 54.24 87.63c-6.21,15.25 -10.47,32.82 -12.44,52.61 -1.08,10.86 -1.39,22.04 -1.08,33.44l-68.22 -5.14 20.51 96.28 73.26 31.21c13.28,35.6 31.25,70.68 52.85,103.17l-21.43 69.53 69.35 76.76 39.64 -47.62c7.2,5.94 14.57,11.58 22.06,16.85 21.08,14.78 41.75,25.62 61.57,32.8l39.79 93.44 69.28 3.14 -20.71 -90.57c22.76,-6.64 42.03,-20.53 56.29,-41.22z"/>
  <polygon class="fil9" points="3636.88,1596.15 3545.03,1649.13 3468.66,1606.47 3560.52,1553.48 "/>
  <polygon class="fil9" points="3711.25,1853.74 3803.1,1800.75 3846.02,1898.03 3754.17,1951.02 "/>
  <polygon class="fil9" points="3779.37,2150.44 3871.24,2097.46 3806.95,2028.23 3715.09,2081.23 "/>
  <polygon class="fil49" points="3556.96,1742.52 3545.03,1649.13 3636.88,1596.15 3648.81,1689.53 "/>
  <polygon class="fil49" points="3711.25,1853.74 3803.1,1800.75 3740.29,1799.84 3648.45,1852.82 "/>
  <polygon class="fil49" points="3779.37,2150.44 3871.24,2097.46 3850.84,2170.2 3759,2223.14 "/>
  <polygon class="fil49" points="3361.75,1686.27 3295.96,1611.43 3387.82,1558.43 3453.56,1633.29 "/>
  <path class="fil36" d="M3975.1 1915.46l-51.92 51.5 -7.87 -1.11 -27.2 -3.9 -17.32 -2.49 -42.25 -36.5 -0.78 -0.83 -39.25 -41.89c0,0 -19.79,-48.36 -19.79,-50.15 0,-1.07 3.79,-13.89 6.7,-23.63 1.85,-6.17 3.37,-11.13 3.37,-11.13l13.21 -51.08 61.68 -7.82c-2.91,6.14 -4.75,13.36 -5.58,21.67 -4.65,46.72 26.5,109.1 69.48,139.25 20.02,14 39.03,18.64 54.13,14.9l3.39 3.21z"/>
  <polygon class="fil36" points="3809.68,2018.27 3870.32,1983.28 3896.52,1951.85 3835.87,1986.84 "/>
  <polygon class="fil36" points="3681.22,1769.39 3741.89,1734.38 3786.93,1737.81 3726.28,1772.78 "/>
  <path class="fil36" d="M3896.35 1639.59l-60.61 35.01 -43.25 0.91 -21.39 0.42 15.94 -9.18 44.68 -25.82c18,-8.62 40.24,-9.29 64.63,-1.33z"/>
  <path class="fil37" d="M4047.22 1961.36c-9.44,13.67 -22.11,22.86 -37.17,27.25l-41.19 25.71 -3.32 2.8 -8.93 7.46 -7.19 -1.02 14.37 -10.51 22.76 -16.7 60.67 -35z"/>
  <path class="fil37" d="M4065.03 1901.69l-60.63 34.96 -5.9 -47.63 -2.82 -22.29 8.67 -5.01 51.97 -29.94c6.65,24.03 9.82,47.79 8.71,69.92z"/>
  <path class="fil36" d="M4021.04 1750.86l-42.93 24.76 -17.75 10.25 -60.36 -72.83 0.17 -0.09 60.46 -34.92c23.12,20.18 43.72,45.37 60.41,72.83z"/>
  <polygon class="fil36" points="3963.1,2083.39 4023.74,2048.39 4010.07,1988.6 3949.42,2023.59 "/>
  <path class="fil34" d="M3856.95 1932.35c-43.02,-30.17 -74.15,-92.52 -69.5,-139.25 4.65,-46.69 43.32,-60.08 86.35,-29.91 43.07,30.2 74.19,92.56 69.56,139.25 -4.65,46.72 -43.33,60.13 -86.4,29.92zm129.63 64.01l46.82 34.02 13.44 -48.02 -42.44 -45.69c1.09,-22.1 -2.08,-45.92 -8.72,-69.93l34.53 -16.04 -28.33 -64.22 -41.49 -0.61c-16.67,-27.5 -37.26,-52.69 -60.4,-72.83l-7.87 -61.67 -50.41 -28.16 -5.98 51.37c-24.4,-7.97 -46.64,-7.28 -64.61,1.33l-43.44 -49.43 -28.26 31.63 35.82 57.85c-4.1,10.06 -6.9,21.65 -8.21,34.74 -0.72,7.17 -0.93,14.56 -0.72,22.08l-45.06 -3.39 13.54 63.57 48.39 20.6c8.76,23.5 20.62,46.67 34.89,68.13l-14.15 45.9 45.79 50.68 26.18 -31.43c4.75,3.93 9.61,7.65 14.56,11.13 13.92,9.75 27.57,16.92 40.65,21.65l26.28 61.69 45.75 2.08 -13.68 -59.8c15.01,-4.39 27.74,-13.56 37.15,-27.22z"/>
  <polygon class="fil36" points="3952.77,1616.4 3892.1,1651.36 3841.7,1623.2 3902.34,1588.23 "/>
  <polygon class="fil36" points="4001.87,1786.48 4062.52,1751.49 4090.84,1815.71 4030.2,1850.7 "/>
  <polygon class="fil36" points="4046.84,1982.36 4107.49,1947.39 4065.04,1901.69 4004.39,1936.67 "/>
  <polygon class="fil37" points="3899.98,1713.03 3892.1,1651.36 3952.77,1616.4 3960.63,1678.04 "/>
  <polygon class="fil37" points="4001.87,1786.48 4062.52,1751.49 4021.04,1750.88 3960.38,1785.86 "/>
  <polygon class="fil37" points="4046.84,1982.36 4107.49,1947.39 4094.03,1995.42 4033.39,2030.38 "/>
  <polygon class="fil37" points="3771.1,1675.91 3727.66,1626.48 3788.31,1591.48 3831.72,1640.92 "/>
  <path class="fil51" d="M143.51 4145.34c0,39.63 -32.11,71.76 -71.75,71.76 -39.64,0 -71.76,-32.14 -71.76,-71.76 0,-39.64 32.13,-71.76 71.76,-71.76 39.64,0 71.75,32.13 71.75,71.76z"/>
 </g>
</svg>
